<?xml version="1.0" encoding="utf-8"?>
<!-- Generator: Adobe Illustrator 23.0.1, SVG Export Plug-In . SVG Version: 6.00 Build 0)  -->
<svg version="1.1" id="Capa_1" xmlns="http://www.w3.org/2000/svg" xmlns:xlink="http://www.w3.org/1999/xlink" x="0px" y="0px"
	 viewBox="0 0 546 144" style="enable-background:new 0 0 546 144;" xml:space="preserve">
<style type="text/css">
	.st0{fill:#FFA588;}
	.st1{fill:#FFFFFF;}
</style>
<rect x="9.6" y="71.3" class="st0" width="526.8" height="20.1"/>
<g>
	<path class="st1" d="M13.8,92.7V61.5h9.8c1.7,0,3.3,0.2,4.8,0.5c1.5,0.3,2.8,0.9,3.8,1.6c1.1,0.8,1.9,1.8,2.5,3
		c0.6,1.2,0.9,2.7,0.9,4.6c0,1.7-0.3,3.2-0.9,4.5c-0.6,1.3-1.4,2.3-2.5,3.2c-1.1,0.8-2.3,1.5-3.8,1.9c-1.4,0.4-3,0.6-4.7,0.6h-4.5
		v11.4H13.8z M19.3,76.8h4.1c4.6,0,6.9-1.9,6.9-5.7c0-2-0.6-3.3-1.8-4.1c-1.2-0.7-2.9-1.1-5.3-1.1h-3.9V76.8z"/>
	<path class="st1" d="M41.5,92.7V61.5H52c1.6,0,3.1,0.2,4.5,0.5c1.4,0.3,2.6,0.8,3.6,1.5c1,0.7,1.8,1.7,2.4,2.8s0.9,2.6,0.9,4.4
		c0,2.4-0.6,4.3-1.7,5.8c-1.1,1.5-2.6,2.5-4.5,3.1l7.4,13h-6.2l-6.7-12.2H47v12.2H41.5z M47,76.1h4.4c2.1,0,3.8-0.4,4.9-1.3
		c1.1-0.9,1.7-2.2,1.7-4c0-1.8-0.6-3.1-1.7-3.8c-1.1-0.7-2.8-1-4.9-1H47V76.1z"/>
	<path class="st1" d="M81.8,93.3c-2,0-3.9-0.4-5.6-1.1c-1.7-0.7-3.1-1.8-4.3-3.2c-1.2-1.4-2.1-3.1-2.8-5.1c-0.7-2-1-4.3-1-6.8
		c0-2.5,0.3-4.8,1-6.7c0.7-2,1.6-3.7,2.8-5c1.2-1.4,2.7-2.4,4.3-3.1c1.7-0.7,3.5-1.1,5.6-1.1c2,0,3.9,0.4,5.6,1.1
		c1.7,0.7,3.1,1.8,4.4,3.1c1.2,1.4,2.2,3,2.8,5c0.7,2,1,4.2,1,6.7c0,2.5-0.3,4.8-1,6.8c-0.7,2-1.6,3.7-2.8,5.1
		c-1.2,1.4-2.7,2.5-4.4,3.2C85.7,92.9,83.9,93.3,81.8,93.3z M81.8,88.5c1.2,0,2.4-0.3,3.3-0.8c1-0.5,1.8-1.3,2.5-2.3
		c0.7-1,1.2-2.2,1.6-3.6c0.4-1.4,0.6-3,0.6-4.7c0-3.5-0.7-6.2-2.2-8.2c-1.4-2-3.4-3-5.9-3s-4.4,1-5.9,3c-1.4,2-2.2,4.7-2.2,8.2
		c0,1.7,0.2,3.3,0.6,4.7c0.4,1.4,0.9,2.6,1.6,3.6c0.7,1,1.5,1.8,2.5,2.3C79.5,88.2,80.6,88.5,81.8,88.5z M81.2,59.9l-2.4-2.8
		l7.5-6.4l3,3.6L81.2,59.9z"/>
	<path class="st1" d="M97.5,92.7l8.9-16.1l-8.3-15.1h6.2l3.4,6.9c0.4,0.7,0.8,1.5,1.1,2.2c0.4,0.8,0.8,1.6,1.3,2.5h0.2
		c0.4-0.9,0.7-1.8,1.1-2.5c0.3-0.8,0.7-1.5,1-2.2l3.3-6.9h5.9l-8.3,15.4l8.9,15.8h-6.2l-3.8-7.3c-0.4-0.8-0.8-1.6-1.2-2.5
		s-0.8-1.7-1.3-2.6h-0.2c-0.4,1-0.8,1.8-1.2,2.6c-0.4,0.8-0.7,1.6-1.1,2.5l-3.7,7.3H97.5z"/>
	<path class="st1" d="M126.6,92.7V61.5h5.5v31.2H126.6z"/>
	<path class="st1" d="M140.1,92.7V61.5h6.2l5.5,15.3c0.3,1,0.7,2,1,3c0.3,1,0.7,2.1,1,3.1h0.2c0.3-1,0.7-2,1-3.1c0.3-1,0.6-2,1-3
		l5.4-15.3h6.3v31.2h-5.1V78.5c0-0.7,0-1.5,0.1-2.4c0-0.9,0.1-1.7,0.2-2.6c0.1-0.9,0.1-1.7,0.2-2.6c0.1-0.8,0.2-1.6,0.2-2.4h-0.2
		l-2.5,7.2l-5.1,14h-3.3l-5.1-14l-2.5-7.2h-0.2c0.1,0.7,0.1,1.5,0.2,2.4c0.1,0.8,0.2,1.7,0.2,2.6c0.1,0.9,0.1,1.7,0.2,2.6
		c0,0.9,0.1,1.7,0.1,2.4v14.3H140.1z"/>
	<path class="st1" d="M171.5,92.7l10.2-31.2h6.5l10.2,31.2h-5.8l-2.4-8.4h-10.5l-2.4,8.4H171.5z M182,76.1l-1.1,3.8h8l-1.1-3.8
		c-0.5-1.7-1-3.4-1.5-5.1c-0.5-1.7-0.9-3.5-1.4-5.2h-0.2c-0.4,1.7-0.9,3.5-1.3,5.2C183,72.8,182.5,74.5,182,76.1z"/>
	<path class="st1" d="M207.7,92.7l10.2-31.2h6.5l10.2,31.2h-5.8l-2.4-8.4h-10.5l-2.4,8.4H207.7z M218.1,76.1l-1.1,3.8h8l-1.1-3.8
		c-0.5-1.7-1-3.4-1.5-5.1c-0.5-1.7-0.9-3.5-1.4-5.2h-0.2c-0.4,1.7-0.9,3.5-1.3,5.2C219.1,72.8,218.6,74.5,218.1,76.1z"/>
	<path class="st1" d="M238.3,92.7V61.5h9.8c1.7,0,3.3,0.2,4.8,0.5c1.5,0.3,2.8,0.9,3.8,1.6c1.1,0.8,1.9,1.8,2.5,3
		c0.6,1.2,0.9,2.7,0.9,4.6c0,1.7-0.3,3.2-0.9,4.5c-0.6,1.3-1.4,2.3-2.5,3.2c-1.1,0.8-2.3,1.5-3.8,1.9c-1.4,0.4-3,0.6-4.7,0.6h-4.5
		v11.4H238.3z M243.9,76.8h4.1c4.6,0,6.9-1.9,6.9-5.7c0-2-0.6-3.3-1.8-4.1c-1.2-0.7-2.9-1.1-5.3-1.1h-3.9V76.8z"/>
	<path class="st1" d="M266.1,92.7V61.5h18.8v4.7h-13.3v8h11.2v4.7h-11.2V88h13.7v4.7H266.1z"/>
	<path class="st1" d="M291.7,92.7V61.5h10.5c1.6,0,3.1,0.2,4.5,0.5c1.4,0.3,2.6,0.8,3.6,1.5c1,0.7,1.8,1.7,2.4,2.8
		c0.6,1.2,0.9,2.6,0.9,4.4c0,2.4-0.6,4.3-1.7,5.8c-1.1,1.5-2.6,2.5-4.5,3.1l7.4,13h-6.2L302,80.5h-4.8v12.2H291.7z M297.3,76.1h4.4
		c2.1,0,3.8-0.4,4.9-1.3s1.7-2.2,1.7-4c0-1.8-0.6-3.1-1.7-3.8s-2.8-1-4.9-1h-4.4V76.1z"/>
	<path class="st1" d="M325.5,92.7V66.2h-9v-4.7H340v4.7h-9v26.5H325.5z"/>
	<path class="st1" d="M356.9,93.3c-1.8,0-3.4-0.3-4.9-0.8c-1.4-0.5-2.7-1.4-3.7-2.5c-1-1.1-1.8-2.6-2.4-4.4c-0.6-1.8-0.8-4-0.8-6.6
		V61.5h5.5v17.9c0,1.7,0.1,3.1,0.5,4.3c0.3,1.2,0.7,2.1,1.3,2.8c0.6,0.7,1.2,1.2,2,1.5c0.8,0.3,1.6,0.5,2.6,0.5c1,0,1.8-0.1,2.6-0.5
		c0.8-0.3,1.5-0.8,2-1.5c0.6-0.7,1-1.6,1.3-2.8c0.3-1.2,0.5-2.6,0.5-4.3V61.5h5.3V79c0,2.6-0.3,4.8-0.8,6.6
		c-0.5,1.8-1.3,3.3-2.4,4.4c-1,1.1-2.3,2-3.7,2.5C360.4,93,358.7,93.3,356.9,93.3z"/>
	<path class="st1" d="M376.5,92.7V61.5H387c1.6,0,3.1,0.2,4.5,0.5c1.4,0.3,2.6,0.8,3.6,1.5c1,0.7,1.8,1.7,2.4,2.8s0.9,2.6,0.9,4.4
		c0,2.4-0.6,4.3-1.7,5.8c-1.1,1.5-2.6,2.5-4.5,3.1l7.4,13h-6.2l-6.7-12.2H382v12.2H376.5z M382,76.1h4.4c2.1,0,3.8-0.4,4.9-1.3
		s1.7-2.2,1.7-4c0-1.8-0.6-3.1-1.7-3.8s-2.8-1-4.9-1H382V76.1z"/>
	<path class="st1" d="M400.4,92.7l10.2-31.2h6.5l10.2,31.2h-5.8l-2.4-8.4h-10.5l-2.4,8.4H400.4z M410.8,76.1l-1.1,3.8h8l-1.1-3.8
		c-0.5-1.7-1-3.4-1.5-5.1c-0.5-1.7-0.9-3.5-1.4-5.2h-0.2c-0.4,1.7-0.9,3.5-1.3,5.2C411.8,72.8,411.3,74.5,410.8,76.1z"/>
	<path class="st1" d="M438.4,92.7v-3.2c2.1-2,4-3.9,5.7-5.6c1.7-1.7,3.1-3.3,4.3-4.8c1.2-1.5,2.1-2.8,2.7-4.1c0.6-1.3,1-2.5,1-3.6
		c0-1.6-0.4-2.9-1.3-3.8c-0.9-0.9-2.1-1.4-3.7-1.4c-1.2,0-2.2,0.3-3.2,1c-1,0.7-1.9,1.5-2.7,2.4l-3.1-3.1c1.4-1.5,2.8-2.6,4.3-3.5
		c1.5-0.8,3.3-1.2,5.4-1.2c1.5,0,2.8,0.2,4,0.7c1.2,0.4,2.2,1.1,3,1.9c0.8,0.8,1.5,1.8,1.9,2.9c0.5,1.1,0.7,2.4,0.7,3.8
		c0,1.3-0.3,2.7-0.9,4.1s-1.4,2.8-2.4,4.2c-1,1.4-2.2,2.9-3.5,4.4c-1.3,1.5-2.8,3-4.2,4.6c0.8-0.1,1.7-0.1,2.6-0.2
		c0.9-0.1,1.7-0.1,2.5-0.1h7.4v4.7H438.4z"/>
	<path class="st1" d="M473.3,93.3c-3.2,0-5.7-1.4-7.5-4.1c-1.8-2.7-2.8-6.7-2.8-11.8c0-5.1,0.9-9,2.8-11.7c1.8-2.6,4.4-3.9,7.5-3.9
		c3.2,0,5.7,1.3,7.5,4c1.8,2.6,2.8,6.5,2.8,11.6c0,5.1-0.9,9.1-2.8,11.8C479,91.9,476.4,93.3,473.3,93.3z M473.3,89
		c0.7,0,1.4-0.2,2-0.6c0.6-0.4,1.2-1.1,1.6-2c0.4-0.9,0.8-2.1,1-3.6c0.3-1.5,0.4-3.3,0.4-5.4c0-2.1-0.1-3.9-0.4-5.4
		c-0.3-1.4-0.6-2.6-1-3.5s-1-1.5-1.6-1.9c-0.6-0.4-1.3-0.5-2-0.5c-0.7,0-1.4,0.2-2,0.5c-0.6,0.4-1.2,1-1.6,1.9
		c-0.4,0.9-0.8,2.1-1,3.5c-0.3,1.4-0.4,3.2-0.4,5.4c0,2.2,0.1,4,0.4,5.4c0.3,1.5,0.6,2.7,1,3.6c0.4,0.9,1,1.6,1.6,2
		C471.9,88.8,472.5,89,473.3,89z"/>
	<path class="st1" d="M489,92.7v-4.5h6.8V68.3h-5.6v-3.4c1.5-0.3,2.8-0.6,3.9-1c1.1-0.4,2.1-0.9,3.1-1.5h4.1v25.8h6v4.5H489z"/>
	<path class="st1" d="M520.3,93.3c-1.8,0-3.4-0.3-4.7-1c-1.3-0.7-2.5-1.5-3.4-2.4l3-3.3c0.6,0.7,1.3,1.2,2.2,1.6
		c0.9,0.4,1.8,0.6,2.7,0.6c1,0,1.9-0.2,2.7-0.6c0.8-0.4,1.6-1,2.2-1.9c0.6-0.9,1.2-2,1.5-3.5c0.4-1.4,0.6-3.2,0.7-5.3
		c-0.9,1.1-1.9,2-3.1,2.6c-1.2,0.6-2.4,0.9-3.5,0.9c-1.3,0-2.5-0.2-3.6-0.6c-1.1-0.4-2-1-2.8-1.7c-0.8-0.8-1.4-1.8-1.8-2.9
		c-0.4-1.2-0.6-2.6-0.6-4.1c0-1.5,0.3-2.9,0.8-4.1c0.5-1.2,1.2-2.3,2-3.1c0.9-0.9,1.9-1.5,3-2c1.2-0.5,2.4-0.7,3.7-0.7
		c1.5,0,2.9,0.3,4.2,0.9c1.3,0.6,2.5,1.5,3.5,2.7c1,1.2,1.8,2.7,2.4,4.6c0.6,1.9,0.9,4.1,0.9,6.6c0,3-0.3,5.5-1,7.6
		c-0.7,2.1-1.5,3.8-2.6,5.2c-1.1,1.4-2.4,2.3-3.8,3C523.4,93,521.9,93.3,520.3,93.3z M521.6,77.2c0.9,0,1.8-0.3,2.8-0.8
		s1.9-1.5,2.6-2.7c-0.3-2.7-0.9-4.6-2-5.8c-1-1.2-2.3-1.8-3.7-1.8c-1.2,0-2.3,0.5-3.2,1.5c-0.9,1-1.3,2.4-1.3,4.2
		c0,1.8,0.4,3.2,1.3,4.1C518.9,76.7,520.1,77.2,521.6,77.2z"/>
</g>
</svg>
