<svg width="115" height="115" viewBox="0 0 115 115" fill="none" xmlns="http://www.w3.org/2000/svg">
<g clip-path="url(#clip0)">
<path fill-rule="evenodd" clip-rule="evenodd" d="M57.0742 98.6228C34.5389 98.6228 16.2703 80.2119 16.2703 57.5009C16.2703 34.7899 34.5389 16.3789 57.0742 16.3789C79.6095 16.3789 97.878 34.7899 97.878 57.5009C97.878 80.2119 79.6095 98.6228 57.0742 98.6228ZM57.0742 2.55554C26.9639 2.55554 2.55566 27.1558 2.55566 57.5009C2.55566 87.8459 26.9639 112.444 57.0742 112.444C87.1845 112.444 111.593 87.8459 111.593 57.5009C111.593 27.1558 87.1845 2.55554 57.0742 2.55554Z" fill="#F8F8F8"/>
<path fill-rule="evenodd" clip-rule="evenodd" d="M57.0739 16.1852C34.4917 16.1852 16.1851 34.4918 16.1851 57.0741C16.1851 79.6563 34.4917 97.963 57.0739 97.963C79.6562 97.963 97.9628 79.6563 97.9628 57.0741C97.9628 34.4918 79.6562 16.1852 57.0739 16.1852Z" fill="white"/>
<mask id="mask0" mask-type="alpha" maskUnits="userSpaceOnUse" x="0" y="0" width="115" height="115">
<path d="M0 0.0649414H114.936V115H0V0.0649414Z" fill="white"/>
</mask>
<g mask="url(#mask0)">
<path opacity="0.8" fill-rule="evenodd" clip-rule="evenodd" d="M57.4679 19.1163C36.2848 19.1163 19.0532 36.3497 19.0532 57.531C19.0532 78.7141 36.2848 95.9475 57.4679 95.9475C78.6509 95.9475 95.8826 78.7141 95.8826 57.531C95.8826 36.3497 78.6509 19.1163 57.4679 19.1163ZM57.4679 101.204C33.3867 101.204 13.7953 81.6122 13.7953 57.531C13.7953 33.4517 33.3867 13.8602 57.4679 13.8602C81.549 13.8602 101.139 33.4517 101.139 57.531C101.139 81.6122 81.549 101.204 57.4679 101.204ZM57.4679 5.32105C28.6778 5.32105 5.25611 28.7427 5.25611 57.531C5.25611 86.3211 28.6778 109.745 57.4679 109.745C86.2579 109.745 109.68 86.3211 109.68 57.531C109.68 28.7427 86.2579 5.32105 57.4679 5.32105ZM57.4679 115.001C25.7797 115.001 0 89.2192 0 57.531C0 25.8447 25.7797 0.0649414 57.4679 0.0649414C89.156 0.0649414 114.936 25.8447 114.936 57.531C114.936 89.2192 89.156 115.001 57.4679 115.001Z" fill="black"/>
</g>
<path fill-rule="evenodd" clip-rule="evenodd" d="M57.5001 55.6501C55.5405 55.6501 53.9465 57.2441 53.9465 59.2037C53.9465 61.1633 55.5405 62.7574 57.5001 62.7574C59.4597 62.7574 61.0538 61.1633 61.0538 59.2037C61.0538 57.2441 59.4597 55.6501 57.5001 55.6501ZM57.5001 68.1482C52.5681 68.1482 48.5557 64.1357 48.5557 59.2037C48.5557 54.2718 52.5681 50.2593 57.5001 50.2593C62.4321 50.2593 66.4446 54.2718 66.4446 59.2037C66.4446 64.1357 62.4321 68.1482 57.5001 68.1482Z" fill="#E53D32"/>
<path fill-rule="evenodd" clip-rule="evenodd" d="M57.5 54.5185C55.8547 54.5185 54.5186 53.3376 54.5186 51.8811V30.7484C54.5186 29.292 55.8547 28.1111 57.5 28.1111C59.1454 28.1111 60.4815 29.292 60.4815 30.7484V51.8811C60.4815 53.3376 59.1454 54.5185 57.5 54.5185Z" fill="#E53D32"/>
<path fill-rule="evenodd" clip-rule="evenodd" d="M44.2541 75.8147C43.5739 75.8147 42.8919 75.5549 42.3722 75.0352C41.333 73.9957 41.333 72.3121 42.3722 71.2727L51.5328 62.1128C52.5703 61.0734 54.2573 61.0734 55.2948 62.1128C56.3341 63.1522 56.3341 64.8359 55.2948 65.8753L46.1343 75.0352C45.6164 75.5549 44.9344 75.8147 44.2541 75.8147Z" fill="#E53D32"/>
</g>
<defs>
<clipPath id="clip0">
<rect width="115" height="115" fill="white"/>
</clipPath>
</defs>
</svg>
