<svg width="38" height="40" viewBox="0 0 38 40" fill="none" xmlns="http://www.w3.org/2000/svg">
<path d="M37.1365 18.2609H0.86377V35.6522H37.1365V18.2609Z" stroke="black" stroke-miterlimit="10" stroke-linecap="round" stroke-linejoin="round"/>
<path d="M0.86377 35.6522V39.1304" stroke="black" stroke-miterlimit="10" stroke-linecap="round" stroke-linejoin="round"/>
<path d="M37.1367 35.6522V39.1304" stroke="black" stroke-miterlimit="10" stroke-linecap="round" stroke-linejoin="round"/>
<path d="M21.5911 11.3044H4.31836C4.31836 15.1478 7.41018 18.2609 11.2274 18.2609H14.682C18.4993 18.2609 21.5911 15.1478 21.5911 11.3044Z" stroke="#FFA588" stroke-miterlimit="10" stroke-linecap="round" stroke-linejoin="round"/>
<path d="M12.9546 11.3044V3.47826C12.9546 2.03479 14.1119 0.869568 15.5455 0.869568C16.9791 0.869568 18.1364 2.03479 18.1364 3.47826" stroke="black" stroke-miterlimit="10" stroke-linecap="round" stroke-linejoin="round"/>
<path d="M21.5908 18.2609V35.6522" stroke="black" stroke-miterlimit="10" stroke-linecap="round" stroke-linejoin="round"/>
<path d="M0.86377 25.2174H21.591" stroke="black" stroke-miterlimit="10" stroke-linecap="round" stroke-linejoin="round"/>
<path d="M11.2274 20.8696C10.7438 20.8696 10.3638 21.2522 10.3638 21.7391C10.3638 22.2261 10.7438 22.6087 11.2274 22.6087C11.711 22.6087 12.091 22.2261 12.091 21.7391C12.091 21.2522 11.711 20.8696 11.2274 20.8696Z" fill="black"/>
<path d="M33.6818 21.7391H25.0454V32.1739H33.6818V21.7391Z" stroke="black" stroke-miterlimit="10" stroke-linecap="round" stroke-linejoin="round"/>
<path d="M25.0454 26.9565L30.2272 21.7391" stroke="black" stroke-miterlimit="10" stroke-linecap="round" stroke-linejoin="round"/>
<path d="M28.5 32.1739L33.6818 26.9565" stroke="black" stroke-miterlimit="10" stroke-linecap="round" stroke-linejoin="round"/>
</svg>
