<svg width="938" height="186" viewBox="0 0 938 186" fill="none" xmlns="http://www.w3.org/2000/svg">
<ellipse cx="152.5" cy="50" rx="50.5" ry="50" fill="white"/>
<path d="M202 50C202 77.0526 179.847 99 152.5 99C125.153 99 103 77.0526 103 50C103 22.9474 125.153 1 152.5 1C179.847 1 202 22.9474 202 50Z" stroke="black" stroke-opacity="0.8" stroke-width="2"/>
<path d="M143.552 64H161.936V59.488H155.936V33.472H151.808C149.888 34.624 147.776 35.392 144.752 35.968V39.424H150.368V59.488H143.552V64Z" fill="#FFA588"/>
<path d="M104.282 130.536H106.49C108.65 130.536 109.802 131.16 109.802 132.96C109.802 134.736 108.65 135.648 106.49 135.648H104.282V130.536ZM113.162 144L109.418 137.448C111.314 136.8 112.562 135.36 112.562 132.96C112.562 129.456 110.042 128.304 106.778 128.304H101.498V144H104.282V137.856H106.658L110.042 144H113.162ZM115.056 138.12C115.056 142.008 117.6 144.288 120.864 144.288C122.352 144.288 123.768 143.76 124.896 143.016L123.96 141.288C123.096 141.84 122.232 142.152 121.224 142.152C119.328 142.152 117.984 140.952 117.744 138.816H125.232C125.304 138.528 125.352 138.048 125.352 137.52C125.352 134.232 123.672 131.928 120.48 131.928C117.72 131.928 115.056 134.28 115.056 138.12ZM117.72 137.064C117.96 135.096 119.16 134.064 120.552 134.064C122.16 134.064 122.952 135.192 122.952 137.064H117.72ZM131.108 144H134.3L138.308 132.216H135.644L133.772 138.336C133.436 139.488 133.1 140.688 132.764 141.888H132.668C132.356 140.688 131.996 139.488 131.684 138.336L129.812 132.216H127.004L131.108 144ZM142.223 130.152C143.207 130.152 143.927 129.504 143.927 128.592C143.927 127.656 143.207 127.008 142.223 127.008C141.239 127.008 140.519 127.656 140.519 128.592C140.519 129.504 141.239 130.152 142.223 130.152ZM140.831 144H143.591V132.216H140.831V144ZM146.416 142.656C147.568 143.592 149.272 144.288 150.88 144.288C153.856 144.288 155.464 142.656 155.464 140.64C155.464 138.432 153.688 137.664 152.08 137.064C150.808 136.608 149.632 136.224 149.632 135.312C149.632 134.568 150.184 134.016 151.36 134.016C152.296 134.016 153.136 134.424 153.952 135.024L155.224 133.344C154.264 132.6 152.944 131.928 151.312 131.928C148.672 131.928 147.016 133.392 147.016 135.456C147.016 137.424 148.768 138.312 150.328 138.888C151.576 139.368 152.848 139.8 152.848 140.784C152.848 141.6 152.248 142.2 150.976 142.2C149.776 142.2 148.768 141.696 147.712 140.88L146.416 142.656ZM157.904 140.832C157.904 142.896 159.344 144.288 161.408 144.288C162.8 144.288 164 143.592 165.056 142.704H165.128L165.344 144H167.6V137.016C167.6 133.728 166.16 131.928 163.208 131.928C161.336 131.928 159.68 132.648 158.384 133.464L159.392 135.312C160.424 134.688 161.528 134.16 162.704 134.16C164.288 134.16 164.816 135.216 164.84 136.464C160.016 136.992 157.904 138.312 157.904 140.832ZM160.592 140.616C160.592 139.44 161.648 138.6 164.84 138.192V140.832C163.976 141.648 163.232 142.128 162.272 142.128C161.288 142.128 160.592 141.672 160.592 140.616ZM176.853 140.976C176.853 143.016 177.573 144.288 179.541 144.288C180.189 144.288 180.669 144.192 181.005 144.048L180.645 141.984C180.429 142.032 180.333 142.032 180.213 142.032C179.925 142.032 179.613 141.792 179.613 141.12V127.056H176.853V140.976ZM183.08 138.12C183.08 142.032 185.744 144.288 188.672 144.288C191.624 144.288 194.288 142.032 194.288 138.12C194.288 134.184 191.624 131.928 188.672 131.928C185.744 131.928 183.08 134.184 183.08 138.12ZM185.912 138.12C185.912 135.744 186.944 134.184 188.672 134.184C190.4 134.184 191.456 135.744 191.456 138.12C191.456 140.472 190.4 142.032 188.672 142.032C186.944 142.032 185.912 140.472 185.912 138.12ZM196.23 142.656C197.382 143.592 199.086 144.288 200.694 144.288C203.67 144.288 205.278 142.656 205.278 140.64C205.278 138.432 203.502 137.664 201.894 137.064C200.622 136.608 199.446 136.224 199.446 135.312C199.446 134.568 199.998 134.016 201.174 134.016C202.11 134.016 202.95 134.424 203.766 135.024L205.038 133.344C204.078 132.6 202.758 131.928 201.126 131.928C198.486 131.928 196.83 133.392 196.83 135.456C196.83 137.424 198.582 138.312 200.142 138.888C201.39 139.368 202.662 139.8 202.662 140.784C202.662 141.6 202.062 142.2 200.79 142.2C199.59 142.2 198.582 141.696 197.526 140.88L196.23 142.656ZM32.399 174H35.183V160.656H39.695V158.304H27.863V160.656H32.399V174ZM40.0473 168.12C40.0473 172.008 42.5913 174.288 45.8553 174.288C47.3433 174.288 48.7593 173.76 49.8873 173.016L48.9513 171.288C48.0873 171.84 47.2233 172.152 46.2153 172.152C44.3193 172.152 42.9753 170.952 42.7353 168.816H50.2233C50.2953 168.528 50.3433 168.048 50.3433 167.52C50.3433 164.232 48.6633 161.928 45.4713 161.928C42.7113 161.928 40.0473 164.28 40.0473 168.12ZM42.7113 167.064C42.9513 165.096 44.1513 164.064 45.5433 164.064C47.1513 164.064 47.9433 165.192 47.9433 167.064H42.7113ZM48.6153 156.744H45.8553L43.7193 160.248H45.7593L48.6153 156.744ZM53.4593 174H56.2193V166.8C56.9393 165.024 58.0673 164.376 59.0033 164.376C59.5073 164.376 59.8193 164.448 60.2273 164.568L60.7073 162.168C60.3473 162 59.9633 161.928 59.3633 161.928C58.1153 161.928 56.8673 162.768 56.0273 164.304H55.9313L55.7393 162.216H53.4593V174ZM62.8925 174H65.6525V165.768C66.5645 164.784 67.4045 164.304 68.1245 164.304C69.3725 164.304 69.9485 165.024 69.9485 166.968V174H72.7085V165.768C73.6205 164.784 74.4365 164.304 75.1805 164.304C76.4045 164.304 76.9805 165.024 76.9805 166.968V174H79.7645V166.608C79.7645 163.632 78.6125 161.928 76.1165 161.928C74.6285 161.928 73.4525 162.84 72.3245 164.04C71.7725 162.72 70.7885 161.928 69.0605 161.928C67.5965 161.928 66.4445 162.768 65.4605 163.824H65.3645L65.1725 162.216H62.8925V174ZM84.991 160.152C85.975 160.152 86.695 159.504 86.695 158.592C86.695 157.656 85.975 157.008 84.991 157.008C84.007 157.008 83.287 157.656 83.287 158.592C83.287 159.504 84.007 160.152 84.991 160.152ZM83.599 174H86.359V162.216H83.599V174ZM90.3603 174H93.1203V165.768C94.1043 164.808 94.7763 164.304 95.8083 164.304C97.1043 164.304 97.6563 165.024 97.6563 166.968V174H100.416V166.608C100.416 163.632 99.3123 161.928 96.7923 161.928C95.1843 161.928 93.9843 162.768 92.9283 163.8H92.8323L92.6403 162.216H90.3603V174ZM103.502 168.12C103.502 172.032 106.166 174.288 109.094 174.288C112.046 174.288 114.71 172.032 114.71 168.12C114.71 164.184 112.046 161.928 109.094 161.928C106.166 161.928 103.502 164.184 103.502 168.12ZM106.334 168.12C106.334 165.744 107.366 164.184 109.094 164.184C110.822 164.184 111.878 165.744 111.878 168.12C111.878 170.472 110.822 172.032 109.094 172.032C107.366 172.032 106.334 170.472 106.334 168.12ZM116.652 172.656C117.804 173.592 119.508 174.288 121.116 174.288C124.092 174.288 125.7 172.656 125.7 170.64C125.7 168.432 123.924 167.664 122.316 167.064C121.044 166.608 119.868 166.224 119.868 165.312C119.868 164.568 120.42 164.016 121.596 164.016C122.532 164.016 123.372 164.424 124.188 165.024L125.46 163.344C124.5 162.6 123.18 161.928 121.548 161.928C118.908 161.928 117.252 163.392 117.252 165.456C117.252 167.424 119.004 168.312 120.564 168.888C121.812 169.368 123.084 169.8 123.084 170.784C123.084 171.6 122.484 172.2 121.212 172.2C120.012 172.2 119.004 171.696 117.948 170.88L116.652 172.656ZM133.806 176.448L133.302 178.608C133.734 178.752 134.19 178.848 134.838 178.848C137.406 178.848 138.63 177.192 139.614 174.528L143.886 162.216H141.222L139.446 168C139.158 169.056 138.846 170.232 138.558 171.312H138.462C138.102 170.208 137.766 169.032 137.43 168L135.39 162.216H132.582L137.214 173.856L136.998 174.6C136.614 175.776 135.894 176.616 134.646 176.616C134.358 176.616 134.022 176.52 133.806 176.448ZM151.043 168.12C151.043 172.032 153.515 174.288 156.731 174.288C158.075 174.288 159.491 173.76 160.595 172.776L159.443 171.024C158.795 171.552 157.979 172.032 157.019 172.032C155.171 172.032 153.875 170.472 153.875 168.12C153.875 165.744 155.195 164.184 157.091 164.184C157.835 164.184 158.459 164.496 159.083 165.048L160.403 163.296C159.611 162.528 158.459 161.928 156.947 161.928C153.803 161.928 151.043 164.184 151.043 168.12ZM162.023 168.12C162.023 172.032 164.687 174.288 167.615 174.288C170.567 174.288 173.231 172.032 173.231 168.12C173.231 164.184 170.567 161.928 167.615 161.928C164.687 161.928 162.023 164.184 162.023 168.12ZM164.855 168.12C164.855 165.744 165.887 164.184 167.615 164.184C169.343 164.184 170.399 165.744 170.399 168.12C170.399 170.472 169.343 172.032 167.615 172.032C165.887 172.032 164.855 170.472 164.855 168.12ZM176.442 174H179.202V165.768C180.186 164.808 180.858 164.304 181.89 164.304C183.186 164.304 183.738 165.024 183.738 166.968V174H186.498V166.608C186.498 163.632 185.394 161.928 182.874 161.928C181.266 161.928 180.066 162.768 179.01 163.8H178.914L178.722 162.216H176.442V174ZM189.632 168.12C189.632 172.008 191.528 174.288 194.48 174.288C195.752 174.288 196.952 173.592 197.816 172.728H197.912L198.104 174H200.384V157.056H197.624V161.328L197.72 163.224C196.808 162.432 195.968 161.928 194.624 161.928C192.056 161.928 189.632 164.28 189.632 168.12ZM192.488 168.096C192.488 165.624 193.712 164.208 195.224 164.208C196.016 164.208 196.808 164.472 197.624 165.192V170.688C196.832 171.6 196.064 172.008 195.152 172.008C193.448 172.008 192.488 170.64 192.488 168.096ZM205.771 160.152C206.755 160.152 207.475 159.504 207.475 158.592C207.475 157.656 206.755 157.008 205.771 157.008C204.787 157.008 204.067 157.656 204.067 158.592C204.067 159.504 204.787 160.152 205.771 160.152ZM204.379 174H207.139V162.216H204.379V174ZM210.372 168.12C210.372 172.032 212.844 174.288 216.06 174.288C217.404 174.288 218.82 173.76 219.924 172.776L218.772 171.024C218.124 171.552 217.308 172.032 216.348 172.032C214.5 172.032 213.204 170.472 213.204 168.12C213.204 165.744 214.524 164.184 216.42 164.184C217.164 164.184 217.788 164.496 218.412 165.048L219.732 163.296C218.94 162.528 217.788 161.928 216.276 161.928C213.132 161.928 210.372 164.184 210.372 168.12ZM224.098 160.152C225.082 160.152 225.802 159.504 225.802 158.592C225.802 157.656 225.082 157.008 224.098 157.008C223.114 157.008 222.394 157.656 222.394 158.592C222.394 159.504 223.114 160.152 224.098 160.152ZM222.706 174H225.466V162.216H222.706V174ZM228.699 168.12C228.699 172.032 231.363 174.288 234.291 174.288C237.243 174.288 239.907 172.032 239.907 168.12C239.907 164.184 237.243 161.928 234.291 161.928C231.363 161.928 228.699 164.184 228.699 168.12ZM231.531 168.12C231.531 165.744 232.563 164.184 234.291 164.184C236.019 164.184 237.075 165.744 237.075 168.12C237.075 170.472 236.019 172.032 234.291 172.032C232.563 172.032 231.531 170.472 231.531 168.12ZM243.119 174H245.879V165.768C246.863 164.808 247.535 164.304 248.567 164.304C249.863 164.304 250.415 165.024 250.415 166.968V174H253.175V166.608C253.175 163.632 252.071 161.928 249.551 161.928C247.943 161.928 246.743 162.768 245.687 163.8H245.591L245.399 162.216H243.119V174ZM256.261 168.12C256.261 172.008 258.805 174.288 262.069 174.288C263.557 174.288 264.973 173.76 266.101 173.016L265.165 171.288C264.301 171.84 263.437 172.152 262.429 172.152C260.533 172.152 259.189 170.952 258.949 168.816H266.437C266.509 168.528 266.557 168.048 266.557 167.52C266.557 164.232 264.877 161.928 261.685 161.928C258.925 161.928 256.261 164.28 256.261 168.12ZM258.925 167.064C259.165 165.096 260.365 164.064 261.757 164.064C263.365 164.064 264.157 165.192 264.157 167.064H258.925ZM268.497 172.656C269.649 173.592 271.353 174.288 272.961 174.288C275.937 174.288 277.545 172.656 277.545 170.64C277.545 168.432 275.769 167.664 274.161 167.064C272.889 166.608 271.713 166.224 271.713 165.312C271.713 164.568 272.265 164.016 273.441 164.016C274.377 164.016 275.217 164.424 276.033 165.024L277.305 163.344C276.345 162.6 275.025 161.928 273.393 161.928C270.753 161.928 269.097 163.392 269.097 165.456C269.097 167.424 270.849 168.312 272.409 168.888C273.657 169.368 274.929 169.8 274.929 170.784C274.929 171.6 274.329 172.2 273.057 172.2C271.857 172.2 270.849 171.696 269.793 170.88L268.497 172.656Z" fill="black" fill-opacity="0.8"/>
<ellipse cx="468.5" cy="50" rx="50.5" ry="50" fill="white"/>
<path d="M518 50C518 77.0526 495.847 99 468.5 99C441.153 99 419 77.0526 419 50C419 22.9474 441.153 1 468.5 1C495.847 1 518 22.9474 518 50Z" stroke="black" stroke-opacity="0.2" stroke-width="2"/>
<path opacity="0.4" d="M456.824 64H477.464V59.296H469.976C468.488 59.296 466.472 59.488 464.888 59.632C470.936 53.248 475.976 47.68 475.976 42.256C475.976 36.592 472.184 32.896 466.328 32.896C462.152 32.896 459.368 34.624 456.584 37.6L459.656 40.672C461.288 38.848 463.256 37.264 465.608 37.264C468.872 37.264 470.648 39.328 470.648 42.544C470.648 47.2 465.32 52.576 456.824 60.784V64Z" fill="#FFA588"/>
<path opacity="0.4" d="M393.3 130.536H395.508C397.668 130.536 398.82 131.16 398.82 132.96C398.82 134.736 397.668 135.648 395.508 135.648H393.3V130.536ZM402.18 144L398.436 137.448C400.332 136.8 401.58 135.36 401.58 132.96C401.58 129.456 399.06 128.304 395.796 128.304H390.516V144H393.3V137.856H395.676L399.06 144H402.18ZM404.075 138.12C404.075 142.008 406.619 144.288 409.883 144.288C411.371 144.288 412.787 143.76 413.915 143.016L412.979 141.288C412.115 141.84 411.251 142.152 410.243 142.152C408.347 142.152 407.003 140.952 406.763 138.816H414.251C414.323 138.528 414.371 138.048 414.371 137.52C414.371 134.232 412.691 131.928 409.499 131.928C406.739 131.928 404.075 134.28 404.075 138.12ZM406.739 137.064C406.979 135.096 408.179 134.064 409.571 134.064C411.179 134.064 411.971 135.192 411.971 137.064H406.739ZM416.702 140.832C416.702 142.896 418.142 144.288 420.206 144.288C421.598 144.288 422.798 143.592 423.854 142.704H423.926L424.142 144H426.398V137.016C426.398 133.728 424.958 131.928 422.006 131.928C420.134 131.928 418.478 132.648 417.182 133.464L418.19 135.312C419.222 134.688 420.326 134.16 421.502 134.16C423.086 134.16 423.614 135.216 423.638 136.464C418.814 136.992 416.702 138.312 416.702 140.832ZM419.39 140.616C419.39 139.44 420.446 138.6 423.638 138.192V140.832C422.774 141.648 422.03 142.128 421.07 142.128C420.086 142.128 419.39 141.672 419.39 140.616ZM430.248 140.976C430.248 143.016 430.968 144.288 432.936 144.288C433.584 144.288 434.064 144.192 434.4 144.048L434.04 141.984C433.824 142.032 433.728 142.032 433.608 142.032C433.32 142.032 433.008 141.792 433.008 141.12V127.056H430.248V140.976ZM438.636 130.152C439.62 130.152 440.34 129.504 440.34 128.592C440.34 127.656 439.62 127.008 438.636 127.008C437.652 127.008 436.932 127.656 436.932 128.592C436.932 129.504 437.652 130.152 438.636 130.152ZM437.244 144H440.004V132.216H437.244V144ZM443.069 144H452.285V141.792H446.549L452.093 133.68V132.216H443.693V134.4H448.637L443.069 142.512V144ZM454.2 140.832C454.2 142.896 455.64 144.288 457.704 144.288C459.096 144.288 460.296 143.592 461.352 142.704H461.424L461.64 144H463.896V137.016C463.896 133.728 462.456 131.928 459.504 131.928C457.632 131.928 455.976 132.648 454.68 133.464L455.688 135.312C456.72 134.688 457.824 134.16 459 134.16C460.584 134.16 461.112 135.216 461.136 136.464C456.312 136.992 454.2 138.312 454.2 140.832ZM456.888 140.616C456.888 139.44 457.944 138.6 461.136 138.192V140.832C460.272 141.648 459.528 142.128 458.568 142.128C457.584 142.128 456.888 141.672 456.888 140.616ZM472.38 138.12C472.38 142.008 474.924 144.288 478.188 144.288C479.676 144.288 481.092 143.76 482.22 143.016L481.284 141.288C480.42 141.84 479.556 142.152 478.548 142.152C476.652 142.152 475.308 140.952 475.068 138.816H482.556C482.628 138.528 482.676 138.048 482.676 137.52C482.676 134.232 480.996 131.928 477.804 131.928C475.044 131.928 472.38 134.28 472.38 138.12ZM475.044 137.064C475.284 135.096 476.484 134.064 477.876 134.064C479.484 134.064 480.276 135.192 480.276 137.064H475.044ZM485.792 140.976C485.792 143.016 486.512 144.288 488.48 144.288C489.128 144.288 489.608 144.192 489.944 144.048L489.584 141.984C489.368 142.032 489.272 142.032 489.152 142.032C488.864 142.032 488.552 141.792 488.552 141.12V127.056H485.792V140.976ZM500.878 142.992C501.838 143.808 502.87 144.288 503.902 144.288C506.518 144.288 508.942 141.96 508.942 137.928C508.942 134.28 507.238 131.928 504.31 131.928C503.014 131.928 501.742 132.624 500.758 133.464H500.662L500.47 132.216H498.19V148.656H500.95V144.96L500.878 142.992ZM500.95 141.024V135.528C501.862 134.64 502.678 134.208 503.542 134.208C505.318 134.208 506.086 135.6 506.086 137.952C506.086 140.616 504.886 142.008 503.326 142.008C502.63 142.008 501.814 141.744 500.95 141.024ZM511.431 140.832C511.431 142.896 512.871 144.288 514.935 144.288C516.327 144.288 517.527 143.592 518.583 142.704H518.655L518.871 144H521.127V137.016C521.127 133.728 519.687 131.928 516.735 131.928C514.863 131.928 513.207 132.648 511.911 133.464L512.919 135.312C513.951 134.688 515.055 134.16 516.231 134.16C517.815 134.16 518.343 135.216 518.367 136.464C513.543 136.992 511.431 138.312 511.431 140.832ZM514.119 140.616C514.119 139.44 515.175 138.6 518.367 138.192V140.832C517.503 141.648 516.759 142.128 515.799 142.128C514.815 142.128 514.119 141.672 514.119 140.616ZM526.49 145.728C526.49 145.176 526.778 144.648 527.402 144.168C527.858 144.288 528.362 144.336 529.01 144.336H530.618C531.962 144.336 532.706 144.6 532.706 145.512C532.706 146.52 531.41 147.408 529.514 147.408C527.642 147.408 526.49 146.784 526.49 145.728ZM524.186 146.136C524.186 148.2 526.274 149.208 529.082 149.208C532.922 149.208 535.37 147.384 535.37 145.056C535.37 143.016 533.882 142.152 531.05 142.152H528.962C527.522 142.152 527.042 141.744 527.042 141.072C527.042 140.544 527.258 140.256 527.618 139.944C528.146 140.16 528.722 140.256 529.226 140.256C531.722 140.256 533.69 138.864 533.69 136.248C533.69 135.432 533.402 134.712 533.018 134.256H535.178V132.216H530.954C530.474 132.048 529.874 131.928 529.226 131.928C526.754 131.928 524.57 133.44 524.57 136.152C524.57 137.544 525.314 138.672 526.106 139.272V139.368C525.434 139.848 524.81 140.64 524.81 141.552C524.81 142.512 525.266 143.136 525.866 143.52V143.616C524.786 144.288 524.186 145.152 524.186 146.136ZM529.226 138.528C528.074 138.528 527.162 137.664 527.162 136.152C527.162 134.664 528.074 133.824 529.226 133.824C530.378 133.824 531.266 134.688 531.266 136.152C531.266 137.664 530.354 138.528 529.226 138.528ZM536.784 138.12C536.784 142.032 539.448 144.288 542.376 144.288C545.328 144.288 547.992 142.032 547.992 138.12C547.992 134.184 545.328 131.928 542.376 131.928C539.448 131.928 536.784 134.184 536.784 138.12ZM539.616 138.12C539.616 135.744 540.648 134.184 542.376 134.184C544.104 134.184 545.16 135.744 545.16 138.12C545.16 140.472 544.104 142.032 542.376 142.032C540.648 142.032 539.616 140.472 539.616 138.12Z" fill="black" fill-opacity="0.8"/>
<ellipse cx="784.5" cy="50" rx="50.5" ry="50" fill="white"/>
<path d="M834 50C834 77.0526 811.847 99 784.5 99C757.153 99 735 77.0526 735 50C735 22.9474 757.153 1 784.5 1C811.847 1 834 22.9474 834 50Z" stroke="black" stroke-opacity="0.2" stroke-width="2"/>
<path opacity="0.4" d="M772.152 60.256C774.312 62.656 777.576 64.576 782.52 64.576C788.376 64.576 793.224 61.312 793.224 55.744C793.224 51.712 790.488 49.12 786.888 48.16V47.968C790.2 46.672 792.216 44.368 792.216 40.96C792.216 35.776 788.184 32.896 782.328 32.896C778.68 32.896 775.752 34.432 773.16 36.736L775.992 40.144C777.864 38.416 779.736 37.264 782.136 37.264C784.92 37.264 786.648 38.8 786.648 41.344C786.648 44.176 784.68 46.24 778.68 46.24V50.272C785.64 50.272 787.656 52.288 787.656 55.456C787.656 58.336 785.352 60.064 782.04 60.064C778.968 60.064 776.616 58.576 774.792 56.704L772.152 60.256Z" fill="#FFA588"/>
<path opacity="0.4" d="M657.763 130.536H659.971C662.131 130.536 663.283 131.16 663.283 132.96C663.283 134.736 662.131 135.648 659.971 135.648H657.763V130.536ZM666.643 144L662.899 137.448C664.795 136.8 666.043 135.36 666.043 132.96C666.043 129.456 663.523 128.304 660.259 128.304H654.979V144H657.763V137.856H660.139L663.523 144H666.643ZM668.538 138.12C668.538 142.008 671.082 144.288 674.346 144.288C675.834 144.288 677.25 143.76 678.378 143.016L677.442 141.288C676.578 141.84 675.714 142.152 674.706 142.152C672.81 142.152 671.466 140.952 671.226 138.816H678.714C678.786 138.528 678.834 138.048 678.834 137.52C678.834 134.232 677.154 131.928 673.962 131.928C671.202 131.928 668.538 134.28 668.538 138.12ZM671.202 137.064C671.442 135.096 672.642 134.064 674.034 134.064C675.642 134.064 676.434 135.192 676.434 137.064H671.202ZM681.182 138.12C681.182 142.032 683.654 144.288 686.87 144.288C688.214 144.288 689.63 143.76 690.734 142.776L689.582 141.024C688.934 141.552 688.118 142.032 687.158 142.032C685.31 142.032 684.014 140.472 684.014 138.12C684.014 135.744 685.334 134.184 687.23 134.184C687.974 134.184 688.598 134.496 689.222 135.048L690.542 133.296C689.75 132.528 688.598 131.928 687.086 131.928C683.942 131.928 681.182 134.184 681.182 138.12ZM694.908 130.152C695.892 130.152 696.612 129.504 696.612 128.592C696.612 127.656 695.892 127.008 694.908 127.008C693.924 127.008 693.204 127.656 693.204 128.592C693.204 129.504 693.924 130.152 694.908 130.152ZM693.516 144H696.276V132.216H693.516V144ZM700.277 144H702.461L702.701 142.8H702.773C703.757 143.76 704.909 144.288 705.989 144.288C708.605 144.288 711.029 141.96 711.029 137.904C711.029 134.28 709.325 131.928 706.373 131.928C705.173 131.928 703.949 132.528 702.965 133.392L703.037 131.424V127.056H700.277V144ZM703.037 141.024V135.528C703.949 134.64 704.765 134.208 705.629 134.208C707.405 134.208 708.173 135.6 708.173 137.952C708.173 140.616 706.973 142.008 705.413 142.008C704.717 142.008 703.877 141.744 703.037 141.024ZM713.536 138.12C713.536 142.008 716.08 144.288 719.344 144.288C720.832 144.288 722.248 143.76 723.376 143.016L722.44 141.288C721.576 141.84 720.712 142.152 719.704 142.152C717.808 142.152 716.464 140.952 716.224 138.816H723.712C723.784 138.528 723.832 138.048 723.832 137.52C723.832 134.232 722.152 131.928 718.96 131.928C716.2 131.928 713.536 134.28 713.536 138.12ZM716.2 137.064C716.44 135.096 717.64 134.064 719.032 134.064C720.64 134.064 721.432 135.192 721.432 137.064H716.2ZM732.758 140.016C732.758 142.56 733.766 144.288 736.502 144.288C737.438 144.288 738.254 144.072 738.902 143.856L738.422 141.816C738.086 141.96 737.606 142.08 737.198 142.08C736.07 142.08 735.542 141.408 735.542 140.016V134.4H738.542V132.216H735.542V129H733.238L732.902 132.216L731.078 132.336V134.4H732.758V140.016ZM741.288 139.608C741.288 142.584 742.392 144.288 744.912 144.288C746.52 144.288 747.672 143.496 748.704 142.272H748.776L748.992 144H751.248V132.216H748.488V140.28C747.6 141.432 746.904 141.912 745.872 141.912C744.6 141.912 744.048 141.192 744.048 139.248V132.216H741.288V139.608ZM760.626 144H763.386V135.768C764.298 134.784 765.138 134.304 765.858 134.304C767.106 134.304 767.682 135.024 767.682 136.968V144H770.442V135.768C771.354 134.784 772.17 134.304 772.914 134.304C774.138 134.304 774.714 135.024 774.714 136.968V144H777.498V136.608C777.498 133.632 776.346 131.928 773.85 131.928C772.362 131.928 771.186 132.84 770.058 134.04C769.506 132.72 768.522 131.928 766.794 131.928C765.33 131.928 764.178 132.768 763.194 133.824H763.098L762.906 132.216H760.626V144ZM780.564 138.12C780.564 142.008 783.108 144.288 786.372 144.288C787.86 144.288 789.276 143.76 790.404 143.016L789.468 141.288C788.604 141.84 787.74 142.152 786.732 142.152C784.836 142.152 783.492 140.952 783.252 138.816H790.74C790.812 138.528 790.86 138.048 790.86 137.52C790.86 134.232 789.18 131.928 785.988 131.928C783.228 131.928 780.564 134.28 780.564 138.12ZM783.228 137.064C783.468 135.096 784.668 134.064 786.06 134.064C787.668 134.064 788.46 135.192 788.46 137.064H783.228ZM793.976 144H796.736V135.768C797.648 134.784 798.488 134.304 799.208 134.304C800.456 134.304 801.032 135.024 801.032 136.968V144H803.792V135.768C804.704 134.784 805.52 134.304 806.264 134.304C807.488 134.304 808.064 135.024 808.064 136.968V144H810.848V136.608C810.848 133.632 809.696 131.928 807.2 131.928C805.712 131.928 804.536 132.84 803.408 134.04C802.856 132.72 801.872 131.928 800.144 131.928C798.68 131.928 797.528 132.768 796.544 133.824H796.448L796.256 132.216H793.976V144ZM814.683 144H816.867L817.107 142.8H817.179C818.163 143.76 819.315 144.288 820.395 144.288C823.011 144.288 825.435 141.96 825.435 137.904C825.435 134.28 823.731 131.928 820.779 131.928C819.579 131.928 818.355 132.528 817.371 133.392L817.443 131.424V127.056H814.683V144ZM817.443 141.024V135.528C818.355 134.64 819.171 134.208 820.035 134.208C821.811 134.208 822.579 135.6 822.579 137.952C822.579 140.616 821.379 142.008 819.819 142.008C819.123 142.008 818.283 141.744 817.443 141.024ZM828.71 144H831.47V136.8C832.19 135.024 833.318 134.376 834.254 134.376C834.758 134.376 835.07 134.448 835.478 134.568L835.958 132.168C835.598 132 835.214 131.928 834.614 131.928C833.366 131.928 832.118 132.768 831.278 134.304H831.182L830.99 132.216H828.71V144ZM837.141 138.12C837.141 142.008 839.685 144.288 842.949 144.288C844.437 144.288 845.853 143.76 846.981 143.016L846.045 141.288C845.181 141.84 844.317 142.152 843.309 142.152C841.413 142.152 840.069 140.952 839.829 138.816H847.317C847.389 138.528 847.437 138.048 847.437 137.52C847.437 134.232 845.757 131.928 842.565 131.928C839.805 131.928 837.141 134.28 837.141 138.12ZM839.805 137.064C840.045 135.096 841.245 134.064 842.637 134.064C844.245 134.064 845.037 135.192 845.037 137.064H839.805ZM849.377 142.656C850.529 143.592 852.233 144.288 853.841 144.288C856.817 144.288 858.425 142.656 858.425 140.64C858.425 138.432 856.649 137.664 855.041 137.064C853.769 136.608 852.593 136.224 852.593 135.312C852.593 134.568 853.145 134.016 854.321 134.016C855.257 134.016 856.097 134.424 856.913 135.024L858.185 133.344C857.225 132.6 855.905 131.928 854.273 131.928C851.633 131.928 849.977 133.392 849.977 135.456C849.977 137.424 851.729 138.312 853.289 138.888C854.537 139.368 855.809 139.8 855.809 140.784C855.809 141.6 855.209 142.2 853.937 142.2C852.737 142.2 851.729 141.696 850.673 140.88L849.377 142.656ZM861.369 144H864.129V132.216H861.369V144ZM865.881 126.744H863.145L860.985 130.248H863.049L865.881 126.744ZM867.626 140.832C867.626 142.896 869.066 144.288 871.13 144.288C872.522 144.288 873.722 143.592 874.778 142.704H874.85L875.066 144H877.322V137.016C877.322 133.728 875.882 131.928 872.93 131.928C871.058 131.928 869.402 132.648 868.106 133.464L869.114 135.312C870.146 134.688 871.25 134.16 872.426 134.16C874.01 134.16 874.538 135.216 874.562 136.464C869.738 136.992 867.626 138.312 867.626 140.832ZM870.314 140.616C870.314 139.44 871.37 138.6 874.562 138.192V140.832C873.698 141.648 872.954 142.128 871.994 142.128C871.01 142.128 870.314 141.672 870.314 140.616ZM889.214 144H892.406L896.414 132.216H893.75L891.878 138.336C891.542 139.488 891.206 140.688 890.87 141.888H890.774C890.462 140.688 890.102 139.488 889.79 138.336L887.918 132.216H885.11L889.214 144ZM898.937 144H901.697V132.216H898.937V144ZM903.449 126.744H900.713L898.553 130.248H900.617L903.449 126.744ZM905.194 140.832C905.194 142.896 906.634 144.288 908.698 144.288C910.09 144.288 911.29 143.592 912.346 142.704H912.418L912.634 144H914.89V137.016C914.89 133.728 913.45 131.928 910.498 131.928C908.626 131.928 906.97 132.648 905.674 133.464L906.682 135.312C907.714 134.688 908.818 134.16 909.994 134.16C911.578 134.16 912.106 135.216 912.13 136.464C907.306 136.992 905.194 138.312 905.194 140.832ZM907.882 140.616C907.882 139.44 908.938 138.6 912.13 138.192V140.832C911.266 141.648 910.522 142.128 909.562 142.128C908.578 142.128 907.882 141.672 907.882 140.616ZM687.926 168.12C687.926 172.032 690.398 174.288 693.614 174.288C694.958 174.288 696.374 173.76 697.478 172.776L696.326 171.024C695.678 171.552 694.862 172.032 693.902 172.032C692.054 172.032 690.758 170.472 690.758 168.12C690.758 165.744 692.078 164.184 693.974 164.184C694.718 164.184 695.342 164.496 695.966 165.048L697.286 163.296C696.494 162.528 695.342 161.928 693.83 161.928C690.686 161.928 687.926 164.184 687.926 168.12ZM698.906 168.12C698.906 172.032 701.57 174.288 704.498 174.288C707.45 174.288 710.114 172.032 710.114 168.12C710.114 164.184 707.45 161.928 704.498 161.928C701.57 161.928 698.906 164.184 698.906 168.12ZM701.738 168.12C701.738 165.744 702.77 164.184 704.498 164.184C706.226 164.184 707.282 165.744 707.282 168.12C707.282 170.472 706.226 172.032 704.498 172.032C702.77 172.032 701.738 170.472 701.738 168.12ZM713.326 174H716.086V166.8C716.806 165.024 717.934 164.376 718.87 164.376C719.374 164.376 719.686 164.448 720.094 164.568L720.574 162.168C720.214 162 719.83 161.928 719.23 161.928C717.982 161.928 716.734 162.768 715.894 164.304H715.798L715.606 162.216H713.326V174ZM722.759 174H725.519V166.8C726.239 165.024 727.367 164.376 728.303 164.376C728.807 164.376 729.119 164.448 729.527 164.568L730.007 162.168C729.647 162 729.263 161.928 728.663 161.928C727.415 161.928 726.167 162.768 725.327 164.304H725.231L725.039 162.216H722.759V174ZM731.189 168.12C731.189 172.008 733.733 174.288 736.997 174.288C738.485 174.288 739.901 173.76 741.029 173.016L740.093 171.288C739.229 171.84 738.365 172.152 737.357 172.152C735.461 172.152 734.117 170.952 733.877 168.816H741.365C741.437 168.528 741.485 168.048 741.485 167.52C741.485 164.232 739.805 161.928 736.613 161.928C733.853 161.928 731.189 164.28 731.189 168.12ZM733.853 167.064C734.093 165.096 735.293 164.064 736.685 164.064C738.293 164.064 739.085 165.192 739.085 167.064H733.853ZM743.834 168.12C743.834 172.032 746.498 174.288 749.426 174.288C752.378 174.288 755.042 172.032 755.042 168.12C755.042 164.184 752.378 161.928 749.426 161.928C746.498 161.928 743.834 164.184 743.834 168.12ZM746.666 168.12C746.666 165.744 747.698 164.184 749.426 164.184C751.154 164.184 752.21 165.744 752.21 168.12C752.21 170.472 751.154 172.032 749.426 172.032C747.698 172.032 746.666 170.472 746.666 168.12ZM762.887 168.12C762.887 172.008 765.431 174.288 768.695 174.288C770.183 174.288 771.599 173.76 772.727 173.016L771.791 171.288C770.927 171.84 770.063 172.152 769.055 172.152C767.159 172.152 765.815 170.952 765.575 168.816H773.063C773.135 168.528 773.183 168.048 773.183 167.52C773.183 164.232 771.503 161.928 768.311 161.928C765.551 161.928 762.887 164.28 762.887 168.12ZM765.551 167.064C765.791 165.096 766.991 164.064 768.383 164.064C769.991 164.064 770.783 165.192 770.783 167.064H765.551ZM776.299 170.976C776.299 173.016 777.019 174.288 778.987 174.288C779.635 174.288 780.115 174.192 780.451 174.048L780.091 171.984C779.875 172.032 779.779 172.032 779.659 172.032C779.371 172.032 779.059 171.792 779.059 171.12V157.056H776.299V170.976ZM782.527 168.12C782.527 172.008 785.071 174.288 788.335 174.288C789.823 174.288 791.239 173.76 792.367 173.016L791.431 171.288C790.567 171.84 789.703 172.152 788.695 172.152C786.799 172.152 785.455 170.952 785.215 168.816H792.703C792.775 168.528 792.823 168.048 792.823 167.52C792.823 164.232 791.143 161.928 787.951 161.928C785.191 161.928 782.527 164.28 782.527 168.12ZM785.191 167.064C785.431 165.096 786.631 164.064 788.023 164.064C789.631 164.064 790.423 165.192 790.423 167.064H785.191ZM795.171 168.12C795.171 172.032 797.643 174.288 800.859 174.288C802.203 174.288 803.619 173.76 804.723 172.776L803.571 171.024C802.923 171.552 802.107 172.032 801.147 172.032C799.299 172.032 798.003 170.472 798.003 168.12C798.003 165.744 799.323 164.184 801.219 164.184C801.963 164.184 802.587 164.496 803.211 165.048L804.531 163.296C803.739 162.528 802.587 161.928 801.075 161.928C797.931 161.928 795.171 164.184 795.171 168.12ZM807.913 170.016C807.913 172.56 808.921 174.288 811.657 174.288C812.593 174.288 813.409 174.072 814.057 173.856L813.577 171.816C813.241 171.96 812.761 172.08 812.353 172.08C811.225 172.08 810.697 171.408 810.697 170.016V164.4H813.697V162.216H810.697V159H808.393L808.057 162.216L806.233 162.336V164.4H807.913V170.016ZM816.657 174H819.417V166.8C820.137 165.024 821.265 164.376 822.201 164.376C822.705 164.376 823.017 164.448 823.425 164.568L823.905 162.168C823.545 162 823.161 161.928 822.561 161.928C821.313 161.928 820.065 162.768 819.225 164.304H819.129L818.937 162.216H816.657V174ZM825.088 168.12C825.088 172.032 827.752 174.288 830.68 174.288C833.632 174.288 836.296 172.032 836.296 168.12C836.296 164.184 833.632 161.928 830.68 161.928C827.752 161.928 825.088 164.184 825.088 168.12ZM827.92 168.12C827.92 165.744 828.952 164.184 830.68 164.184C832.408 164.184 833.464 165.744 833.464 168.12C833.464 170.472 832.408 172.032 830.68 172.032C828.952 172.032 827.92 170.472 827.92 168.12ZM833.824 156.744H831.064L828.928 160.248H830.968L833.824 156.744ZM839.507 174H842.267V165.768C843.251 164.808 843.923 164.304 844.955 164.304C846.251 164.304 846.803 165.024 846.803 166.968V174H849.563V166.608C849.563 163.632 848.459 161.928 845.939 161.928C844.331 161.928 843.131 162.768 842.075 163.8H841.979L841.787 162.216H839.507V174ZM854.809 160.152C855.793 160.152 856.513 159.504 856.513 158.592C856.513 157.656 855.793 157.008 854.809 157.008C853.825 157.008 853.105 157.656 853.105 158.592C853.105 159.504 853.825 160.152 854.809 160.152ZM853.417 174H856.177V162.216H853.417V174ZM859.41 168.12C859.41 172.032 861.882 174.288 865.098 174.288C866.442 174.288 867.858 173.76 868.962 172.776L867.81 171.024C867.162 171.552 866.346 172.032 865.386 172.032C863.538 172.032 862.242 170.472 862.242 168.12C862.242 165.744 863.562 164.184 865.458 164.184C866.202 164.184 866.826 164.496 867.45 165.048L868.77 163.296C867.978 162.528 866.826 161.928 865.314 161.928C862.17 161.928 859.41 164.184 859.41 168.12ZM870.39 168.12C870.39 172.032 873.054 174.288 875.982 174.288C878.934 174.288 881.598 172.032 881.598 168.12C881.598 164.184 878.934 161.928 875.982 161.928C873.054 161.928 870.39 164.184 870.39 168.12ZM873.222 168.12C873.222 165.744 874.254 164.184 875.982 164.184C877.71 164.184 878.766 165.744 878.766 168.12C878.766 170.472 877.71 172.032 875.982 172.032C874.254 172.032 873.222 170.472 873.222 168.12Z" fill="black" fill-opacity="0.8"/>
<line x1="201" y1="49" x2="419" y2="49" stroke="black" stroke-opacity="0.2" stroke-width="2"/>
<line x1="518" y1="49" x2="736" y2="49" stroke="black" stroke-opacity="0.2" stroke-width="2"/>
</svg>
