<svg width="40" height="40" viewBox="0 0 40 40" fill="none" xmlns="http://www.w3.org/2000/svg">
<path d="M25.8335 10.8333H5.8335V39.1667H25.8335V10.8333Z" stroke="black" stroke-miterlimit="10" stroke-linecap="round" stroke-linejoin="round"/>
<path d="M5.8335 27.5H0.833496V5.83334C0.833496 3.06668 3.06683 0.833344 5.8335 0.833344C8.60016 0.833344 10.8335 3.06668 10.8335 5.83334C10.8335 8.60001 8.60016 10.8333 5.8335 10.8333V7.50001H10.4835" stroke="black" stroke-miterlimit="10" stroke-linecap="round" stroke-linejoin="round"/>
<path d="M25.8335 10.8333C28.6002 10.8333 30.8335 8.60001 30.8335 5.83334C30.8335 3.06668 28.6002 0.833344 25.8335 0.833344H5.8335" stroke="black" stroke-miterlimit="10" stroke-linecap="round" stroke-linejoin="round"/>
<path d="M15.8335 17.5H22.5002" stroke="black" stroke-miterlimit="10" stroke-linecap="round" stroke-linejoin="round"/>
<path d="M15.8335 24.1667H22.5002" stroke="black" stroke-miterlimit="10" stroke-linecap="round" stroke-linejoin="round"/>
<path d="M15.8335 30.8333H22.5002" stroke="black" stroke-miterlimit="10" stroke-linecap="round" stroke-linejoin="round"/>
<path d="M9.16699 16.6667L10.0003 17.5L13.3337 14.1667" stroke="#FFA588" stroke-miterlimit="10" stroke-linecap="round" stroke-linejoin="round"/>
<path d="M9.16699 23.3333L10.0003 24.1667L13.3337 20.8333" stroke="#FFA588" stroke-miterlimit="10" stroke-linecap="round" stroke-linejoin="round"/>
<path d="M39.167 36.6667C39.167 38.05 38.0503 39.1667 36.667 39.1667C35.2837 39.1667 34.167 38.05 34.167 36.6667V12.5C34.167 11.1167 35.2837 10 36.667 10C38.0503 10 39.167 11.1167 39.167 12.5V36.6667Z" stroke="black" stroke-miterlimit="10" stroke-linecap="round" stroke-linejoin="round"/>
<path d="M34.167 35.8333H39.167" stroke="black" stroke-miterlimit="10" stroke-linecap="round" stroke-linejoin="round"/>
<path d="M34.167 24.1667H39.167" stroke="black" stroke-miterlimit="10" stroke-linecap="round" stroke-linejoin="round"/>
<path d="M30.8335 26.6667V14.1667C30.8335 12.7834 31.9502 11.6667 33.3335 11.6667H34.3168" stroke="black" stroke-miterlimit="10" stroke-linecap="round" stroke-linejoin="round"/>
</svg>
