<svg width="546" height="144" viewBox="0 0 546 144" fill="none" xmlns="http://www.w3.org/2000/svg">
<g clip-path="url(#clip0)">
<path d="M233.77 8.10876V13.0197L537.489 26.4799L518.387 106.801L130.435 132.514V137.441L524.746 111.304L546 21.9443L233.77 8.10876Z" fill="#FFA588"/>
<g opacity="0.8">
<path opacity="0.8" fill-rule="evenodd" clip-rule="evenodd" d="M0 25.3052L23.6509 131.894L483.461 132.987L537.268 1.3705L0 25.3052Z" fill="#FFB700"/>
</g>
<g opacity="0.8">
<path fill-rule="evenodd" clip-rule="evenodd" d="M0 25.3052L23.6509 131.894L483.461 132.987L537.268 1.3705L0 25.3052Z" fill="#E23838"/>
</g>
<path d="M233.77 13.0197V8.12508L50.4571 0L31.4043 144L130.435 137.441V132.514L39.4999 138.551L57.1341 5.18831L233.77 13.0197Z" fill="#FFA588"/>
<path d="M66.2508 91.8416H96.3508V84.9816H85.4308C83.2608 84.9816 80.3208 85.2616 78.0108 85.4716C86.8308 76.1616 94.1808 68.0416 94.1808 60.1316C94.1808 51.8716 88.6508 46.4816 80.1108 46.4816C74.0208 46.4816 69.9608 49.0016 65.9008 53.3416L70.3808 57.8216C72.7608 55.1616 75.6308 52.8516 79.0608 52.8516C83.8208 52.8516 86.4108 55.8616 86.4108 60.5516C86.4108 67.3416 78.6408 75.1816 66.2508 87.1516V91.8416ZM120.899 92.6816C130.139 92.6816 136.019 84.4216 136.019 69.3716C136.019 54.3916 130.139 46.4816 120.899 46.4816C111.659 46.4816 105.779 54.3216 105.779 69.3716C105.779 84.4216 111.659 92.6816 120.899 92.6816ZM120.899 86.3816C116.629 86.3816 113.479 81.9716 113.479 69.3716C113.479 56.7716 116.629 52.7816 120.899 52.7816C125.239 52.7816 128.319 56.7716 128.319 69.3716C128.319 81.9716 125.239 86.3816 120.899 86.3816ZM155.388 74.2016C161.828 74.2016 166.308 68.8816 166.308 59.6416C166.308 50.4716 161.828 45.2216 155.388 45.2216C148.948 45.2216 144.468 50.4716 144.468 59.6416C144.468 68.8816 148.948 74.2016 155.388 74.2016ZM155.388 69.5116C152.448 69.5116 150.278 66.5016 150.278 59.6416C150.278 52.7816 152.448 49.9116 155.388 49.9116C158.328 49.9116 160.498 52.7816 160.498 59.6416C160.498 66.5016 158.328 69.5116 155.388 69.5116ZM156.858 92.6816H161.828L186.748 45.2216H181.848L156.858 92.6816ZM188.218 92.6816C194.658 92.6816 199.138 87.3616 199.138 78.1216C199.138 68.9516 194.658 63.7016 188.218 63.7016C181.778 63.7016 177.298 68.9516 177.298 78.1216C177.298 87.3616 181.778 92.6816 188.218 92.6816ZM188.218 87.9916C185.278 87.9916 183.108 84.9816 183.108 78.1216C183.108 71.2616 185.278 68.3916 188.218 68.3916C191.158 68.3916 193.328 71.2616 193.328 78.1216C193.328 84.9816 191.158 87.9916 188.218 87.9916Z" fill="white"/>
<path d="M227.2 56.938H229.752L229.664 54.43L229.312 46.928H227.618L227.266 54.43L227.2 56.938ZM228.476 45.366C229.4 45.366 230.104 44.64 230.104 43.628C230.104 42.66 229.4 41.934 228.476 41.934C227.552 41.934 226.826 42.66 226.826 43.628C226.826 44.64 227.552 45.366 228.476 45.366ZM234.205 53H238.187C242.455 53 245.051 50.514 245.051 45.74C245.051 40.988 242.455 38.612 238.055 38.612H234.205V53ZM236.757 50.932V40.68H237.879C240.783 40.68 242.433 42.22 242.433 45.74C242.433 49.282 240.783 50.932 237.879 50.932H236.757ZM248.395 53H257.283V50.844H250.947V46.598H256.117V44.442H250.947V40.768H257.063V38.612H248.395V53ZM265.276 53V38.7H269.5C270.585 38.7 271.575 38.832 272.47 39.096C273.379 39.36 274.156 39.778 274.802 40.35C275.447 40.922 275.946 41.6553 276.298 42.55C276.664 43.4447 276.848 44.5227 276.848 45.784C276.848 47.0453 276.672 48.1307 276.32 49.04C275.968 49.9493 275.469 50.6973 274.824 51.284C274.193 51.8707 273.438 52.3033 272.558 52.582C271.692 52.8607 270.746 53 269.72 53H265.276ZM269.06 49.964H269.28C269.793 49.964 270.277 49.9053 270.732 49.788C271.186 49.656 271.575 49.436 271.898 49.128C272.235 48.82 272.499 48.3947 272.69 47.852C272.88 47.3093 272.976 46.62 272.976 45.784C272.976 44.948 272.88 44.266 272.69 43.738C272.499 43.21 272.235 42.7993 271.898 42.506C271.575 42.2127 271.186 42.0147 270.732 41.912C270.277 41.7947 269.793 41.736 269.28 41.736H269.06V49.964ZM279.831 53V38.7H289.071V41.868H283.615V44.112H288.279V47.28H283.615V49.832H289.291V53H279.831ZM297.027 53.264C296.118 53.264 295.179 53.1027 294.211 52.78C293.258 52.4427 292.393 51.922 291.615 51.218L293.771 48.622C294.285 49.0327 294.835 49.37 295.421 49.634C296.023 49.8833 296.587 50.008 297.115 50.008C297.687 50.008 298.098 49.92 298.347 49.744C298.611 49.568 298.743 49.3187 298.743 48.996C298.743 48.82 298.699 48.6733 298.611 48.556C298.523 48.4387 298.391 48.3287 298.215 48.226C298.054 48.1233 297.856 48.028 297.621 47.94C297.387 47.8373 297.115 47.7273 296.807 47.61L295.025 46.862C294.644 46.7153 294.277 46.5247 293.925 46.29C293.573 46.0407 293.265 45.7547 293.001 45.432C292.737 45.0947 292.525 44.7133 292.363 44.288C292.217 43.8627 292.143 43.3933 292.143 42.88C292.143 42.264 292.275 41.692 292.539 41.164C292.803 40.6213 293.17 40.152 293.639 39.756C294.109 39.3453 294.666 39.0227 295.311 38.788C295.971 38.5533 296.69 38.436 297.467 38.436C298.289 38.436 299.117 38.59 299.953 38.898C300.804 39.206 301.559 39.69 302.219 40.35L300.327 42.726C299.843 42.3887 299.374 42.132 298.919 41.956C298.479 41.78 297.995 41.692 297.467 41.692C296.998 41.692 296.631 41.7727 296.367 41.934C296.103 42.0953 295.971 42.3373 295.971 42.66C295.971 42.9973 296.155 43.2613 296.521 43.452C296.903 43.628 297.423 43.8407 298.083 44.09L299.821 44.772C300.716 45.124 301.405 45.6153 301.889 46.246C302.373 46.8767 302.615 47.6907 302.615 48.688C302.615 49.2893 302.491 49.8687 302.241 50.426C301.992 50.9833 301.625 51.4747 301.141 51.9C300.672 52.3107 300.093 52.6407 299.403 52.89C298.714 53.1393 297.922 53.264 297.027 53.264ZM311.557 53.264C310.648 53.264 309.775 53.1173 308.939 52.824C308.118 52.516 307.392 52.0613 306.761 51.46C306.145 50.844 305.654 50.0813 305.287 49.172C304.921 48.248 304.737 47.1773 304.737 45.96C304.737 44.7573 304.928 43.694 305.309 42.77C305.691 41.8313 306.197 41.0467 306.827 40.416C307.473 39.7707 308.206 39.2793 309.027 38.942C309.863 38.6047 310.736 38.436 311.645 38.436C312.599 38.436 313.449 38.6267 314.197 39.008C314.945 39.3747 315.576 39.8147 316.089 40.328L314.109 42.748C313.757 42.44 313.391 42.1907 313.009 42C312.643 41.7947 312.217 41.692 311.733 41.692C311.308 41.692 310.905 41.7873 310.523 41.978C310.157 42.1687 309.827 42.44 309.533 42.792C309.255 43.144 309.027 43.5767 308.851 44.09C308.69 44.6033 308.609 45.1827 308.609 45.828C308.609 47.1773 308.888 48.2113 309.445 48.93C310.017 49.6487 310.765 50.008 311.689 50.008C312.247 50.008 312.738 49.8907 313.163 49.656C313.603 49.4067 313.977 49.1133 314.285 48.776L316.265 51.152C315.649 51.856 314.938 52.384 314.131 52.736C313.339 53.088 312.481 53.264 311.557 53.264ZM324.106 53.264C322.097 53.264 320.601 52.6847 319.618 51.526C318.65 50.3527 318.166 48.5413 318.166 46.092V38.7H321.95V46.532C321.95 47.808 322.119 48.71 322.456 49.238C322.808 49.7513 323.358 50.008 324.106 50.008C324.854 50.008 325.404 49.7513 325.756 49.238C326.123 48.71 326.306 47.808 326.306 46.532V38.7H329.958V46.092C329.958 48.5413 329.482 50.3527 328.528 51.526C327.575 52.6847 326.101 53.264 324.106 53.264ZM333.476 53V38.7H342.716V41.868H337.26V44.112H341.924V47.28H337.26V49.832H342.936V53H333.476ZM346.14 53V38.7H350.012L353.18 45.08L354.544 48.292H354.632C354.588 47.9107 354.537 47.4927 354.478 47.038C354.42 46.5833 354.368 46.1213 354.324 45.652C354.28 45.168 354.236 44.6913 354.192 44.222C354.163 43.738 354.148 43.276 354.148 42.836V38.7H357.756V53H353.884L350.716 46.598L349.352 43.408H349.264C349.352 44.2293 349.455 45.124 349.572 46.092C349.69 47.06 349.748 47.984 349.748 48.864V53H346.14ZM364.089 53V41.868H360.305V38.7H371.657V41.868H367.873V53H364.089ZM379.581 53.264C378.584 53.264 377.675 53.0953 376.853 52.758C376.047 52.4207 375.35 51.9367 374.763 51.306C374.191 50.6607 373.744 49.876 373.421 48.952C373.099 48.0133 372.937 46.9573 372.937 45.784C372.937 44.6107 373.099 43.5693 373.421 42.66C373.744 41.736 374.191 40.966 374.763 40.35C375.35 39.7193 376.047 39.2427 376.853 38.92C377.675 38.5973 378.584 38.436 379.581 38.436C380.564 38.436 381.466 38.5973 382.287 38.92C383.109 39.2427 383.805 39.7193 384.377 40.35C384.964 40.9807 385.419 41.7507 385.741 42.66C386.064 43.5693 386.225 44.6107 386.225 45.784C386.225 46.9573 386.064 48.0133 385.741 48.952C385.419 49.876 384.964 50.6607 384.377 51.306C383.805 51.9367 383.109 52.4207 382.287 52.758C381.466 53.0953 380.564 53.264 379.581 53.264ZM379.581 50.008C380.447 50.008 381.121 49.634 381.605 48.886C382.104 48.1233 382.353 47.0893 382.353 45.784C382.353 44.4787 382.104 43.474 381.605 42.77C381.121 42.0513 380.447 41.692 379.581 41.692C378.716 41.692 378.034 42.0513 377.535 42.77C377.051 43.474 376.809 44.4787 376.809 45.784C376.809 47.0893 377.051 48.1233 377.535 48.886C378.034 49.634 378.716 50.008 379.581 50.008ZM394.312 53H403.2V50.844H396.864V46.598H402.034V44.442H396.864V40.768H402.98V38.612H394.312V53ZM406.59 53H409.032V46.708C409.032 45.102 408.812 43.364 408.702 41.846H408.79L410.264 44.904L414.752 53H417.37V38.612H414.928V44.86C414.928 46.466 415.148 48.292 415.258 49.766H415.17L413.696 46.708L409.208 38.612H406.59V53ZM429.216 53H431.768V40.768H435.926V38.612H425.058V40.768H429.216V53ZM443.77 53.264C447.532 53.264 450.128 50.404 450.128 45.74C450.128 41.098 447.532 38.348 443.77 38.348C440.03 38.348 437.434 41.098 437.434 45.74C437.434 50.404 440.03 53.264 443.77 53.264ZM443.77 51.042C441.504 51.042 440.052 48.974 440.052 45.74C440.052 42.528 441.504 40.57 443.77 40.57C446.036 40.57 447.488 42.528 447.488 45.74C447.488 48.974 446.036 51.042 443.77 51.042ZM453.446 53H457.428C461.696 53 464.292 50.514 464.292 45.74C464.292 40.988 461.696 38.612 457.296 38.612H453.446V53ZM455.998 50.932V40.68H457.12C460.024 40.68 461.674 42.22 461.674 45.74C461.674 49.282 460.024 50.932 457.12 50.932H455.998ZM470.369 45.344C470.831 43.826 471.249 42.198 471.645 40.592H471.733C472.151 42.176 472.569 43.826 473.031 45.344L473.537 47.104H469.863L470.369 45.344ZM465.551 53H468.147L469.269 49.106H474.109L475.231 53H477.915L473.229 38.612H470.237L465.551 53ZM484.33 53.264C487.564 53.264 489.5 51.328 489.5 48.996C489.5 46.906 488.29 45.828 486.596 45.102L484.638 44.288C483.45 43.804 482.35 43.386 482.35 42.264C482.35 41.208 483.252 40.57 484.616 40.57C485.848 40.57 486.816 41.032 487.74 41.802L489.038 40.174C487.916 39.052 486.288 38.348 484.616 38.348C481.8 38.348 479.776 40.108 479.776 42.396C479.776 44.508 481.272 45.63 482.68 46.224L484.66 47.082C485.958 47.632 486.882 48.006 486.882 49.194C486.882 50.316 486.002 51.042 484.374 51.042C483.054 51.042 481.668 50.382 480.634 49.414L479.138 51.152C480.502 52.494 482.394 53.264 484.33 53.264ZM226.826 80H229.268V73.708C229.268 72.102 229.048 70.364 228.938 68.846H229.026L230.5 71.904L234.988 80H237.606V65.612H235.164V71.86C235.164 73.466 235.384 75.292 235.494 76.766H235.406L233.932 73.708L229.444 65.612H226.826V80ZM247.093 80.264C250.438 80.264 252.528 78.416 252.528 73.686V65.612H250.085V73.884C250.085 77.008 248.854 78.042 247.093 78.042C245.355 78.042 244.189 77.008 244.189 73.884V65.612H241.637V73.686C241.637 78.416 243.771 80.264 247.093 80.264ZM256.56 80H265.448V77.844H259.112V73.598H264.282V71.442H259.112V67.768H265.228V65.612H256.56V80ZM273.039 80.264C276.273 80.264 278.209 78.328 278.209 75.996C278.209 73.906 276.999 72.828 275.305 72.102L273.347 71.288C272.159 70.804 271.059 70.386 271.059 69.264C271.059 68.208 271.961 67.57 273.325 67.57C274.557 67.57 275.525 68.032 276.449 68.802L277.747 67.174C276.625 66.052 274.997 65.348 273.325 65.348C270.509 65.348 268.485 67.108 268.485 69.396C268.485 71.508 269.981 72.63 271.389 73.224L273.369 74.082C274.667 74.632 275.591 75.006 275.591 76.194C275.591 77.316 274.711 78.042 273.083 78.042C271.763 78.042 270.377 77.382 269.343 76.414L267.847 78.152C269.211 79.494 271.103 80.264 273.039 80.264ZM283.74 80H286.292V67.768H290.45V65.612H279.582V67.768H283.74V80ZM293.286 80H295.838V74.368H298.038L301.14 80H304L300.568 73.994C302.284 73.4 303.428 72.08 303.428 69.88C303.428 66.668 301.14 65.612 298.148 65.612H293.286V80ZM295.838 72.344V67.658H297.884C299.842 67.658 300.92 68.23 300.92 69.88C300.92 71.508 299.842 72.344 297.884 72.344H295.838ZM309.564 72.344C310.026 70.826 310.444 69.198 310.84 67.592H310.928C311.346 69.176 311.764 70.826 312.226 72.344L312.732 74.104H309.058L309.564 72.344ZM304.746 80H307.342L308.464 76.106H313.304L314.426 80H317.11L312.424 65.612H309.432L304.746 80ZM323.526 80.264C326.76 80.264 328.696 78.328 328.696 75.996C328.696 73.906 327.486 72.828 325.792 72.102L323.834 71.288C322.646 70.804 321.546 70.386 321.546 69.264C321.546 68.208 322.448 67.57 323.812 67.57C325.044 67.57 326.012 68.032 326.936 68.802L328.234 67.174C327.112 66.052 325.484 65.348 323.812 65.348C320.996 65.348 318.972 67.108 318.972 69.396C318.972 71.508 320.468 72.63 321.876 73.224L323.856 74.082C325.154 74.632 326.078 75.006 326.078 76.194C326.078 77.316 325.198 78.042 323.57 78.042C322.25 78.042 320.864 77.382 319.83 76.414L318.334 78.152C319.698 79.494 321.59 80.264 323.526 80.264ZM336.597 80H338.907V73.422C338.907 72.08 338.687 70.166 338.577 68.846H338.665L339.809 72.19L342.185 78.658H343.703L346.057 72.19L347.223 68.846H347.311C347.179 70.166 346.981 72.08 346.981 73.422V80H349.335V65.612H346.431L343.945 72.652C343.637 73.554 343.351 74.522 343.043 75.468H342.955C342.647 74.522 342.339 73.554 342.031 72.652L339.479 65.612H336.597V80ZM353.429 80H362.317V77.844H355.981V73.598H361.151V71.442H355.981V67.768H362.097V65.612H353.429V80ZM365.707 80H368.017V73.422C368.017 72.08 367.797 70.166 367.687 68.846H367.775L368.919 72.19L371.295 78.658H372.813L375.167 72.19L376.333 68.846H376.421C376.289 70.166 376.091 72.08 376.091 73.422V80H378.445V65.612H375.541L373.055 72.652C372.747 73.554 372.461 74.522 372.153 75.468H372.065C371.757 74.522 371.449 73.554 371.141 72.652L368.589 65.612H365.707V80ZM382.54 80H387.512C390.68 80 393.034 78.658 393.034 75.776C393.034 73.84 391.868 72.718 390.284 72.366V72.278C391.538 71.838 392.286 70.518 392.286 69.154C392.286 66.514 390.108 65.612 387.138 65.612H382.54V80ZM385.092 71.552V67.592H386.962C388.832 67.592 389.778 68.12 389.778 69.528C389.778 70.76 388.92 71.552 386.918 71.552H385.092ZM385.092 78.02V73.466H387.248C389.404 73.466 390.548 74.126 390.548 75.644C390.548 77.25 389.36 78.02 387.248 78.02H385.092ZM396.107 80H398.659V74.368H400.859L403.961 80H406.821L403.389 73.994C405.105 73.4 406.249 72.08 406.249 69.88C406.249 66.668 403.961 65.612 400.969 65.612H396.107V80ZM398.659 72.344V67.658H400.705C402.663 67.658 403.741 68.23 403.741 69.88C403.741 71.508 402.663 72.344 400.705 72.344H398.659ZM409.566 80H418.454V77.844H412.118V73.598H417.288V71.442H412.118V67.768H418.234V65.612H409.566V80ZM426.046 80.264C429.28 80.264 431.216 78.328 431.216 75.996C431.216 73.906 430.006 72.828 428.312 72.102L426.354 71.288C425.166 70.804 424.066 70.386 424.066 69.264C424.066 68.208 424.968 67.57 426.332 67.57C427.564 67.57 428.532 68.032 429.456 68.802L430.754 67.174C429.632 66.052 428.004 65.348 426.332 65.348C423.516 65.348 421.492 67.108 421.492 69.396C421.492 71.508 422.988 72.63 424.396 73.224L426.376 74.082C427.674 74.632 428.598 75.006 428.598 76.194C428.598 77.316 427.718 78.042 426.09 78.042C424.77 78.042 423.384 77.382 422.35 76.414L420.854 78.152C422.218 79.494 424.11 80.264 426.046 80.264ZM434.272 80H436.824V65.612H434.272V80ZM435.24 64.864L438.936 62.29L437.572 60.618L434.118 63.588L435.24 64.864ZM443.869 72.344C444.331 70.826 444.749 69.198 445.145 67.592H445.233C445.651 69.176 446.069 70.826 446.531 72.344L447.037 74.104H443.363L443.869 72.344ZM439.051 80H441.647L442.769 76.106H447.609L448.731 80H451.415L446.729 65.612H443.737L439.051 80ZM457.831 80.264C461.065 80.264 463.001 78.328 463.001 75.996C463.001 73.906 461.791 72.828 460.097 72.102L458.139 71.288C456.951 70.804 455.851 70.386 455.851 69.264C455.851 68.208 456.753 67.57 458.117 67.57C459.349 67.57 460.317 68.032 461.241 68.802L462.539 67.174C461.417 66.052 459.789 65.348 458.117 65.348C455.301 65.348 453.277 67.108 453.277 69.396C453.277 71.508 454.773 72.63 456.181 73.224L458.161 74.082C459.459 74.632 460.383 75.006 460.383 76.194C460.383 77.316 459.503 78.042 457.875 78.042C456.555 78.042 455.169 77.382 454.135 76.414L452.639 78.152C454.003 79.494 455.895 80.264 457.831 80.264ZM466.849 75.27H468.543L468.895 67.768L468.983 65.26H466.431L466.497 67.768L466.849 75.27ZM467.707 80.264C468.631 80.264 469.335 79.538 469.335 78.548C469.335 77.558 468.631 76.832 467.707 76.832C466.783 76.832 466.057 77.558 466.057 78.548C466.057 79.538 466.783 80.264 467.707 80.264Z" fill="white"/>
<path d="M226.392 107H227.736V102.84H229.624C231.912 102.84 233.496 101.8 233.496 99.592C233.496 97.288 231.944 96.504 229.624 96.504H226.392V107ZM227.736 101.752V97.576H229.448C231.256 97.576 232.168 98.072 232.168 99.592C232.168 101.08 231.288 101.752 229.448 101.752H227.736ZM237.677 97.576H239.437C241.069 97.576 241.965 98.072 241.965 99.448C241.965 100.808 241.069 101.48 239.437 101.48H237.677V97.576ZM243.613 107L240.941 102.424C242.365 102.056 243.293 101.08 243.293 99.448C243.293 97.272 241.757 96.504 239.629 96.504H236.333V107H237.677V102.568H239.565L242.093 107H243.613ZM246.351 107H252.559V105.864H247.695V102.056H251.663V100.92H247.695V97.624H252.399V96.504H246.351V107ZM254.903 101.752C254.903 105.176 256.871 107.192 259.511 107.192C260.839 107.192 261.879 106.632 262.695 105.672L261.943 104.856C261.271 105.608 260.535 106.024 259.543 106.024C257.543 106.024 256.279 104.36 256.279 101.72C256.279 99.112 257.607 97.48 259.607 97.48C260.471 97.48 261.143 97.864 261.703 98.456L262.455 97.608C261.831 96.92 260.839 96.312 259.591 96.312C256.903 96.312 254.903 98.376 254.903 101.752ZM265.373 107H266.717V96.504H265.373V107ZM274.186 107.192C276.81 107.192 278.666 105.08 278.666 101.704C278.666 98.36 276.81 96.312 274.186 96.312C271.546 96.312 269.69 98.344 269.69 101.704C269.69 105.08 271.546 107.192 274.186 107.192ZM274.186 106.024C272.298 106.024 271.066 104.328 271.066 101.704C271.066 99.096 272.298 97.48 274.186 97.48C276.058 97.48 277.29 99.096 277.29 101.704C277.29 104.328 276.058 106.024 274.186 106.024ZM285.68 107H287.024V102.84H288.912C291.2 102.84 292.784 101.8 292.784 99.592C292.784 97.288 291.232 96.504 288.912 96.504H285.68V107ZM287.024 101.752V97.576H288.736C290.544 97.576 291.456 98.072 291.456 99.592C291.456 101.08 290.576 101.752 288.736 101.752H287.024ZM299.508 107.192C302.132 107.192 303.988 105.08 303.988 101.704C303.988 98.36 302.132 96.312 299.508 96.312C296.868 96.312 295.012 98.344 295.012 101.704C295.012 105.08 296.868 107.192 299.508 107.192ZM299.508 106.024C297.62 106.024 296.388 104.328 296.388 101.704C296.388 99.096 297.62 97.48 299.508 97.48C301.38 97.48 302.612 99.096 302.612 101.704C302.612 104.328 301.38 106.024 299.508 106.024ZM308.311 97.576H310.071C311.703 97.576 312.599 98.072 312.599 99.448C312.599 100.808 311.703 101.48 310.071 101.48H308.311V97.576ZM314.247 107L311.575 102.424C312.999 102.056 313.927 101.08 313.927 99.448C313.927 97.272 312.391 96.504 310.263 96.504H306.967V107H308.311V102.568H310.199L312.727 107H314.247ZM322.332 102.728L322.844 101.128C323.212 99.96 323.548 98.808 323.884 97.592H323.948C324.284 98.808 324.62 99.96 324.988 101.128L325.484 102.728H322.332ZM326.828 107H328.236L324.684 96.504H323.18L319.628 107H320.988L321.996 103.8H325.82L326.828 107ZM330.43 107H331.774V102.84H333.662C335.95 102.84 337.534 101.8 337.534 99.592C337.534 97.288 335.982 96.504 333.662 96.504H330.43V107ZM331.774 101.752V97.576H333.486C335.294 97.576 336.206 98.072 336.206 99.592C336.206 101.08 335.326 101.752 333.486 101.752H331.774ZM340.37 107H346.578V105.864H341.714V102.056H345.682V100.92H341.714V97.624H346.418V96.504H340.37V107ZM350.874 97.576H352.634C354.266 97.576 355.162 98.072 355.162 99.448C355.162 100.808 354.266 101.48 352.634 101.48H350.874V97.576ZM356.81 107L354.138 102.424C355.562 102.056 356.49 101.08 356.49 99.448C356.49 97.272 354.954 96.504 352.826 96.504H349.53V107H350.874V102.568H352.762L355.29 107H356.81ZM361.428 107H362.756V97.624H365.94V96.504H358.244V97.624H361.428V107ZM368.488 102.664C368.488 106.04 370.12 107.192 372.264 107.192C374.408 107.192 376.04 106.04 376.04 102.664V96.504H374.76V102.696C374.76 105.224 373.656 106.024 372.264 106.024C370.904 106.024 369.832 105.224 369.832 102.696V96.504H368.488V102.664ZM380.914 97.576H382.674C384.306 97.576 385.202 98.072 385.202 99.448C385.202 100.808 384.306 101.48 382.674 101.48H380.914V97.576ZM386.85 107L384.178 102.424C385.602 102.056 386.53 101.08 386.53 99.448C386.53 97.272 384.994 96.504 382.866 96.504H379.57V107H380.914V102.568H382.802L385.33 107H386.85ZM390.745 102.728L391.257 101.128C391.625 99.96 391.961 98.808 392.297 97.592H392.361C392.697 98.808 393.033 99.96 393.401 101.128L393.897 102.728H390.745ZM395.241 107H396.649L393.097 96.504H391.593L388.041 107H389.401L390.409 103.8H394.233L395.241 107Z" fill="white"/>
</g>
<defs>
<clipPath id="clip0">
<rect width="546" height="144" fill="white"/>
</clipPath>
</defs>
</svg>
