<svg width="40" height="42" viewBox="0 0 40 42" fill="none" xmlns="http://www.w3.org/2000/svg">
<path d="M7.5 37.625H2.5V41.125H7.5V37.625Z" stroke="black" stroke-miterlimit="10" stroke-linecap="round" stroke-linejoin="round"/>
<path d="M30.8335 37.625H25.8335V41.125H30.8335V37.625Z" stroke="black" stroke-miterlimit="10" stroke-linecap="round" stroke-linejoin="round"/>
<path d="M32.5002 37.625V30.625L29.1668 27.125H4.16683L0.833496 30.625V37.625H32.5002Z" stroke="black" stroke-miterlimit="10" stroke-linecap="round" stroke-linejoin="round"/>
<path d="M14.917 18.375H7.50033L4.16699 27.125H29.167" stroke="black" stroke-miterlimit="10" stroke-linecap="round" stroke-linejoin="round"/>
<path d="M0.833496 34.125H8.3335" stroke="black" stroke-miterlimit="10" stroke-linecap="round" stroke-linejoin="round"/>
<path d="M25 34.125H32.5" stroke="black" stroke-miterlimit="10" stroke-linecap="round" stroke-linejoin="round"/>
<path d="M28.3333 23.625C34.3164 23.625 39.1667 18.5322 39.1667 12.25C39.1667 5.96776 34.3164 0.875 28.3333 0.875C22.3502 0.875 17.5 5.96776 17.5 12.25C17.5 18.5322 22.3502 23.625 28.3333 23.625Z" stroke="black" stroke-miterlimit="10" stroke-linecap="round" stroke-linejoin="round"/>
<path d="M25.8335 18.375V6.125H29.1668C31.0002 6.125 32.5002 7.7 32.5002 9.625C32.5002 11.55 31.0002 13.125 29.1668 13.125H25.8335" stroke="#FFA588" stroke-miterlimit="10" stroke-linecap="round" stroke-linejoin="round"/>
</svg>
