<svg width="40" height="47" viewBox="0 0 40 47" fill="none" xmlns="http://www.w3.org/2000/svg">
<path d="M34.4456 33.84L30.9691 46H8.99105L5.45459 33.62" stroke="black" stroke-miterlimit="10" stroke-linejoin="round"/>
<path d="M15.9642 46L13.8862 31.12" stroke="black" stroke-miterlimit="10" stroke-linejoin="round"/>
<path d="M23.9961 46L26.074 31.22" stroke="black" stroke-miterlimit="10" stroke-linejoin="round"/>
<path d="M25.8142 14.72C33.007 16.44 39.001 21.14 39.001 27C39.001 31.14 36.1039 34.24 31.9681 34.24C29.5105 34.24 27.3327 32.92 25.974 31.08C24.6154 32.92 22.4376 34.06 19.98 34.06C17.5225 34.06 15.3447 32.82 13.986 30.98C12.6274 32.82 10.4496 34 7.99203 34C3.85617 34 0.999023 31.14 0.999023 27C0.999023 21.1 6.83319 16.44 13.9461 14.72L14.2258 14.62" stroke="black" stroke-miterlimit="10" stroke-linejoin="round"/>
<path d="M19.9798 19C23.2902 19 25.9739 16.3137 25.9739 13C25.9739 9.68629 23.2902 7 19.9798 7C16.6694 7 13.9858 9.68629 13.9858 13C13.9858 16.3137 16.6694 19 19.9798 19Z" stroke="#FFA588" stroke-miterlimit="10" stroke-linejoin="round"/>
<path d="M19.98 7C19.98 3.68 22.6573 1 25.974 1" stroke="black" stroke-miterlimit="10" stroke-linecap="round" stroke-linejoin="round"/>
</svg>
