<svg width="113" height="104" viewBox="0 0 113 104" fill="none" xmlns="http://www.w3.org/2000/svg">
<g clip-path="url(#clip0)">
<path d="M56.5003 25.8958C63.0012 25.8958 68.2712 20.6258 68.2712 14.125C68.2712 7.62411 63.0012 2.35413 56.5003 2.35413C49.9995 2.35413 44.7295 7.62411 44.7295 14.125C44.7295 20.6258 49.9995 25.8958 56.5003 25.8958Z" stroke="black" stroke-width="5" stroke-miterlimit="10" stroke-linejoin="round"/>
<path d="M89.459 25.8958C93.3595 25.8958 96.5215 22.7338 96.5215 18.8333C96.5215 14.9327 93.3595 11.7708 89.459 11.7708C85.5585 11.7708 82.3965 14.9327 82.3965 18.8333C82.3965 22.7338 85.5585 25.8958 89.459 25.8958Z" stroke="black" stroke-width="5" stroke-miterlimit="10" stroke-linejoin="round"/>
<path d="M23.542 25.8958C27.4425 25.8958 30.6045 22.7338 30.6045 18.8333C30.6045 14.9327 27.4425 11.7708 23.542 11.7708C19.6415 11.7708 16.4795 14.9327 16.4795 18.8333C16.4795 22.7338 19.6415 25.8958 23.542 25.8958Z" stroke="black" stroke-width="5" stroke-miterlimit="10" stroke-linejoin="round"/>
<path d="M80.042 83.3373C98.1691 84.8439 110.646 88.0927 110.646 91.8123C110.646 96.9914 86.3982 101.229 56.5003 101.229C26.6024 101.229 2.35449 96.9914 2.35449 91.8123C2.35449 88.0927 14.7374 84.891 32.7703 83.3373" stroke="#323232" stroke-width="5" stroke-miterlimit="10" stroke-linecap="round" stroke-linejoin="round"/>
<path d="M68.2712 77.6875H44.7295V47.0833C44.7295 40.5858 50.0028 35.3125 56.5003 35.3125C62.9978 35.3125 68.2712 40.5858 68.2712 47.0833V77.6875Z" stroke="black" stroke-width="5" stroke-miterlimit="10" stroke-linejoin="round"/>
<path d="M96.5215 68.2708H82.3965V42.375C82.3965 38.4671 85.5511 35.3125 89.459 35.3125C93.3669 35.3125 96.5215 38.4671 96.5215 42.375V68.2708Z" stroke="#E53D32" stroke-width="5" stroke-miterlimit="10" stroke-linejoin="round"/>
<path d="M30.6045 68.2708H16.4795V42.375C16.4795 38.4671 19.6341 35.3125 23.542 35.3125C27.4499 35.3125 30.6045 38.4671 30.6045 42.375V68.2708Z" stroke="#E53D32" stroke-width="5" stroke-miterlimit="10" stroke-linejoin="round"/>
</g>
<defs>
<clipPath id="clip0">
<rect width="113" height="103.583" fill="white"/>
</clipPath>
</defs>
</svg>
