<svg width="662" height="132" viewBox="0 0 662 132" fill="none" xmlns="http://www.w3.org/2000/svg">
<path d="M79.5312 117C85.3438 117 90.3854 115.052 94.6562 111.156C95.0521 110.802 95.2604 110.365 95.2812 109.844C95.3021 109.323 95.1354 108.875 94.7812 108.5C94.4271 108.104 93.9896 107.896 93.4688 107.875C92.9479 107.854 92.5 108.021 92.125 108.375C88.5625 111.604 84.3646 113.219 79.5312 113.219C74.3854 113.219 69.9896 111.396 66.3438 107.75C62.6979 104.104 60.875 99.7083 60.875 94.5625C60.875 89.3958 62.6979 84.9896 66.3438 81.3438C69.9896 77.6979 74.3854 75.875 79.5312 75.875C83.7812 75.875 87.5833 77.1562 90.9375 79.7188C91.3333 80.0521 91.7917 80.1771 92.3125 80.0938C92.8333 80.0312 93.25 79.7917 93.5625 79.375C93.875 78.9792 94 78.5208 93.9375 78C93.875 77.4792 93.6354 77.0625 93.2188 76.75C89.1979 73.6458 84.6354 72.0938 79.5312 72.0938C73.3438 72.0938 68.0625 74.2917 63.6875 78.6875C59.2917 83.0625 57.0938 88.3542 57.0938 94.5625C57.0938 100.75 59.2917 106.031 63.6875 110.406C68.0625 114.802 73.3438 117 79.5312 117ZM132.739 75.9062C137.885 75.9062 142.28 77.7396 145.926 81.4062C149.593 85.0521 151.426 89.4479 151.426 94.5938C151.426 99.7396 149.593 104.135 145.926 107.781C142.28 111.427 137.885 113.25 132.739 113.25C127.593 113.25 123.197 111.427 119.551 107.781C115.905 104.135 114.083 99.7396 114.083 94.5938C114.083 89.4479 115.905 85.0521 119.551 81.4062C123.197 77.7396 127.593 75.9062 132.739 75.9062ZM132.739 117C138.926 117 144.208 114.812 148.583 110.438C152.958 106.062 155.145 100.781 155.145 94.5938C155.145 88.4062 152.958 83.125 148.583 78.75C144.208 74.375 138.926 72.1875 132.739 72.1875C126.551 72.1875 121.27 74.375 116.895 78.75C112.52 83.125 110.333 88.4062 110.333 94.5938C110.333 100.781 112.52 106.062 116.895 110.438C121.27 114.812 126.551 117 132.739 117ZM194.696 75.9062C199.842 75.9062 204.238 77.7396 207.884 81.4062C211.55 85.0521 213.384 89.4479 213.384 94.5938C213.384 99.7396 211.55 104.135 207.884 107.781C204.238 111.427 199.842 113.25 194.696 113.25C189.55 113.25 185.155 111.427 181.509 107.781C177.863 104.135 176.04 99.7396 176.04 94.5938C176.04 89.4479 177.863 85.0521 181.509 81.4062C185.155 77.7396 189.55 75.9062 194.696 75.9062ZM194.696 117C200.884 117 206.165 114.812 210.54 110.438C214.915 106.062 217.103 100.781 217.103 94.5938C217.103 88.4062 214.915 83.125 210.54 78.75C206.165 74.375 200.884 72.1875 194.696 72.1875C188.509 72.1875 183.228 74.375 178.853 78.75C174.478 83.125 172.29 88.4062 172.29 94.5938C172.29 100.781 174.478 106.062 178.853 110.438C183.228 114.812 188.509 117 194.696 117ZM239.404 116.688C239.925 116.688 240.362 116.5 240.716 116.125C241.091 115.771 241.279 115.333 241.279 114.812V102.875L246.841 97L265.31 116.438C265.685 116.812 266.133 117 266.654 117C267.154 117 267.581 116.833 267.935 116.5C268.31 116.146 268.508 115.708 268.529 115.188C268.529 114.667 268.352 114.229 267.997 113.875L249.404 94.3125L267.372 75.4375C267.727 75.0625 267.893 74.6146 267.872 74.0938C267.872 73.5938 267.685 73.1667 267.31 72.8125C266.935 72.4583 266.487 72.2812 265.966 72.2812C265.466 72.3021 265.039 72.5 264.685 72.875L241.279 97.5V73.9688C241.279 73.4688 241.091 73.0312 240.716 72.6562C240.362 72.3021 239.925 72.125 239.404 72.125C238.904 72.125 238.466 72.3021 238.091 72.6562C237.737 73.0312 237.56 73.4688 237.56 73.9688V114.812C237.56 115.333 237.737 115.771 238.091 116.125C238.466 116.5 238.904 116.688 239.404 116.688ZM344.299 72.1875C343.82 72.0208 343.351 72.0521 342.893 72.2812C342.413 72.5104 342.09 72.8646 341.924 73.3438L329.236 109.469L316.549 73.3438C316.59 73.4062 316.58 73.375 316.518 73.25C316.497 73.1875 316.465 73.125 316.424 73.0625C316.403 73.0208 316.372 72.9792 316.33 72.9375C316.309 72.875 316.278 72.8229 316.236 72.7812C316.195 72.7396 316.153 72.6979 316.111 72.6562C316.07 72.6146 316.028 72.5729 315.986 72.5312C315.924 72.4896 315.872 72.4479 315.83 72.4062C315.788 72.3854 315.736 72.3542 315.674 72.3125C315.632 72.2917 315.58 72.2708 315.518 72.25C315.497 72.2292 315.476 72.2188 315.455 72.2188C315.434 72.1979 315.424 72.1875 315.424 72.1875C315.445 72.2083 315.413 72.2083 315.33 72.1875C315.288 72.1667 315.226 72.1458 315.143 72.125C315.059 72.125 315.007 72.1146 314.986 72.0938C314.945 72.0938 314.882 72.0938 314.799 72.0938C314.715 72.0938 314.653 72.0938 314.611 72.0938C314.57 72.1146 314.507 72.125 314.424 72.125C314.361 72.1458 314.299 72.1667 314.236 72.1875C314.153 72.2083 314.132 72.2083 314.174 72.1875C314.257 72.1667 314.226 72.1875 314.08 72.25C314.018 72.2708 313.965 72.2917 313.924 72.3125C313.861 72.3333 313.799 72.3646 313.736 72.4062C313.695 72.4479 313.653 72.4896 313.611 72.5312C313.57 72.5729 313.528 72.6146 313.486 72.6562C313.445 72.6771 313.403 72.7188 313.361 72.7812C313.32 72.8229 313.278 72.875 313.236 72.9375C313.215 72.9792 313.184 73.0208 313.143 73.0625C313.122 73.125 313.101 73.1875 313.08 73.25C313.018 73.375 312.997 73.4062 313.018 73.3438L300.33 109.469L287.674 73.3438C287.486 72.8646 287.163 72.5104 286.705 72.2812C286.247 72.0521 285.768 72.0208 285.268 72.1875C284.788 72.3542 284.434 72.6771 284.205 73.1562C283.976 73.6146 283.955 74.0938 284.143 74.5938L298.58 115.75C298.58 115.729 298.601 115.771 298.643 115.875C298.663 115.917 298.674 115.948 298.674 115.969C298.715 116.052 298.757 116.125 298.799 116.188C298.82 116.208 298.83 116.219 298.83 116.219C298.83 116.24 298.84 116.25 298.861 116.25C298.924 116.333 298.997 116.417 299.08 116.5C299.059 116.479 299.08 116.5 299.143 116.562C299.205 116.604 299.268 116.646 299.33 116.688C299.351 116.708 299.382 116.729 299.424 116.75C299.507 116.792 299.59 116.833 299.674 116.875C299.674 116.875 299.684 116.875 299.705 116.875C299.705 116.875 299.715 116.885 299.736 116.906C299.715 116.885 299.715 116.885 299.736 116.906C299.799 116.927 299.872 116.948 299.955 116.969C300.038 116.969 300.07 116.969 300.049 116.969C300.153 116.99 300.247 117 300.33 117C300.434 117 300.538 116.99 300.643 116.969C300.622 116.969 300.653 116.969 300.736 116.969C300.82 116.948 300.882 116.927 300.924 116.906C300.965 116.885 300.976 116.885 300.955 116.906C300.976 116.885 300.986 116.875 300.986 116.875C301.007 116.875 301.018 116.875 301.018 116.875C301.101 116.833 301.184 116.792 301.268 116.75C301.288 116.729 301.32 116.708 301.361 116.688C301.424 116.646 301.486 116.604 301.549 116.562C301.611 116.5 301.632 116.479 301.611 116.5C301.695 116.417 301.768 116.333 301.83 116.25C301.83 116.25 301.84 116.24 301.861 116.219C301.861 116.219 301.861 116.208 301.861 116.188C301.924 116.125 301.976 116.052 302.018 115.969C302.018 115.948 302.028 115.917 302.049 115.875C302.09 115.771 302.111 115.729 302.111 115.75L314.799 79.625L327.486 115.75C327.486 115.729 327.497 115.771 327.518 115.875C327.559 115.917 327.58 115.948 327.58 115.969C327.622 116.052 327.663 116.125 327.705 116.188C327.705 116.208 327.715 116.219 327.736 116.219C327.736 116.24 327.736 116.25 327.736 116.25C327.82 116.333 327.903 116.417 327.986 116.5C327.965 116.479 327.986 116.5 328.049 116.562C328.111 116.604 328.174 116.646 328.236 116.688C328.257 116.708 328.288 116.729 328.33 116.75C328.393 116.792 328.476 116.833 328.58 116.875C328.601 116.875 328.611 116.885 328.611 116.906C328.611 116.885 328.622 116.885 328.643 116.906C328.705 116.927 328.778 116.948 328.861 116.969C328.945 116.969 328.976 116.969 328.955 116.969C329.059 116.99 329.153 117 329.236 117C329.34 117 329.445 116.99 329.549 116.969C329.528 116.969 329.559 116.969 329.643 116.969C329.726 116.948 329.788 116.927 329.83 116.906C329.851 116.885 329.861 116.885 329.861 116.906C329.861 116.885 329.872 116.875 329.893 116.875C329.913 116.875 329.924 116.875 329.924 116.875C330.007 116.833 330.08 116.792 330.143 116.75C330.184 116.729 330.215 116.708 330.236 116.688C330.32 116.646 330.393 116.604 330.455 116.562C330.518 116.5 330.538 116.479 330.518 116.5C330.601 116.417 330.674 116.333 330.736 116.25C330.736 116.25 330.747 116.24 330.768 116.219C330.768 116.219 330.768 116.208 330.768 116.188C330.83 116.125 330.882 116.052 330.924 115.969C330.924 115.948 330.934 115.917 330.955 115.875C330.997 115.771 331.018 115.729 331.018 115.75L345.455 74.5938C345.622 74.0938 345.601 73.6146 345.393 73.1562C345.163 72.6771 344.799 72.3542 344.299 72.1875ZM382.319 75.9062C387.465 75.9062 391.86 77.7396 395.506 81.4062C399.173 85.0521 401.006 89.4479 401.006 94.5938C401.006 99.7396 399.173 104.135 395.506 107.781C391.86 111.427 387.465 113.25 382.319 113.25C377.173 113.25 372.777 111.427 369.131 107.781C365.485 104.135 363.663 99.7396 363.663 94.5938C363.663 89.4479 365.485 85.0521 369.131 81.4062C372.777 77.7396 377.173 75.9062 382.319 75.9062ZM382.319 117C388.506 117 393.788 114.812 398.163 110.438C402.538 106.062 404.725 100.781 404.725 94.5938C404.725 88.4062 402.538 83.125 398.163 78.75C393.788 74.375 388.506 72.1875 382.319 72.1875C376.131 72.1875 370.85 74.375 366.475 78.75C362.1 83.125 359.913 88.4062 359.913 94.5938C359.913 100.781 362.1 106.062 366.475 110.438C370.85 114.812 376.131 117 382.319 117ZM450.526 84.3125C450.526 86.5833 449.63 88.5312 447.839 90.1562C446.068 91.7812 443.912 92.6146 441.37 92.6562H428.87V75.9375H441.151C443.735 75.9375 445.943 76.7604 447.776 78.4062C449.61 80.0312 450.526 82 450.526 84.3125ZM426.995 72.25C426.495 72.25 426.057 72.4271 425.682 72.7812C425.328 73.1354 425.151 73.5729 425.151 74.0938V114.844C425.151 115.344 425.328 115.781 425.682 116.156C426.057 116.51 426.495 116.688 426.995 116.688C427.516 116.688 427.953 116.51 428.307 116.156C428.682 115.781 428.87 115.344 428.87 114.844V96.375H439.307L448.964 115.969C449.297 116.656 449.849 117 450.62 117C450.912 117 451.182 116.938 451.432 116.812C451.891 116.583 452.203 116.229 452.37 115.75C452.537 115.271 452.505 114.802 452.276 114.344L443.37 96.1875C446.474 95.7083 449.047 94.3542 451.089 92.125C453.172 89.875 454.214 87.2708 454.214 84.3125C454.214 80.9792 452.943 78.1354 450.401 75.7812C447.839 73.4271 444.755 72.25 441.151 72.25H426.995ZM475.171 116.688C475.692 116.688 476.13 116.5 476.484 116.125C476.859 115.771 477.046 115.333 477.046 114.812V102.875L482.609 97L501.078 116.438C501.453 116.812 501.9 117 502.421 117C502.921 117 503.348 116.833 503.703 116.5C504.078 116.146 504.275 115.708 504.296 115.188C504.296 114.667 504.119 114.229 503.765 113.875L485.171 94.3125L503.14 75.4375C503.494 75.0625 503.661 74.6146 503.64 74.0938C503.64 73.5938 503.453 73.1667 503.078 72.8125C502.703 72.4583 502.255 72.2812 501.734 72.2812C501.234 72.3021 500.807 72.5 500.453 72.875L477.046 97.5V73.9688C477.046 73.4688 476.859 73.0312 476.484 72.6562C476.13 72.3021 475.692 72.125 475.171 72.125C474.671 72.125 474.234 72.3021 473.859 72.6562C473.505 73.0312 473.328 73.4688 473.328 73.9688V114.812C473.328 115.333 473.505 115.771 473.859 116.125C474.234 116.5 474.671 116.688 475.171 116.688ZM526.129 74.1875C526.129 73.6667 525.941 73.2292 525.566 72.875C525.212 72.5 524.775 72.3125 524.254 72.3125C523.733 72.3125 523.295 72.5 522.941 72.875C522.566 73.2292 522.379 73.6667 522.379 74.1875V115.125C522.379 115.646 522.566 116.083 522.941 116.438C523.295 116.812 523.733 117 524.254 117C524.775 117 525.212 116.812 525.566 116.438C525.941 116.083 526.129 115.646 526.129 115.125V74.1875ZM580.055 116.344C580.117 116.406 580.18 116.469 580.242 116.531C580.305 116.573 580.347 116.604 580.367 116.625C580.43 116.667 580.503 116.708 580.586 116.75C580.649 116.792 580.69 116.823 580.711 116.844C580.774 116.865 580.857 116.896 580.961 116.938C581.045 116.958 581.086 116.969 581.086 116.969C581.211 116.99 581.336 117 581.461 117C581.565 117 581.68 116.99 581.805 116.969C581.826 116.969 581.867 116.958 581.93 116.938C582.013 116.917 582.086 116.896 582.149 116.875C582.19 116.854 582.232 116.833 582.274 116.812C582.336 116.792 582.399 116.76 582.461 116.719C582.503 116.698 582.534 116.677 582.555 116.656C582.638 116.594 582.659 116.573 582.617 116.594C582.576 116.635 582.607 116.615 582.711 116.531C582.774 116.469 582.815 116.427 582.836 116.406C582.878 116.365 582.92 116.312 582.961 116.25C583.003 116.188 583.034 116.135 583.055 116.094C583.097 116.052 583.128 116 583.149 115.938C583.17 115.875 583.19 115.823 583.211 115.781C583.232 115.74 583.253 115.677 583.274 115.594C583.295 115.531 583.305 115.479 583.305 115.438C583.326 115.375 583.336 115.312 583.336 115.25C583.336 115.125 583.336 115.083 583.336 115.125V73.9688C583.336 73.4479 583.159 73.0104 582.805 72.6562C582.43 72.2812 581.982 72.0938 581.461 72.0938C580.961 72.0938 580.524 72.2812 580.149 72.6562C579.795 73.0104 579.617 73.4479 579.617 73.9688V109.656L550.992 72.8125C550.451 72.1042 549.753 71.8958 548.899 72.1875C548.065 72.4792 547.649 73.0729 547.649 73.9688V115.125C547.649 115.646 547.836 116.083 548.211 116.438C548.565 116.812 549.003 117 549.524 117C550.045 117 550.482 116.812 550.836 116.438C551.211 116.083 551.399 115.646 551.399 115.125V79.4375L579.992 116.281C579.992 116.281 580.003 116.292 580.024 116.312C580.045 116.333 580.055 116.344 580.055 116.344ZM624.169 117C617.981 117 612.7 114.802 608.325 110.406C603.929 106.031 601.731 100.75 601.731 94.5625C601.731 88.375 603.929 83.0833 608.325 78.6875C612.7 74.3125 617.981 72.125 624.169 72.125C629.252 72.125 633.804 73.6667 637.825 76.75C638.242 77.0833 638.481 77.5 638.544 78C638.627 78.5208 638.502 78.9896 638.169 79.4062C637.856 79.8229 637.44 80.0625 636.919 80.125C636.419 80.1875 635.96 80.0625 635.544 79.75C632.19 77.1667 628.398 75.875 624.169 75.875C619.023 75.875 614.627 77.7083 610.981 81.375C607.335 85.0208 605.513 89.4167 605.513 94.5625C605.513 99.7083 607.335 104.104 610.981 107.75C614.627 111.396 619.023 113.219 624.169 113.219C629.002 113.219 633.19 111.604 636.731 108.375C637.127 108.021 637.585 107.854 638.106 107.875C638.627 107.896 639.065 108.104 639.419 108.5C639.752 108.875 639.908 109.323 639.888 109.844C639.867 110.365 639.669 110.802 639.294 111.156C635.002 115.052 629.96 117 624.169 117ZM638.388 117C637.867 117 637.419 116.812 637.044 116.438C636.69 116.083 636.513 115.646 636.513 115.125V95.3125H620.825C620.304 95.3125 619.856 95.1354 619.481 94.7812C619.106 94.4062 618.919 93.9583 618.919 93.4375C618.919 92.9167 619.106 92.4792 619.481 92.125C619.856 91.75 620.304 91.5625 620.825 91.5625H638.388C638.908 91.5625 639.356 91.75 639.731 92.125C640.085 92.4792 640.263 92.9167 640.263 93.4375V115.125C640.263 115.646 640.085 116.083 639.731 116.438C639.356 116.812 638.908 117 638.388 117Z" fill="white"/>
<path d="M22.5312 56C28.3438 56 33.3854 54.0521 37.6562 50.1562C38.0521 49.8021 38.2604 49.3646 38.2812 48.8438C38.3021 48.3229 38.1354 47.875 37.7812 47.5C37.4271 47.1042 36.9896 46.8958 36.4688 46.875C35.9479 46.8542 35.5 47.0208 35.125 47.375C31.5625 50.6042 27.3646 52.2188 22.5312 52.2188C17.3854 52.2188 12.9896 50.3958 9.34375 46.75C5.69792 43.1042 3.875 38.7083 3.875 33.5625C3.875 28.3958 5.69792 23.9896 9.34375 20.3438C12.9896 16.6979 17.3854 14.875 22.5312 14.875C26.7812 14.875 30.5833 16.1562 33.9375 18.7188C34.3333 19.0521 34.7917 19.1771 35.3125 19.0938C35.8333 19.0312 36.25 18.7917 36.5625 18.375C36.875 17.9792 37 17.5208 36.9375 17C36.875 16.4792 36.6354 16.0625 36.2188 15.75C32.1979 12.6458 27.6354 11.0938 22.5312 11.0938C16.3438 11.0938 11.0625 13.2917 6.6875 17.6875C2.29167 22.0625 0.09375 27.3542 0.09375 33.5625C0.09375 39.75 2.29167 45.0312 6.6875 49.4062C11.0625 53.8021 16.3438 56 22.5312 56ZM73.8187 14.9062C78.9646 14.9062 83.3604 16.7396 87.0062 20.4062C90.6729 24.0521 92.5062 28.4479 92.5062 33.5938C92.5062 38.7396 90.6729 43.1354 87.0062 46.7812C83.3604 50.4271 78.9646 52.25 73.8187 52.25C68.6729 52.25 64.2771 50.4271 60.6312 46.7812C56.9854 43.1354 55.1625 38.7396 55.1625 33.5938C55.1625 28.4479 56.9854 24.0521 60.6312 20.4062C64.2771 16.7396 68.6729 14.9062 73.8187 14.9062ZM73.8187 56C80.0062 56 85.2875 53.8125 89.6625 49.4375C94.0375 45.0625 96.225 39.7812 96.225 33.5938C96.225 27.4062 94.0375 22.125 89.6625 17.75C85.2875 13.375 80.0062 11.1875 73.8187 11.1875C67.6312 11.1875 62.35 13.375 57.975 17.75C53.6 22.125 51.4125 27.4062 51.4125 33.5938C51.4125 39.7812 53.6 45.0625 57.975 49.4375C62.35 53.8125 67.6312 56 73.8187 56ZM136.762 56C142.575 56 147.617 54.0521 151.887 50.1562C152.283 49.8021 152.492 49.3646 152.512 48.8438C152.533 48.3229 152.367 47.875 152.012 47.5C151.658 47.1042 151.221 46.8958 150.7 46.875C150.179 46.8542 149.731 47.0208 149.356 47.375C145.794 50.6042 141.596 52.2188 136.762 52.2188C131.617 52.2188 127.221 50.3958 123.575 46.75C119.929 43.1042 118.106 38.7083 118.106 33.5625C118.106 28.3958 119.929 23.9896 123.575 20.3438C127.221 16.6979 131.617 14.875 136.762 14.875C141.012 14.875 144.815 16.1562 148.169 18.7188C148.565 19.0521 149.023 19.1771 149.544 19.0938C150.065 19.0312 150.481 18.7917 150.794 18.375C151.106 17.9792 151.231 17.5208 151.169 17C151.106 16.4792 150.867 16.0625 150.45 15.75C146.429 12.6458 141.867 11.0938 136.762 11.0938C130.575 11.0938 125.294 13.2917 120.919 17.6875C116.523 22.0625 114.325 27.3542 114.325 33.5625C114.325 39.75 116.523 45.0312 120.919 49.4062C125.294 53.8021 130.575 56 136.762 56ZM188.394 14.9062C193.54 14.9062 197.935 16.7396 201.581 20.4062C205.248 24.0521 207.081 28.4479 207.081 33.5938C207.081 38.7396 205.248 43.1354 201.581 46.7812C197.935 50.4271 193.54 52.25 188.394 52.25C183.248 52.25 178.852 50.4271 175.206 46.7812C171.56 43.1354 169.737 38.7396 169.737 33.5938C169.737 28.4479 171.56 24.0521 175.206 20.4062C178.852 16.7396 183.248 14.9062 188.394 14.9062ZM188.394 56C194.581 56 199.862 53.8125 204.237 49.4375C208.612 45.0625 210.8 39.7812 210.8 33.5938C210.8 27.4062 208.612 22.125 204.237 17.75C199.862 13.375 194.581 11.1875 188.394 11.1875C182.206 11.1875 176.925 13.375 172.55 17.75C168.175 22.125 165.987 27.4062 165.987 33.5938C165.987 39.7812 168.175 45.0625 172.55 49.4375C176.925 53.8125 182.206 56 188.394 56Z" fill="white"/>
<path d="M124.771 3L23.7712 129.5" stroke="white" stroke-width="3" stroke-linecap="round" stroke-linejoin="round"/>
</svg>
