<svg width="103" height="104" viewBox="0 0 103 104" fill="none" xmlns="http://www.w3.org/2000/svg">
<rect x="77" y="61.9795" width="7" height="9" fill="white"/>
<path d="M10 82.2838L21.1864 77.9795L34.4068 81.3273V88.9795H10V82.2838Z" fill="#FFA588"/>
<path d="M75.5932 82.2838L86.7797 77.9795L100 81.3273V88.9795H75.5932V82.2838Z" fill="#FFA588"/>
<rect x="75" y="88.9795" width="26" height="4" fill="#E3E3E3"/>
<rect x="75" y="88.9795" width="26" height="4" fill="#E3E3E3"/>
<rect x="75" y="88.9795" width="26" height="4" fill="#E3E3E3"/>
<rect x="75" y="88.9795" width="26" height="4" fill="#E3E3E3"/>
<path fill-rule="evenodd" clip-rule="evenodd" d="M38.452 25.1505L4.75496 69.2587C-1.48325 77.4474 0.196331 89.0699 8.50543 95.2181L10.1717 96.4511C18.4808 102.599 30.2734 100.943 36.5116 92.7547L75.4248 42.4055C79.3686 34.0245 74.8604 12.5641 66.5513 6.41648L53.7341 1.97949L42.8887 7.89549C36.3911 12.8255 38.452 17.2625 38.452 25.1505Z" fill="#FFA588"/>
<rect x="44.3672" y="61.1395" width="21.6908" height="30.566" fill="white"/>
<rect x="28" y="61.9795" width="7" height="9" fill="white"/>
<rect x="11" y="88.9795" width="26" height="4" fill="#E3E3E3"/>
<rect x="11" y="88.9795" width="26" height="4" fill="#E3E3E3"/>
<rect x="11" y="88.9795" width="26" height="4" fill="#E3E3E3"/>
<rect x="11" y="88.9795" width="26" height="4" fill="#E3E3E3"/>
<path d="M96.6788 79.4091C95.8681 77.9734 94.535 76.9365 92.9558 76.5302V54.8973C95.5526 54.2196 97.485 51.8668 97.485 49.0487V44.2551L88.0055 15.6972H74.2911C72.2379 7.01978 64.4733 0.537476 55.2127 0.537476C45.952 0.537476 38.1875 7.01978 36.1343 15.6972H22.4199L12.9403 44.2551V49.0487C12.9403 51.8668 14.8728 54.2196 17.4695 54.8973V76.5302C15.8903 76.935 14.5572 77.9734 13.7465 79.4091C10.7467 79.7608 8.41113 82.3273 8.41113 85.432V94.5279H102.014V85.432C102.014 82.3273 99.6787 79.7608 96.6788 79.4091ZM94.2799 81.4102L94.6513 82.4804L95.779 82.4259C95.8651 82.4213 95.9481 82.4107 95.9753 82.4001C97.6405 82.4001 98.9948 83.7599 98.9948 85.432H74.8391C74.8391 83.7599 76.1934 82.4001 77.8012 82.4001L79.1811 82.4804L79.5525 81.4102C79.9767 80.1883 81.1166 79.3681 82.3878 79.3681C82.5976 79.3681 82.8226 79.4 83.0943 79.4636L84.0092 79.685L84.6101 78.9588C85.7756 77.549 88.0568 77.549 89.2238 78.9588L89.8247 79.685L90.7396 79.4636C91.0113 79.4 91.2363 79.3681 91.4461 79.3681C92.7173 79.3681 93.8571 80.1883 94.2799 81.4102ZM91.4461 52.0806C89.7809 52.0806 88.4267 50.7208 88.4267 49.0487V46.0167H94.4656V49.0487C94.4656 50.7208 93.1113 52.0806 91.4461 52.0806ZM47.664 21.7611C45.9988 21.7611 44.6446 20.4013 44.6446 18.7292C44.6446 16.4628 46.5348 12.6653 47.664 12.6653C48.7933 12.6653 50.6835 16.4628 50.6835 18.7292C50.6835 20.4013 49.3293 21.7611 47.664 21.7611ZM49.4712 39.0887L49.2553 42.9848H43.3115L44.0377 36.4251C45.6848 37.5758 47.51 38.4838 49.4712 39.0887ZM66.3877 36.4251L67.1138 42.9848H61.1701L60.9542 39.0887C62.9153 38.4838 64.7406 37.5758 66.3877 36.4251ZM79.1373 42.9848L75.1109 18.7292H79.6672L85.0358 42.9848H79.1373ZM76.0771 42.9848H70.1514L69.1671 34.083C71.0331 32.1865 72.5051 29.9064 73.4879 27.3808L76.0771 42.9848ZM57.9664 39.736L58.1461 42.9848H52.2793L52.4589 39.736C53.3617 39.8634 54.2751 39.9528 55.2127 39.9528C56.1502 39.9528 57.0636 39.8634 57.9664 39.736ZM40.2739 42.9848H34.3482L36.9374 27.3823C37.9187 29.908 39.3922 32.1865 41.2583 34.0845L40.2739 42.9848ZM31.288 42.9848H25.3895L30.7581 18.7292H35.3145L31.288 42.9848ZM25.0181 46.0167H31.057V49.0487C31.057 50.7208 29.7028 52.0806 28.0376 52.0806C26.3724 52.0806 25.0181 50.7208 25.0181 49.0487V46.0167ZM34.0765 46.0167H40.1154V49.0487C40.1154 50.7208 38.7612 52.0806 37.0959 52.0806C35.4307 52.0806 34.0765 50.7208 34.0765 49.0487V46.0167ZM43.1349 46.0167H49.1738V49.0487C49.1738 50.7208 47.8195 52.0806 46.1543 52.0806C44.4891 52.0806 43.1349 50.7208 43.1349 49.0487V46.0167ZM52.1932 46.0167H58.2321V49.0487C58.2321 50.7208 56.8779 52.0806 55.2127 52.0806C53.5474 52.0806 52.1932 50.7208 52.1932 49.0487V46.0167ZM61.2516 46.0167H67.2905V49.0487C67.2905 50.7208 65.9363 52.0806 64.271 52.0806C62.6058 52.0806 61.2516 50.7208 61.2516 49.0487V46.0167ZM70.3099 46.0167H76.3488V49.0487C76.3488 50.7208 74.9946 52.0806 73.3294 52.0806C71.6642 52.0806 70.3099 50.7208 70.3099 49.0487V46.0167ZM79.3683 46.0167H85.4072V49.0487C85.4072 50.7208 84.053 52.0806 82.3878 52.0806C80.7225 52.0806 79.3683 50.7208 79.3683 49.0487V46.0167ZM93.8813 42.9848H88.1277L82.7591 18.7292H85.8284L93.8813 42.9848ZM55.2127 3.56942C64.3692 3.56942 71.8197 11.0508 71.8197 20.2451C71.8197 26.0847 68.8093 31.2238 64.271 34.2042V24.5778C66.8678 23.9002 68.8002 21.5474 68.8002 18.7292V11.1493H65.7808V18.7292C65.7808 19.8464 65.1693 20.8136 64.271 21.3397V11.1493H61.2516V21.3397C60.3533 20.8136 59.7419 19.8464 59.7419 18.7292V11.1493H56.7224V18.7292C56.7224 21.5474 58.6548 23.9002 61.2516 24.5778V35.7627C59.3765 36.5009 57.3444 36.9209 55.2127 36.9209C53.0809 36.9209 51.0488 36.5009 49.1738 35.7627V24.5778C51.7705 23.9002 53.7029 21.5474 53.7029 18.7292C53.7029 15.6047 51.3508 9.63332 47.664 9.63332C43.9773 9.63332 41.6251 15.6047 41.6251 18.7292C41.6251 21.5474 43.5576 23.9002 46.1543 24.5778V34.2042C41.6161 31.2238 38.6057 26.0847 38.6057 20.2451C38.6057 11.0508 46.0562 3.56942 55.2127 3.56942ZM24.5969 18.7292H27.6662L22.2976 42.9848H16.544L24.5969 18.7292ZM15.9598 49.0487V46.0167H21.9987V49.0487C21.9987 50.7208 20.6445 52.0806 18.9792 52.0806C17.314 52.0806 15.9598 50.7208 15.9598 49.0487ZM14.3927 82.4001L15.7726 82.4804L16.144 81.4102C16.5682 80.1883 17.708 79.3681 18.9792 79.3681C19.1891 79.3681 19.414 79.4 19.6858 79.4636L20.6007 79.685L21.2015 78.9588C22.367 77.549 24.6482 77.549 25.8153 78.9588L26.4161 79.685L27.331 79.4636C27.6028 79.4 27.8277 79.3681 28.0376 79.3681C29.3088 79.3681 30.4486 80.1883 30.8713 81.4102L31.2427 82.4804L32.3705 82.4259C32.4566 82.4213 32.5396 82.4107 32.5668 82.4001C34.232 82.4001 35.5862 83.7599 35.5862 85.432H11.4306C11.4306 83.7599 12.7848 82.4001 14.3927 82.4001ZM11.4306 91.4959V88.464H35.5862V91.4959H11.4306ZM65.7808 91.4959H44.6446V61.1764H65.7808V91.4959ZM71.8197 91.4959H68.8002V58.1445H41.6251V91.4959H38.6057V85.432C38.6057 82.3273 36.2701 79.7608 33.2703 79.4091C32.1274 77.3852 29.9564 76.1285 27.5047 76.362C25.6039 74.655 22.672 74.4291 20.4889 75.6692V54.9003C21.6726 54.5911 22.7233 53.9483 23.5084 53.0539C24.615 54.3167 26.2365 55.1126 28.0376 55.1126C29.8387 55.1126 31.4601 54.3167 32.5668 53.0554C33.6734 54.3167 35.2948 55.1126 37.0959 55.1126C38.897 55.1126 40.5185 54.3167 41.6251 53.0554C42.7318 54.3167 44.3532 55.1126 46.1543 55.1126C47.9554 55.1126 49.5769 54.3167 50.6835 53.0554C51.7901 54.3167 53.4116 55.1126 55.2127 55.1126C57.0138 55.1126 58.6352 54.3167 59.7419 53.0554C60.8485 54.3167 62.4699 55.1126 64.271 55.1126C66.0721 55.1126 67.6936 54.3167 68.8002 53.0554C69.9068 54.3167 71.5283 55.1126 73.3294 55.1126C75.1305 55.1126 76.7519 54.3167 77.8586 53.0554C78.9652 54.3167 80.5867 55.1126 82.3878 55.1126C84.1889 55.1126 85.8103 54.3167 86.9169 53.0554C87.702 53.9498 88.7528 54.5941 89.9364 54.9018V75.6707C87.7533 74.4291 84.8214 74.655 82.9207 76.3635C80.4749 76.127 78.2964 77.3868 77.155 79.4106C74.1552 79.7608 71.8197 82.3273 71.8197 85.432V91.4959ZM74.8391 91.4959V88.464H98.9948V91.4959H74.8391Z" fill="black" fill-opacity="0.8"/>
<path d="M50.6835 74.8203H47.6641V77.8522H50.6835V74.8203Z" fill="black" fill-opacity="0.8"/>
<path d="M25.0181 71.7883H37.0959V59.6605H25.0181V71.7883ZM28.0375 62.6925H34.0764V68.7564H28.0375V62.6925Z" fill="black" fill-opacity="0.8"/>
<path d="M85.4074 59.6605H73.3296V71.7883H85.4074V59.6605ZM82.388 68.7564H76.349V62.6925H82.388V68.7564Z" fill="black" fill-opacity="0.8"/>
</svg>
