<svg width="111" height="103" viewBox="0 0 111 103" fill="none" xmlns="http://www.w3.org/2000/svg">
<path fill-rule="evenodd" clip-rule="evenodd" d="M8.1291 37.6724L57.2335 74.5831C65.9627 81.1455 50.6796 90.195 57.2335 81.454L57.2335 79.352C63.787 70.611 59.9083 65.6887 59.9083 45.1938L59.9083 23.6479L33.1758 4.26512C24.4461 -2.29675 12.0566 -0.530454 5.50319 8.21053L4.18878 9.9634C-2.36521 18.705 -0.60061 31.1105 8.1291 37.6724Z" fill="#FFA588"/>
<ellipse cx="40.9897" cy="91.4388" rx="8.40816" ry="8.40816" fill="white"/>
<ellipse cx="89.3369" cy="91.4388" rx="8.40816" ry="8.40816" fill="white"/>
<path d="M35.7349 57.8062L108.255 60.9592V91.4388H98.0571L95.7908 84.8349L87.8589 82.2949L80.4936 84.8349L78.5106 91.4388H50.9747L47.2961 83.5561L35.7349 81.9796V57.8062Z" fill="#FFA588"/>
<rect x="60.959" y="14.7143" width="47.2959" height="28.3776" fill="white"/>
<path d="M108.748 12.6122H60.4663C60.0221 12.6122 59.6198 12.7922 59.3285 13.083L42.0663 30.3149C29.5727 30.6362 20.2319 39.482 20.2319 51.1697V59.2908C12.9994 60.0925 7.35693 66.2312 7.35693 73.6615V75.2681V84.9074C7.35693 89.3367 10.9668 92.9402 15.4038 92.9402H30.0169C30.8023 98.3816 35.4904 102.58 41.1538 102.58C47.366 102.58 52.4194 97.535 52.4194 91.3337C52.4194 85.1324 47.366 80.0878 41.1538 80.0878C35.4888 80.0878 30.8023 84.2857 30.0169 89.7271H15.4038C13.3084 89.7271 11.5381 88.3792 10.8718 86.514H13.7944C17.3447 86.514 20.2319 83.6318 20.2319 80.0878C20.2319 76.5437 17.3447 73.6615 13.7944 73.6615H10.5757C10.5757 67.4602 15.6291 62.4156 21.8413 62.4156C22.7297 62.4156 23.4507 61.6959 23.4507 60.809V51.1697C23.4507 41.0949 31.7534 33.4975 42.7632 33.4975H58.8569V36.7106V72.055V89.7271H52.4194V91.3337V92.9402H60.4663H78.2982C79.0836 98.3816 83.7717 102.58 89.4351 102.58C95.0984 102.58 99.7866 98.3816 100.572 92.9402H102.31C106.747 92.9402 110.357 89.3367 110.357 84.9074V72.055V36.7106V31.891V14.2188C110.357 13.332 109.636 12.6122 108.748 12.6122ZM41.1538 83.3009C45.5909 83.3009 49.2007 86.9044 49.2007 91.3337C49.2007 95.763 45.5909 99.3665 41.1538 99.3665C36.7168 99.3665 33.1069 95.763 33.1069 91.3337C33.1069 86.9044 36.7168 83.3009 41.1538 83.3009ZM13.7944 76.8746C15.5696 76.8746 17.0132 78.3157 17.0132 80.0878C17.0132 81.8598 15.5696 83.3009 13.7944 83.3009H10.5757V76.8746H13.7944ZM107.138 30.2844H94.2632V15.8254H107.138V30.2844ZM62.0757 62.4156H107.138V70.4484H62.0757V62.4156ZM62.0757 59.2025V43.8743C63.7864 45.4086 66.038 46.35 68.5132 46.35C71.8703 46.35 74.8284 44.6294 76.5601 42.0284C78.2901 44.6294 81.2498 46.35 84.6069 46.35C87.9641 46.35 90.9221 44.6294 92.6538 42.0284C94.3839 44.6294 97.3435 46.35 100.701 46.35C103.174 46.35 105.427 45.4086 107.138 43.8743V59.2025H62.0757ZM62.0757 33.4975H74.9507V36.7106C74.9507 40.2547 72.0635 43.1369 68.5132 43.1369C64.9629 43.1369 62.0757 40.2547 62.0757 36.7106V33.4975ZM91.0444 36.7106C91.0444 40.2547 88.1572 43.1369 84.6069 43.1369C81.0567 43.1369 78.1694 40.2547 78.1694 36.7106V33.4975H91.0444V36.7106ZM91.0444 30.2844H78.1694V15.8254H91.0444V30.2844ZM107.138 36.7106C107.138 40.2547 104.251 43.1369 100.701 43.1369C97.1504 43.1369 94.2632 40.2547 94.2632 36.7106V33.4975H107.138V36.7106ZM62.0757 15.8254H74.9507V30.2844H62.0757V15.8254ZM46.6482 30.2844L58.8569 18.097V30.2844H46.6482ZM89.4351 99.3665C84.998 99.3665 81.3882 95.763 81.3882 91.3337C81.3882 86.9044 84.998 83.3009 89.4351 83.3009C93.8721 83.3009 97.4819 86.9044 97.4819 91.3337C97.4819 95.763 93.8721 99.3665 89.4351 99.3665ZM107.138 84.9074C107.138 87.5647 104.972 89.7271 102.31 89.7271H100.572C99.7866 84.2857 95.0984 80.0878 89.4351 80.0878C83.7701 80.0878 79.0836 84.2857 78.2982 89.7271H62.0757V73.6615H107.138V84.9074Z" fill="black" fill-opacity="0.8"/>
<path d="M54.0288 52.7762V38.3172C54.0288 37.4304 53.3078 36.7106 52.4194 36.7106H42.7632C33.8891 36.7106 26.6694 43.9177 26.6694 52.7762C26.6694 53.6631 27.3904 54.3828 28.2788 54.3828H52.4194C53.3078 54.3828 54.0288 53.6631 54.0288 52.7762ZM50.8101 51.1697H29.988C30.783 44.8382 36.2098 39.9238 42.7632 39.9238H50.8101V51.1697Z" fill="black" fill-opacity="0.8"/>
<path d="M52.4194 57.5959H45.9819V60.809H52.4194V57.5959Z" fill="black" fill-opacity="0.8"/>
</svg>
