<svg width="115" height="114" viewBox="0 0 115 114" fill="none" xmlns="http://www.w3.org/2000/svg">
<path d="M48.01 53.1999C37.6295 53.1999 37.6295 38.1853 48.01 38.1853C58.2051 38.1853 58.2051 53.1999 48.01 53.1999ZM71.1807 38.9268L49.3075 72.2926H42.6344L64.5075 38.9268H71.1807ZM48.01 48.7512C52.088 48.7512 52.088 42.4487 48.01 42.4487C43.9319 42.6341 43.9319 48.7512 48.01 48.7512ZM65.9905 72.478C55.61 72.478 55.61 57.4634 65.9905 57.4634C76.3709 57.6487 76.3709 72.478 65.9905 72.478ZM65.9905 68.2146C70.0685 68.2146 70.0685 61.9121 65.9905 61.9121C61.9124 61.9121 61.9124 68.2146 65.9905 68.2146Z" fill="#E53D32"/>
<path d="M90.0875 63.0244L107.141 67.6585C107.883 64.1366 108.253 60.6146 108.253 57.0927C108.253 52.6439 107.697 48.1951 106.585 43.7463C105.473 39.4829 103.619 35.2195 101.395 31.3268C99.1704 27.4341 96.3899 23.9122 93.2387 20.761C90.0875 17.6098 86.5655 14.8293 82.6729 12.6049C78.7802 10.3805 74.7021 8.71219 70.2534 7.41463C66.7314 6.4878 63.3948 5.9317 59.6875 5.74634V23.5415C61.7265 23.7268 63.5802 24.0976 65.6192 24.6537C68.3997 25.3951 71.1802 26.5073 73.7753 27.9902C76.3704 29.4732 78.7802 31.3268 80.8192 33.3658C82.8582 35.4049 84.7119 37.8146 86.1948 40.4097C87.6777 43.0049 88.7899 45.7854 89.5314 48.5658C90.2729 51.3463 90.6436 54.3122 90.6436 57.278C90.6436 58.9463 90.4582 60.9854 90.0875 63.0244Z" fill="white"/>
<path d="M72.4777 83.7852C70.2533 85.0827 67.6582 86.1949 65.0631 86.9364C62.4679 87.6779 59.8728 88.0486 57.0923 88.0486C54.3118 88.0486 51.7167 87.6779 49.1216 86.9364C46.5265 86.1949 43.9313 85.2681 41.707 83.7852C39.2972 82.4876 37.2582 80.8193 35.2192 78.9657C33.3655 77.112 31.6972 74.8876 30.3996 72.4779C29.1021 70.2535 27.9899 67.6584 27.2484 65.0632L4.63379 70.9949C5.93135 75.6291 7.78501 80.0779 10.0094 83.9705C12.4192 88.0486 15.1996 91.9413 18.5362 95.2779C21.8728 98.6145 25.5801 101.58 29.8435 103.805C33.9216 106.214 38.185 108.068 42.8192 109.18C47.2679 110.292 51.9021 111.034 56.907 111.034C61.9118 111.034 66.546 110.478 70.9948 109.18C75.6289 107.883 80.0777 106.029 83.9704 103.805L72.4777 83.7852Z" fill="white"/>
<path d="M43.0052 4.63418C38.371 5.93174 33.9223 7.7854 30.0296 10.0098C25.9515 12.4195 22.0588 15.2 18.7223 18.5366C15.3857 21.8732 12.4198 25.5805 10.1954 29.8439C7.78568 33.922 5.93202 38.1854 4.81982 42.8196L27.2491 48.9366C27.9906 46.3415 28.9174 43.7464 30.4003 41.522C31.5125 39.1122 33.1808 37.0732 35.2198 35.2195C37.0735 33.3659 39.2979 31.6976 41.7076 30.4C43.932 29.1025 46.5271 27.9903 49.1223 27.2488C51.7174 26.5074 54.3125 26.1366 57.093 26.1366V2.78052C52.0881 2.78052 47.454 3.52198 43.0052 4.63418Z" fill="white"/>
<path d="M111.405 60.4293C111.219 60.8 111.219 61.3561 111.034 61.7269C103.249 61.7269 95.4633 61.7269 87.8633 61.7269C88.0486 60.0586 88.0486 58.5756 88.234 56.9073C96.0194 56.9073 103.805 56.9073 111.59 56.9073C111.405 58.2049 111.405 59.3171 111.405 60.4293Z" fill="#E53D32"/>
<path d="M57.2778 26.1366C57.2778 25.7659 57.2778 25.2098 57.2778 24.6537C57.6486 24.6537 58.2047 24.6537 58.5754 24.6537C72.1071 24.6537 85.6388 24.6537 99.3559 24.6537C100.283 24.6537 100.839 25.0244 101.395 25.7659C102.136 27.0634 102.878 28.1756 103.805 29.4732C103.249 29.4732 102.878 29.4732 102.507 29.4732C92.312 29.4732 82.1169 29.4732 71.9217 29.4732C71.551 29.4732 70.9949 29.4732 70.6242 29.2878C68.5851 28.5464 66.3608 27.6195 64.3217 27.0634C61.912 26.6927 59.6876 26.5073 57.2778 26.1366Z" fill="#E53D32"/>
<path d="M97.5022 21.3169C84.1559 21.3169 70.8095 21.3169 57.2778 21.3169C57.2778 19.6487 57.2778 18.1657 57.2778 16.4974C57.8339 16.4974 58.2047 16.4974 58.7608 16.4974C69.6973 16.4974 80.6339 16.4974 91.7559 16.4974C92.6827 16.4974 93.4242 16.6828 93.9803 17.4243C95.2778 18.7218 96.5754 19.834 97.873 20.9462C97.6876 21.1316 97.6876 21.3169 97.5022 21.3169Z" fill="#E53D32"/>
<path d="M107.697 37.6291C102.136 37.6291 96.7605 37.6291 91.5703 37.6291C88.4191 37.6291 85.2679 37.6291 82.1166 37.6291C81.5605 37.6291 81.0044 37.2584 80.6337 36.8877C79.3362 35.5901 78.0386 34.1072 76.9264 32.6243C76.741 32.6243 76.741 32.8096 76.5557 32.8096C76.9264 32.8096 77.2971 32.8096 77.4825 32.8096C86.5654 32.8096 95.463 32.8096 104.546 32.8096C105.473 32.8096 106.029 32.995 106.214 33.9218C106.585 35.034 107.141 36.1462 107.697 37.6291Z" fill="#E53D32"/>
<path d="M57.2778 13.3462C57.2778 11.8633 57.2778 10.195 57.2778 8.52673C57.8339 8.52673 58.39 8.52673 58.7608 8.52673C65.8047 8.52673 72.6632 8.52673 79.7071 8.52673C80.4486 8.52673 81.3754 8.7121 82.1169 9.08283C84.3412 10.3804 86.5656 11.678 88.6047 13.1609C78.2242 13.3462 67.8437 13.3462 57.2778 13.3462Z" fill="#E53D32"/>
<path d="M83.4146 40.7804C84.7121 40.7804 86.0097 40.7804 87.1219 40.7804C93.9804 40.7804 100.839 40.7804 107.512 40.7804C108.439 40.7804 108.81 41.1511 108.995 41.8926C109.18 43.0048 109.551 44.3023 109.922 45.4145C109.366 45.4145 108.995 45.4145 108.624 45.4145C101.395 45.4145 94.1658 45.4145 86.7511 45.4145C85.8243 45.4145 85.2682 45.0438 84.8975 44.3023C84.8975 43.3755 84.156 42.2633 83.4146 40.7804Z" fill="#E53D32"/>
<path d="M87.1216 48.9366C95.0923 48.9366 102.878 48.9366 110.848 48.9366C111.034 50.4196 111.219 52.0879 111.405 53.7562C110.848 53.7562 110.292 53.7562 109.922 53.7562C103.063 53.7562 96.2045 53.7562 89.346 53.7562C88.4191 53.7562 87.863 53.5708 87.863 52.4586C87.6777 51.3464 87.3069 50.2342 87.1216 48.9366Z" fill="#E53D32"/>
<path d="M110.849 65.0634C110.478 66.7316 110.293 68.2146 109.922 70.0682C107.512 69.8829 104.917 69.8829 102.507 69.3268C97.6876 68.2146 93.0535 66.917 88.234 65.6195C87.8632 65.6195 87.4925 65.4341 87.3071 65.0634C95.0925 65.0634 103.063 65.0634 110.849 65.0634Z" fill="#E53D32"/>
<path d="M57.2778 5.19033C57.2778 4.44887 57.2778 3.89277 57.2778 3.1513C62.2827 2.96594 66.9169 3.89277 71.7364 5.19033C66.9169 5.19033 62.2827 5.19033 57.2778 5.19033Z" fill="#1A93EE"/>
<path d="M29.1025 52.4585L1.1123 45.0439L1.85377 42.2634C3.15133 37.4439 5.00499 32.8098 7.60011 28.5463C10.1952 24.0976 13.1611 20.2049 16.683 16.6829C20.205 13.161 24.0977 10.1951 28.5464 7.6C32.8099 5.00488 37.444 3.15122 42.2635 1.85366C47.083 0.556098 52.0879 0 57.0928 0H59.8733V28.9171H57.0928C54.683 28.9171 52.2733 29.2878 49.8635 29.8439C47.4538 30.4 45.2294 31.5122 43.005 32.6244C40.7806 33.922 38.9269 35.4049 37.0733 37.0732C35.405 38.7415 33.9221 40.7805 32.6245 42.8195C31.3269 45.0439 30.4001 47.2683 29.844 49.678L29.1025 52.4585ZM8.15621 40.9659L25.2099 45.6C25.9513 43.7463 26.6928 41.8927 27.805 40.2244C29.2879 37.6293 31.1416 35.2195 33.1806 33.1805C35.2196 31.1415 37.6294 29.2878 40.2245 27.8049C42.8196 26.322 45.6001 25.2098 48.3806 24.4683C50.2343 23.9122 52.2733 23.5415 54.3123 23.3561V5.74634C50.7904 5.93171 47.2684 6.4878 43.7465 7.41463C39.483 8.52683 35.2196 10.3805 31.3269 12.6049C27.4343 14.8293 23.9123 17.6098 20.7611 20.761C17.6099 23.9122 14.8294 27.4341 12.605 31.3268C10.7513 34.478 9.2684 37.6293 8.15621 40.9659Z" fill="#332E13"/>
<path d="M111.405 74.5171L83.4149 67.1024L84.1564 64.322C84.7125 61.9122 85.0832 59.5024 85.0832 57.0927C85.0832 54.6829 84.7125 52.2732 84.1564 49.8634C83.6003 47.4537 82.6735 45.2293 81.3759 43.0049C80.0784 40.7805 78.5954 38.9268 76.9271 37.0732C75.2588 35.4049 73.2198 33.922 71.1808 32.6244C68.9564 31.3268 66.732 30.4 64.3223 29.8439C61.9125 29.2878 59.5027 28.9171 57.093 28.9171H54.3125V0H57.093C62.0979 0 67.1027 0.741463 71.9223 1.85366C76.7418 3.15122 81.3759 5.00488 85.6393 7.6C89.9028 10.1951 93.9808 13.161 97.5028 16.6829C101.025 20.2049 103.991 24.0976 106.586 28.5463C109.181 32.8098 111.034 37.4439 112.332 42.2634C113.63 47.0829 114.186 52.0878 114.186 57.0927C114.186 62.0976 113.444 67.1024 112.332 71.922L111.405 74.5171ZM90.0881 63.0244L107.142 67.6585C107.883 64.1366 108.254 60.6146 108.254 57.0927C108.254 52.6439 107.698 48.1951 106.586 43.7463C105.473 39.4829 103.62 35.2195 101.395 31.3268C99.171 27.4341 96.3906 23.9122 93.2393 20.761C90.0881 17.6098 86.5662 14.8293 82.6735 12.6049C78.7808 10.3805 74.7028 8.7122 70.254 7.41463C66.732 6.48781 63.3954 5.93171 59.6881 5.74634V23.5415C61.7271 23.7268 63.5808 24.0976 65.6198 24.6537C68.4003 25.3951 71.1808 26.5073 73.7759 27.9902C76.371 29.4732 78.7808 31.3268 80.8198 33.3659C82.8588 35.4049 84.7125 37.8146 86.1954 40.4098C87.6784 43.0049 88.7906 45.7854 89.532 48.5659C90.2735 51.3463 90.6442 54.3122 90.6442 57.2781C90.6442 58.9463 90.4588 60.9854 90.0881 63.0244Z" fill="#332E13"/>
<path d="M83.044 107.698L68.5854 82.6731L70.9952 81.1902C73.2196 79.8927 75.0733 78.4097 76.7415 76.7414C78.4098 75.0732 79.8928 73.0341 81.1903 70.9951C82.4879 68.7707 83.4147 66.5463 83.9708 64.1366L84.7123 61.3561L112.703 68.7707L111.961 71.5512C110.664 76.3707 108.81 81.0049 106.215 85.2683C103.62 89.5317 100.654 93.6097 97.1318 97.1317C93.6098 100.654 89.7172 103.619 85.2684 106.215L83.044 107.698ZM76.1854 84.7122L85.083 100.098C88.0489 98.0585 90.8294 95.8341 93.4245 93.4244C96.5757 90.2732 99.3562 86.7512 101.581 82.8585C103.434 79.7073 104.732 76.5561 105.844 73.2195L88.7903 68.5853C88.0489 70.439 87.3074 72.2927 86.1952 73.961C84.7123 76.5561 82.8586 78.7805 80.8196 81.0049C79.3367 82.3024 77.8537 83.6 76.1854 84.7122Z" fill="#332E13"/>
<path d="M76.1855 84.712L85.0831 100.097C88.049 98.0584 90.8295 95.834 93.4246 93.4242C96.5758 90.273 99.3563 86.7511 101.581 82.8584C103.434 79.7072 104.732 76.5559 105.844 73.2194L88.7904 68.5852C88.049 70.4389 87.3075 72.2925 86.1953 73.9608C84.7124 76.5559 82.8587 78.7803 80.8197 81.0047C79.3368 82.3023 77.8538 83.5998 76.1855 84.712Z" fill="white"/>
<path d="M2.59512 74.5172L1.85366 71.7367C0.556098 66.9172 0 61.9124 0 56.9075C0 51.9026 0.741463 46.8977 1.85366 42.0782L2.59512 39.2977L30.5854 46.7124L29.8439 49.4928C29.2878 51.9026 28.9171 54.3124 28.9171 56.7221C28.9171 59.1319 29.2878 61.5416 29.8439 63.9514L30.5854 66.7319L2.59512 74.5172Z" fill="#0757A0"/>
<path d="M2.59512 74.5172L1.85366 71.7367C0.556098 66.9172 0 61.9124 0 56.9075C0 51.9026 0.741463 46.8977 1.85366 42.0782L2.59512 39.2977L30.5854 46.7124L29.8439 49.4928C29.2878 51.9026 28.9171 54.3124 28.9171 56.7221C28.9171 59.1319 29.2878 61.5416 29.8439 63.9514L30.5854 66.7319L2.59512 74.5172Z" fill="#332E13"/>
<path d="M6.67274 46.3414C5.93128 49.8634 5.56055 53.3853 5.56055 56.9073C5.56055 60.4292 5.93128 63.9512 6.67274 67.4731L23.7264 62.839C23.3557 60.8 23.1703 58.9463 23.1703 56.9073C23.1703 54.8683 23.3557 52.8292 23.7264 50.9756L6.67274 46.3414Z" fill="#E53D32"/>
<path d="M56.9072 114C51.9024 114 46.8975 113.258 42.078 112.146C37.2585 110.849 32.6243 108.995 28.3609 106.4C24.0975 103.805 20.0194 100.839 16.4975 97.317C12.9755 93.795 10.0097 89.9024 7.41456 85.4536C4.81944 81.1902 2.96578 76.556 1.66822 71.7365L0.926758 68.956L28.917 61.5414L29.6585 64.3219C30.2146 66.7316 31.1414 68.956 32.439 71.1804C33.7365 73.4048 35.2194 75.2585 36.8877 76.9267C38.556 78.595 40.595 80.078 42.6341 81.3755C44.6731 82.6731 47.0829 83.5999 49.4926 84.156C54.3121 85.4536 59.317 85.4536 63.9511 84.156C66.3609 83.5999 68.5853 82.4877 70.8097 81.3755L73.2194 79.8926L87.678 104.917L85.2682 106.4C81.0048 108.995 76.3707 110.849 71.5511 112.146C66.917 113.258 61.9121 114 56.9072 114ZM8.15603 73.0341C9.26822 76.3707 10.7511 79.7072 12.4194 82.6731C14.6438 86.5658 17.4243 90.0877 20.5755 93.2389C23.7268 96.3902 27.2487 99.1707 31.1414 101.395C35.0341 103.619 39.2975 105.288 43.5609 106.585C52.2731 108.995 61.5414 108.995 70.0682 106.585C73.4048 105.658 76.7414 104.361 79.8926 102.878L70.995 87.4926C69.1414 88.4194 67.2877 88.9755 65.4341 89.5316C59.6877 91.0146 53.756 91.0146 48.0097 89.5316C45.2292 88.7902 42.4487 87.678 39.8536 86.195C37.2585 84.7121 35.0341 82.8585 32.8097 80.8194C30.7707 78.7804 28.917 76.3706 27.4341 73.7755C26.5072 72.1072 25.5804 70.2536 24.839 68.3999L8.15603 73.0341Z" fill="#332E13"/>
</svg>
