<svg width="40" height="38" viewBox="0 0 40 38" fill="none" xmlns="http://www.w3.org/2000/svg">
<path d="M30.8337 22.3043V0.82608H9.16699V22.3043" stroke="black" stroke-miterlimit="10" stroke-linecap="round" stroke-linejoin="round"/>
<path d="M39.1668 37.1739H0.833496V25.6087H13.3335V27.2609C13.3335 29.0783 14.8335 30.5652 16.6668 30.5652H24.1668C26.0002 30.5652 27.5002 29.0783 27.5002 27.2609V25.6087H39.1668V37.1739Z" stroke="black" stroke-miterlimit="10" stroke-linecap="round" stroke-linejoin="round"/>
<path d="M0.833496 25.6087L6.66683 15.6956H9.16683" stroke="black" stroke-miterlimit="10" stroke-linecap="round" stroke-linejoin="round"/>
<path d="M30.8335 15.6956H33.3335L39.1668 25.6087" stroke="black" stroke-miterlimit="10" stroke-linecap="round" stroke-linejoin="round"/>
<path d="M19.9998 18.4382C19.9998 18.4382 26.5832 13.6965 26.5832 10.1774C26.5832 6.12955 21.1998 4.84085 19.9998 9.76433C18.7998 4.82433 13.4165 6.11302 13.4165 10.1774C13.4165 13.6965 19.9998 18.4382 19.9998 18.4382Z" stroke="#FFA588" stroke-miterlimit="10" stroke-linejoin="round"/>
</svg>
