<svg width="56" height="58" viewBox="0 0 56 58" fill="none" xmlns="http://www.w3.org/2000/svg">
<g clip-path="url(#clip0)">
<path d="M54.5828 0.635082L36.7109 19.4322C36.795 18.9665 36.837 18.5008 36.837 17.9928C36.837 16.8073 36.6268 15.7066 36.1642 14.6906C35.7437 13.6745 35.1129 12.7854 34.356 11.9811C33.5991 11.219 32.716 10.6263 31.6647 10.1606C30.6555 9.73727 29.5621 9.48326 28.3847 9.48326C27.2072 9.48326 26.1139 9.69494 25.1046 10.1606C24.0954 10.584 23.2123 11.219 22.4133 11.9811C21.6564 12.7431 21.0256 13.6322 20.6051 14.6906C20.1846 15.7066 19.9323 16.8073 19.9323 17.9928C19.9323 19.1782 20.1426 20.2789 20.6051 21.2949C21.0256 22.311 21.6564 23.2001 22.4133 24.0044C23.1703 24.7665 24.0534 25.3592 25.1046 25.8249C26.1139 26.2482 27.2072 26.5022 28.3847 26.5022C28.9734 26.5022 29.5621 26.4599 30.1508 26.3329L22.0769 34.8C21.8246 35.0117 21.6144 35.1811 21.3621 35.4351C21.0677 35.7314 20.8154 36.0701 20.5631 36.4088L1.21936 56.73C0.925 57.0263 0.967052 57.492 1.26141 57.7884C1.38757 57.9154 1.59783 58.0001 1.76603 58.0001C1.97629 58.0001 2.1445 57.9154 2.3127 57.7884L19.0492 40.219C19.0072 40.6424 18.9651 41.0657 18.9651 41.4891C18.9651 42.6745 19.1754 43.7752 19.6379 44.7913C20.0585 45.8074 20.6892 46.6964 21.4462 47.5008C22.2031 48.2628 23.0862 48.8555 24.0954 49.3212C25.1047 49.7446 26.198 49.9986 27.3754 49.9986C28.5108 49.9986 29.5621 49.7869 30.5714 49.3636C31.5806 48.9402 32.4637 48.3475 33.2206 47.6278L33.0944 47.5008C32.9683 47.3738 32.8001 47.2468 32.6319 47.2044C32.4637 47.1198 32.2534 47.0774 32.0432 47.0774C31.917 47.0774 31.7908 47.0774 31.6647 47.1198C31.5385 47.1621 31.4124 47.2044 31.3283 47.2891C30.7816 47.6701 30.1508 47.9665 29.478 48.1782C28.8052 48.3898 28.0903 48.5168 27.3754 48.5168C26.7447 48.5168 26.1139 48.4322 25.5252 48.2628C24.9364 48.0935 24.3898 47.8395 23.8431 47.5431C23.3385 47.2468 22.8759 46.8657 22.4133 46.4424C21.9928 46.019 21.6144 45.5533 21.32 45.003C21.0256 44.4949 20.7733 43.9022 20.6051 43.3095C20.4369 42.7168 20.3528 42.0818 20.3528 41.4468C20.3528 40.8117 20.4369 40.1767 20.6051 39.584C20.7733 38.9913 21.0256 38.4409 21.32 37.8906C21.4041 37.7636 21.4882 37.6365 21.5303 37.5095L23.1703 35.7738C23.3805 35.6044 23.5908 35.4774 23.8011 35.3504C24.3057 35.0541 24.8523 34.8001 25.4831 34.6307C26.0718 34.4614 26.7026 34.3767 27.3334 34.3767C28.0903 34.3767 28.8052 34.5037 29.436 34.7154C30.1088 34.9271 30.6975 35.2234 31.2862 35.6468C31.4965 35.8161 31.7488 35.8584 32.0011 35.8584C32.2114 35.8584 32.3796 35.8161 32.5478 35.7314C32.716 35.6468 32.8842 35.5621 33.0103 35.3927L33.1365 35.3081C32.3796 34.546 31.4965 33.9957 30.4872 33.5723C29.5201 33.149 28.4267 32.9373 27.2913 32.9373C26.7447 32.9373 26.198 32.9796 25.6934 33.1066L55.592 1.73581C55.8864 1.43946 55.8443 0.973768 55.592 0.677418C55.3397 0.338732 54.8772 0.338732 54.5828 0.635082ZM35.155 19.8555C34.9868 20.4482 34.7345 20.9986 34.4401 21.549C34.2298 21.93 33.9775 22.311 33.6832 22.6073L33.2626 23.0307C32.8842 23.4117 32.4216 23.7504 31.9591 24.0468C31.4544 24.3431 30.8657 24.5971 30.277 24.7665C29.6883 24.9358 29.0575 25.0205 28.4267 25.0205C27.7959 25.0205 27.1652 24.9358 26.5765 24.7665C25.9877 24.5971 25.4411 24.3431 24.8944 24.0468C24.3898 23.7504 23.9272 23.3694 23.4646 22.946C23.0441 22.5227 22.6657 22.057 22.3713 21.5066C22.0769 20.9986 21.8246 20.4059 21.6564 19.8132C21.5303 19.2628 21.4462 18.6278 21.4462 17.9928C21.4462 17.3577 21.5303 16.7227 21.6985 16.13C21.8667 15.5373 22.119 14.9869 22.4133 14.4365C22.7077 13.9285 23.0862 13.4205 23.5067 12.9971C23.9272 12.5738 24.3898 12.1927 24.9364 11.8964C25.4411 11.6 25.9877 11.346 26.6185 11.1767C27.2072 11.0073 27.838 10.9227 28.4688 10.9227C29.436 10.9227 30.319 11.092 31.2021 11.473C32.0432 11.8541 32.8001 12.3621 33.4309 12.9971C34.0616 13.6322 34.5662 14.3942 34.9447 15.2409C35.3232 16.0876 35.4914 17.019 35.4914 17.9928C35.4073 18.6278 35.3232 19.2628 35.155 19.8555Z" fill="black"/>
<path d="M53.027 35.3927C52.2701 34.6307 51.387 34.038 50.3357 33.5723C49.3265 33.1489 48.2331 32.8949 47.0557 32.8949C45.8782 32.8949 44.7849 33.1066 43.7757 33.5723C42.7664 33.9956 41.8834 34.6307 41.0844 35.3927C40.3274 36.1548 39.6967 37.0438 39.2762 38.1022C38.8556 39.1183 38.6033 40.219 38.6033 41.4044C38.6033 42.5898 38.8136 43.6905 39.2762 44.7066C39.6967 45.7226 40.3274 46.6117 41.0844 47.4161C41.8413 48.1781 42.7244 48.7708 43.7757 49.2365C44.7849 49.6599 45.8782 49.9139 47.0557 49.9139C48.2331 49.9139 49.3265 49.7022 50.3357 49.2365C51.3449 48.8132 52.228 48.1781 53.027 47.4161C53.7839 46.654 54.3727 45.765 54.8352 44.7066C55.2557 43.6905 55.5081 42.5898 55.5081 41.4044C55.5081 40.219 55.2978 39.1183 54.8352 38.1022C54.4147 37.0438 53.7839 36.1548 53.027 35.3927ZM53.826 43.2248C53.6578 43.8175 53.4055 44.3679 53.1111 44.9183C52.8168 45.4263 52.4383 45.9343 52.0178 46.3577C51.5973 46.781 51.1347 47.1621 50.588 47.4584C50.0834 47.7548 49.4947 48.0088 48.906 48.1781C48.3172 48.3475 47.6865 48.4321 47.0557 48.4321C46.4249 48.4321 45.7941 48.3475 45.2054 48.1781C44.6167 48.0088 44.07 47.7548 43.5234 47.4584C43.0187 47.1621 42.5562 46.781 42.0936 46.3577C41.6731 45.9343 41.2946 45.4686 41.0003 44.9183C40.7059 44.4102 40.4536 43.8175 40.2854 43.2248C40.1172 42.6321 40.0331 41.9971 40.0331 41.3621C40.0331 40.727 40.1172 40.092 40.2854 39.4993C40.4536 38.9066 40.7059 38.3562 41.0003 37.8059C41.2946 37.2978 41.6731 36.7898 42.0936 36.3664C42.5141 35.9431 42.9767 35.5621 43.5234 35.2657C44.028 34.9694 44.5747 34.7153 45.2054 34.546C45.7941 34.3767 46.4249 34.292 47.0557 34.292C48.0229 34.292 48.906 34.4613 49.789 34.8423C50.6301 35.2234 51.387 35.7314 52.0178 36.3664C52.6485 37.0015 53.1532 37.7635 53.5316 38.6102C53.9101 39.4569 54.0783 40.3883 54.0783 41.3621C54.0783 42.0394 53.9942 42.6321 53.826 43.2248Z" fill="black"/>
<path d="M5.46659 25.7825C6.47583 26.2059 7.56917 26.4599 8.74662 26.4599C9.88201 26.4599 10.9333 26.2482 11.9425 25.8248C12.9518 25.4015 13.8349 24.8088 14.5918 24.0891L14.4656 23.9621C14.3395 23.8351 14.1713 23.7081 14.0031 23.6657C13.8349 23.581 13.6246 23.5387 13.4143 23.5387C13.2882 23.5387 13.162 23.5387 13.0359 23.581C12.9097 23.6234 12.7836 23.6657 12.6995 23.7504C12.1528 24.1314 11.522 24.4278 10.8492 24.6394C10.1764 24.8511 9.46149 24.9781 8.74662 24.9781C8.11584 24.9781 7.48507 24.8935 6.89635 24.7241C6.30762 24.5548 5.76095 24.3008 5.21428 24.0044C4.70967 23.7081 4.2471 23.327 3.78453 22.9037C3.36402 22.4803 2.98555 22.0146 2.69119 21.4643C2.39683 20.9562 2.14452 20.3635 1.97631 19.7708C1.80811 19.1781 1.72401 18.5431 1.72401 17.908C1.72401 17.273 1.80811 16.638 1.97631 16.0453C2.14452 15.4526 2.39683 14.9022 2.69119 14.3518C2.98555 13.8438 3.36402 13.3358 3.78453 12.9124C4.20505 12.4891 4.66761 12.108 5.21428 11.8117C5.7189 11.5153 6.26557 11.2613 6.89635 11.092C7.48507 10.9226 8.11584 10.838 8.74662 10.838C9.50354 10.838 10.2184 10.965 10.8492 11.1767C11.522 11.3883 12.1107 11.6847 12.6995 12.108C12.9097 12.2774 13.162 12.3197 13.4143 12.3197C13.6246 12.3197 13.7928 12.2774 13.961 12.1927C14.1292 12.108 14.2974 12.0234 14.4236 11.854L14.5497 11.7694C13.7928 11.0073 12.9097 10.457 11.9005 10.0336C10.9333 9.61024 9.83996 9.39856 8.70456 9.39856C7.56917 9.52557 6.47583 9.73725 5.46659 10.1606C4.45736 10.584 3.57427 11.219 2.81735 11.981C2.06042 12.7431 1.4717 13.6321 1.00913 14.6905C0.588613 15.7066 0.336304 16.8073 0.336304 17.9927C0.336304 19.1781 0.546561 20.2789 1.00913 21.2949C1.42964 22.311 2.06042 23.2 2.81735 24.0044C3.53222 24.7241 4.4153 25.3591 5.46659 25.7825Z" fill="black"/>
</g>
<defs>
<clipPath id="clip0">
<rect width="55.9286" height="58" fill="white"/>
</clipPath>
</defs>
</svg>
