<svg width="153" height="173" viewBox="0 0 153 173" fill="none" xmlns="http://www.w3.org/2000/svg">
<g clip-path="url(#clip0)">
<path d="M139.8 0.499942L97.3 44.8999C97.5 43.7999 97.6 42.6999 97.6 41.4999C97.6 38.6999 97.1 36.0999 96 33.6999C95 31.2999 93.5 29.1999 91.7 27.2999C89.9 25.4999 87.8 24.0999 85.3 22.9999C82.9 21.9999 80.3 21.3999 77.5 21.3999C74.7 21.3999 72.1 21.8999 69.7 22.9999C67.3 23.9999 65.2 25.4999 63.3 27.2999C61.5 29.0999 60 31.1999 59 33.6999C58 36.0999 57.4 38.6999 57.4 41.4999C57.4 44.2999 57.9 46.8999 59 49.2999C60 51.6999 61.5 53.7999 63.3 55.6999C65.1 57.4999 67.2 58.8999 69.7 59.9999C72.1 60.9999 74.7 61.5999 77.5 61.5999C78.9 61.5999 80.3 61.4999 81.7 61.1999L62.5 81.1999C61.9 81.6999 61.4 82.0999 60.8 82.6999C60.1 83.3999 59.5 84.1999 58.9 84.9999L12.9 133C12.2 133.7 12.3 134.8 13 135.5C13.3 135.8 13.8 136 14.2 136C14.7 136 15.1 135.8 15.5 135.5L55.3 93.9999C55.2 94.9999 55.1 95.9999 55.1 96.9999C55.1 99.7999 55.6 102.4 56.7 104.8C57.7 107.2 59.2 109.3 61 111.2C62.8 113 64.9 114.4 67.3 115.5C69.7 116.5 72.3 117.1 75.1 117.1C77.8 117.1 80.3 116.6 82.7 115.6C85.1 114.6 87.2 113.2 89 111.5L88.7 111.2C88.4 110.9 88 110.6 87.6 110.5C87.2 110.3 86.7 110.2 86.2 110.2C85.9 110.2 85.6 110.2 85.3 110.3C85 110.4 84.7 110.5 84.5 110.7C83.2 111.6 81.7 112.3 80.1 112.8C78.5 113.3 76.8 113.6 75.1 113.6C73.6 113.6 72.1 113.4 70.7 113C69.3 112.6 68 112 66.7 111.3C65.5 110.6 64.4 109.7 63.3 108.7C62.3 107.7 61.4 106.6 60.7 105.3C60 104.1 59.4 102.7 59 101.3C58.6 99.8999 58.4 98.3999 58.4 96.8999C58.4 95.3999 58.6 93.8999 59 92.4999C59.4 91.0999 60 89.7999 60.7 88.4999C60.9 88.1999 61.1 87.8999 61.2 87.5999L65.1 83.4999C65.6 83.0999 66.1 82.7999 66.6 82.4999C67.8 81.7999 69.1 81.1999 70.6 80.7999C72 80.3999 73.5 80.1999 75 80.1999C76.8 80.1999 78.5 80.4999 80 80.9999C81.6 81.4999 83 82.1999 84.4 83.1999C84.9 83.5999 85.5 83.6999 86.1 83.6999C86.6 83.6999 87 83.5999 87.4 83.3999C87.8 83.1999 88.2 82.9999 88.5 82.5999L88.8 82.3999C87 80.5999 84.9 79.2999 82.5 78.2999C80.2 77.2999 77.6 76.7999 74.9 76.7999C73.6 76.7999 72.3 76.8999 71.1 77.1999L142.2 3.09994C142.9 2.39994 142.8 1.29994 142.2 0.599942C141.6 -0.200058 140.5 -0.200058 139.8 0.499942ZM93.6 45.8999C93.2 47.2999 92.6 48.5999 91.9 49.8999C91.4 50.7999 90.8 51.6999 90.1 52.3999L89.1 53.3999C88.2 54.2999 87.1 55.0999 86 55.7999C84.8 56.4999 83.4 57.0999 82 57.4999C80.6 57.8999 79.1 58.0999 77.6 58.0999C76.1 58.0999 74.6 57.8999 73.2 57.4999C71.8 57.0999 70.5 56.4999 69.2 55.7999C68 55.0999 66.9 54.1999 65.8 53.1999C64.8 52.1999 63.9 51.0999 63.2 49.7999C62.5 48.5999 61.9 47.1999 61.5 45.7999C61.2 44.4999 61 42.9999 61 41.4999C61 39.9999 61.2 38.4999 61.6 37.0999C62 35.6999 62.6 34.3999 63.3 33.0999C64 31.8999 64.9 30.6999 65.9 29.6999C66.9 28.6999 68 27.7999 69.3 27.0999C70.5 26.3999 71.8 25.7999 73.3 25.3999C74.7 24.9999 76.2 24.7999 77.7 24.7999C80 24.7999 82.1 25.1999 84.2 26.0999C86.2 26.9999 88 28.1999 89.5 29.6999C91 31.1999 92.2 32.9999 93.1 34.9999C94 36.9999 94.4 39.1999 94.4 41.4999C94.2 42.9999 94 44.4999 93.6 45.8999Z" fill="white"/>
<path d="M136.1 82.6C134.3 80.8 132.2 79.4 129.7 78.3C127.3 77.3 124.7 76.7 121.9 76.7C119.1 76.7 116.5 77.2 114.1 78.3C111.7 79.3 109.6 80.8 107.7 82.6C105.9 84.4 104.4 86.5 103.4 89C102.4 91.4 101.8 94 101.8 96.8C101.8 99.6 102.3 102.2 103.4 104.6C104.4 107 105.9 109.1 107.7 111C109.5 112.8 111.6 114.2 114.1 115.3C116.5 116.3 119.1 116.9 121.9 116.9C124.7 116.9 127.3 116.4 129.7 115.3C132.1 114.3 134.2 112.8 136.1 111C137.9 109.2 139.3 107.1 140.4 104.6C141.4 102.2 142 99.6 142 96.8C142 94 141.5 91.4 140.4 89C139.4 86.5 137.9 84.4 136.1 82.6ZM138 101.1C137.6 102.5 137 103.8 136.3 105.1C135.6 106.3 134.7 107.5 133.7 108.5C132.7 109.5 131.6 110.4 130.3 111.1C129.1 111.8 127.7 112.4 126.3 112.8C124.9 113.2 123.4 113.4 121.9 113.4C120.4 113.4 118.9 113.2 117.5 112.8C116.1 112.4 114.8 111.8 113.5 111.1C112.3 110.4 111.2 109.5 110.1 108.5C109.1 107.5 108.2 106.4 107.5 105.1C106.8 103.9 106.2 102.5 105.8 101.1C105.4 99.7 105.2 98.2 105.2 96.7C105.2 95.2 105.4 93.7 105.8 92.3C106.2 90.9 106.8 89.6 107.5 88.3C108.2 87.1 109.1 85.9 110.1 84.9C111.1 83.9 112.2 83 113.5 82.3C114.7 81.6 116 81 117.5 80.6C118.9 80.2 120.4 80 121.9 80C124.2 80 126.3 80.4 128.4 81.3C130.4 82.2 132.2 83.4 133.7 84.9C135.2 86.4 136.4 88.2 137.3 90.2C138.2 92.2 138.6 94.4 138.6 96.7C138.6 98.3 138.4 99.7 138 101.1Z" fill="white"/>
<path d="M23 59.9C25.4 60.9 28 61.5 30.8 61.5C33.5 61.5 36.0001 61 38.4001 60C40.8001 59 42.9001 57.6 44.7001 55.9L44.4001 55.5999C44.1001 55.2999 43.7 55 43.3 54.9C42.9 54.7 42.4001 54.5999 41.9001 54.5999C41.6001 54.5999 41.3 54.6 41 54.7C40.7 54.8 40.4001 54.8999 40.2001 55.0999C38.9001 55.9999 37.4 56.7 35.8 57.2C34.2 57.7 32.5 58 30.8 58C29.3 58 27.8 57.8 26.4 57.4C25 57 23.7 56.4 22.4 55.7C21.2 55 20.1 54.0999 19 53.0999C18 52.0999 17.1 51 16.4 49.7C15.7 48.5 15.1 47.1 14.7 45.7C14.3 44.3 14.1 42.7999 14.1 41.2999C14.1 39.7999 14.3 38.3 14.7 36.9C15.1 35.5 15.7 34.2 16.4 32.9C17.1 31.7 18 30.5 19 29.5C20 28.5 21.1 27.6 22.4 26.9C23.6 26.2 24.9 25.6 26.4 25.2C27.8 24.8 29.3 24.6 30.8 24.6C32.6 24.6 34.3 24.9 35.8 25.4C37.4 25.9 38.8001 26.6 40.2001 27.6C40.7001 28 41.3001 28.1 41.9001 28.1C42.4001 28.1 42.8001 27.9999 43.2001 27.7999C43.6001 27.5999 44 27.4 44.3 27L44.6 26.7999C42.8 24.9999 40.7 23.7 38.3 22.7C36 21.7 33.4001 21.2 30.7001 21.2C28.0001 21.5 25.4 22 23 23C20.6 24 18.5 25.4999 16.7 27.2999C14.9 29.0999 13.5 31.2 12.4 33.7C11.4 36.1 10.8 38.7 10.8 41.5C10.8 44.3 11.3 46.8999 12.4 49.2999C13.4 51.6999 14.9 53.8 16.7 55.7C18.4 57.4 20.5 58.9 23 59.9Z" fill="white"/>
<path d="M18.8 161.6C19.8 161.6 20.6 162 21.2 162.8C21.3 163 21.5 163.1 21.7 163.1H21.8C21.9 163.1 22.1 163.1 22.2 163C22.4 162.9 22.5 162.7 22.5 162.5V162.4C22.5 162.2 22.5 162.1 22.4 162C21.5 160.8 20.3 160.1 18.8 160.1C17.6 160.1 16.5 160.5 15.6 161.4C14.7 162.3 14.3 163.4 14.3 164.6C14.3 165.8 14.7 166.9 15.6 167.8C16.5 168.7 17.5 169.1 18.8 169.1C20.3 169.1 21.5 168.5 22.4 167.2C22.5 167.1 22.5 166.9 22.5 166.8V166.7C22.5 166.5 22.4 166.3 22.2 166.2C22.1 166.1 21.9 166.1 21.8 166.1H21.7C21.5 166.1 21.3 166.2 21.2 166.4C20.6 167.2 19.8 167.6 18.8 167.6C18 167.6 17.3 167.3 16.7 166.7C16.1 166.1 15.8 165.4 15.8 164.6C15.8 163.8 16.1 163 16.7 162.5C17.3 161.9 18 161.6 18.8 161.6Z" fill="white"/>
<path d="M31 160.1C29.8 160.1 28.7 160.5 27.8 161.4C26.9 162.3 26.5 163.4 26.5 164.6C26.5 165.8 26.9 166.9 27.8 167.8C28.7 168.7 29.7 169.1 31 169.1C32.2 169.1 33.3 168.7 34.2 167.8C35.1 166.9 35.5 165.8 35.5 164.6C35.5 163.3 35.1 162.3 34.2 161.4C33.2 160.6 32.2 160.1 31 160.1ZM33.1 166.8C32.5 167.4 31.8 167.7 31 167.7C30.2 167.7 29.5 167.4 28.9 166.8C28.3 166.2 28 165.5 28 164.7C28 163.9 28.3 163.1 28.9 162.6C29.5 162 30.2 161.7 31 161.7C31.8 161.7 32.5 162 33.1 162.6C33.7 163.2 34 163.9 34 164.7C33.9 165.5 33.6 166.2 33.1 166.8Z" fill="white"/>
<path d="M43.1 160.1C41.9 160.1 40.8 160.5 39.9 161.4C39 162.3 38.6 163.4 38.6 164.6C38.6 165.8 39 166.9 39.9 167.8C40.8 168.7 41.8 169.1 43.1 169.1C44.3 169.1 45.4 168.7 46.3 167.8C47.2 166.9 47.6 165.8 47.6 164.6C47.6 163.3 47.2 162.3 46.3 161.4C45.4 160.6 44.3 160.1 43.1 160.1ZM45.2 166.8C44.6 167.4 43.9 167.7 43.1 167.7C42.3 167.7 41.6 167.4 41 166.8C40.4 166.2 40.1 165.5 40.1 164.7C40.1 163.9 40.4 163.1 41 162.6C41.6 162 42.3 161.7 43.1 161.7C43.9 161.7 44.6 162 45.2 162.6C45.8 163.2 46.1 163.9 46.1 164.7C46.1 165.5 45.8 166.2 45.2 166.8Z" fill="white"/>
<path d="M54.7001 164.5L58.2001 161.4C58.4001 161.3 58.4001 161.1 58.4001 160.9C58.4001 160.7 58.3001 160.5 58.2001 160.4C58.1001 160.2 57.9001 160.2 57.7001 160.1C57.5001 160.1 57.3001 160.2 57.2001 160.3L53.7001 163.4V157.7C53.7001 157.5 53.6 157.3 53.5 157.2C53.4 157.1 53.2 157 53 157C52.8 157 52.6 157.1 52.5 157.2C52.4 157.4 52.3 157.5 52.3 157.7V168.3C52.3 168.5 52.4 168.7 52.5 168.8C52.7 168.9 52.8 169 53 169C53.2 169 53.4 168.9 53.5 168.8C53.6 168.7 53.7001 168.5 53.7001 168.3V165.4L57.5 168.8C57.6 168.9 57.8 169 58 169C58.2 169 58.4 168.9 58.6 168.8C58.7 168.6 58.8 168.5 58.8 168.3C58.8 168.1 58.7 167.9 58.6 167.8L54.7001 164.5Z" fill="white"/>
<path d="M72.8001 160.1C72.7001 160.1 72.6 160.1 72.6 160.1C72.5 160.1 72.4001 160.1 72.3001 160.2C72.1001 160.3 72.0001 160.4 71.9001 160.6L70.2 165.9L68.5 160.6C68.4 160.3 68.2001 160.1 67.8001 160.1C67.4001 160.1 67.2 160.3 67.1 160.6L65.4001 165.9L63.7001 160.6C63.6001 160.4 63.5 160.3 63.3 160.2C63.2 160.1 63.1 160.1 63 160.1C62.9 160.1 62.8 160.1 62.8 160.1C62.6 160.2 62.5001 160.3 62.4001 160.5C62.3001 160.6 62.3 160.7 62.3 160.8C62.3 160.9 62.3 161 62.3 161L64.7 168.6C64.8 168.9 65.1001 169.1 65.4001 169.1C65.7001 169.1 66 168.9 66.1 168.6L67.8001 163.3L69.5 168.6C69.6 168.9 69.9 169.1 70.2 169.1C70.5 169.1 70.8001 168.9 70.9001 168.6L73.3001 161C73.3001 160.9 73.3001 160.8 73.3001 160.8C73.3001 160.7 73.3 160.6 73.2 160.5C73.1 160.3 73.0001 160.2 72.8001 160.1Z" fill="white"/>
<path d="M81.5 160.1C80.3 160.1 79.2 160.5 78.3 161.4C77.4 162.3 77 163.4 77 164.6C77 165.8 77.4 166.9 78.3 167.8C79.2 168.7 80.2 169.1 81.5 169.1C82.7 169.1 83.8 168.7 84.7 167.8C85.6 166.9 86 165.8 86 164.6C86 163.3 85.6 162.3 84.7 161.4C83.7 160.6 82.7 160.1 81.5 160.1ZM83.6 166.8C83 167.4 82.3 167.7 81.5 167.7C80.7 167.7 80 167.4 79.4 166.8C78.8 166.2 78.5 165.5 78.5 164.7C78.5 163.9 78.8 163.1 79.4 162.6C80 162 80.7 161.7 81.5 161.7C82.3 161.7 83 162 83.6 162.6C84.2 163.2 84.5 163.9 84.5 164.7C84.4 165.5 84.1 166.2 83.6 166.8Z" fill="white"/>
<path d="M94.6 160.1C93.6 160.1 92.7 160.5 91.9 161.2V160.9C91.9 160.7 91.8 160.5 91.7 160.4C91.6 160.2 91.4 160.2 91.2 160.2C91 160.2 90.8 160.3 90.7 160.4C90.6 160.5 90.5 160.7 90.5 160.9V168.5C90.5 168.7 90.6 168.9 90.7 169C90.8 169.1 91 169.2 91.2 169.2C91.4 169.2 91.6 169.1 91.7 169C91.8 168.9 91.9 168.7 91.9 168.5V164.7C91.9 163.9 92.2 163.1 92.7 162.6C93.2 162 93.8 161.7 94.6 161.7C94.8 161.7 95 161.6 95.1 161.5C95.2 161.4 95.3 161.2 95.3 161C95.3 160.8 95.2 160.6 95.1 160.5C95 160.2 94.8 160.1 94.6 160.1Z" fill="white"/>
<path d="M102.2 164.5L105.7 161.4C105.9 161.3 105.9 161.1 105.9 160.9C105.9 160.7 105.8 160.5 105.7 160.4C105.6 160.2 105.4 160.2 105.2 160.1C105 160.1 104.8 160.2 104.7 160.3L101.2 163.4V157.7C101.2 157.5 101.1 157.3 101 157.2C100.9 157.1 100.7 157 100.5 157C100.3 157 100.1 157.1 100 157.2C99.9 157.4 99.8 157.5 99.8 157.7V168.3C99.8 168.5 99.9 168.7 100 168.8C100.2 168.9 100.3 169 100.5 169C100.7 169 100.9 168.9 101 168.8C101.1 168.7 101.2 168.5 101.2 168.3V165.4L105 168.8C105.1 168.9 105.3 169 105.5 169C105.7 169 105.9 168.9 106.1 168.8C106.2 168.6 106.3 168.5 106.3 168.3C106.3 168.1 106.2 167.9 106.1 167.8L102.2 164.5Z" fill="white"/>
<path d="M111.3 160.1C111.1 160.1 110.9 160.2 110.8 160.3C110.7 160.4 110.6 160.6 110.6 160.8V168.4C110.6 168.6 110.7 168.8 110.8 168.9C110.9 169 111.1 169.1 111.3 169.1C111.5 169.1 111.7 169 111.8 168.9C111.9 168.8 112 168.6 112 168.4V160.8C112 160.6 111.9 160.4 111.8 160.3C111.7 160.2 111.5 160.1 111.3 160.1Z" fill="white"/>
<path d="M111.7 157.2C111.5 157.1 111.4 157.1 111.2 157.1C111 157.1 110.9 157.1 110.7 157.2C110.5 157.3 110.4 157.4 110.3 157.6C110.2 157.8 110.2 157.9 110.2 158.1C110.2 158.3 110.2 158.4 110.3 158.6C110.4 158.8 110.5 158.9 110.7 159C110.9 159.1 111 159.1 111.2 159.1C111.4 159.1 111.5 159.1 111.7 159C111.9 158.9 112 158.8 112.1 158.6C112.2 158.4 112.2 158.3 112.2 158.1C112.2 157.9 112.2 157.8 112.1 157.6C112 157.4 111.9 157.3 111.7 157.2Z" fill="white"/>
<path d="M121.4 160.1C120.4 160.1 119.5 160.5 118.7 161.2V160.9C118.7 160.7 118.6 160.5 118.5 160.4C118.4 160.2 118.2 160.2 118 160.2C117.8 160.2 117.6 160.3 117.5 160.4C117.4 160.5 117.3 160.7 117.3 160.9V168.5C117.3 168.7 117.4 168.9 117.5 169C117.6 169.1 117.8 169.2 118 169.2C118.2 169.2 118.4 169.1 118.5 169C118.6 168.9 118.7 168.7 118.7 168.5V164.7C118.7 163.9 119 163.1 119.5 162.6C120 162 120.6 161.7 121.4 161.7C122.1 161.7 122.8 162 123.3 162.6C123.8 163.2 124.1 163.9 124.1 164.7V168.5C124.1 168.7 124.2 168.9 124.3 169C124.4 169.1 124.6 169.2 124.8 169.2C125 169.2 125.2 169.1 125.3 169C125.4 168.9 125.5 168.7 125.5 168.5V164.7C125.5 163.4 125.1 162.4 124.3 161.5C123.5 160.5 122.5 160.1 121.4 160.1Z" fill="white"/>
<path d="M137.7 160.1C137.5 160.1 137.3 160.2 137.2 160.3C137.1 160.4 137 160.6 137 160.8V161.1C136.2 160.4 135.2 160 134 160C133.4 160 132.8 160.1 132.3 160.3C131.8 160.5 131.3 160.8 130.9 161.2C130.5 161.6 130.2 162.1 129.9 162.6C129.7 163.1 129.5 163.7 129.5 164.3C129.5 164.9 129.6 165.4 129.9 166C130.1 166.5 130.4 167 130.9 167.4C131.3 167.8 131.8 168.1 132.3 168.3C132.9 168.5 133.4 168.6 134 168.6C135.1 168.6 136.1 168.2 137 167.5V167.6C137 168.4 136.7 169.1 136.1 169.7C135.5 170.3 134.8 170.6 134 170.6C133 170.6 132.1 170.3 131.4 169.8C131.2 169.7 131 169.6 130.8 169.7C130.6 169.7 130.4 169.8 130.3 170C130.2 170.2 130.1 170.4 130.2 170.6C130.2 170.8 130.3 171 130.5 171.1C131.5 171.8 132.7 172.2 134 172.2C134.6 172.2 135.2 172.1 135.7 171.8C136.2 171.6 136.7 171.3 137.1 170.8C137.5 170.4 137.8 169.9 138.1 169.4C138.3 168.8 138.5 168.3 138.5 167.7V160.8C138.5 160.6 138.4 160.4 138.3 160.3C138 160.2 137.9 160.1 137.7 160.1ZM136 166.4C135.4 166.9 134.7 167.2 133.9 167.2C133.1 167.2 132.4 166.9 131.8 166.4C131.2 165.9 130.9 165.2 130.9 164.4C130.9 163.6 131.2 163 131.8 162.4C132.4 161.9 133.1 161.6 133.9 161.6C134.7 161.6 135.4 161.9 136 162.4C136.6 162.9 136.9 163.6 136.9 164.4C136.9 165.2 136.6 165.8 136 166.4Z" fill="white"/>
<path d="M151.6 165.7C152.208 165.7 152.7 165.208 152.7 164.6C152.7 163.992 152.208 163.5 151.6 163.5C150.992 163.5 150.5 163.992 150.5 164.6C150.5 165.208 150.992 165.7 151.6 165.7Z" fill="white"/>
<path d="M1.1 165.7C1.70751 165.7 2.2 165.208 2.2 164.6C2.2 163.992 1.70751 163.5 1.1 163.5C0.492487 163.5 0 163.992 0 164.6C0 165.208 0.492487 165.7 1.1 165.7Z" fill="white"/>
</g>
<defs>
<clipPath id="clip0">
<rect width="152.7" height="172.3" fill="white"/>
</clipPath>
</defs>
</svg>
