<svg width="90" height="115" viewBox="0 0 90 115" fill="none" xmlns="http://www.w3.org/2000/svg">
<path fill-rule="evenodd" clip-rule="evenodd" d="M54.7152 3.26485L45.7018 7.67274L36.088 3.09171C32.1303 1.20654 27.8503 4.98335 29.0843 9.27149L31.8918 19.0226H58.9999L61.7648 9.42198C63.0066 5.10956 58.676 1.32791 54.7152 3.26485Z" fill="white"/>
<path fill-rule="evenodd" clip-rule="evenodd" d="M54.7936 3.11949L51.9102 4.55825C52.887 5.80593 53.3402 7.51905 52.8291 9.33342L50.0942 19.0226H59.0319L61.7668 9.33342C62.9951 4.98122 58.7115 1.16468 54.7936 3.11949Z" fill="white"/>
<path fill-rule="evenodd" clip-rule="evenodd" d="M87.453 84.4679C87.453 108.28 68.4456 113.271 45.001 113.271C21.5547 113.271 2.54736 108.28 2.54736 84.4679C2.54736 60.6554 21.5547 32.8572 45.001 32.8572C68.4456 32.8572 87.453 60.6554 87.453 84.4679Z" fill="white"/>
<path fill-rule="evenodd" clip-rule="evenodd" d="M44.8098 32.8572C41.6677 32.8572 38.6087 33.3651 35.6602 34.279C54.8121 40.2172 69.1533 63.834 69.1533 84.4679C69.1533 105.103 54.8121 111.6 35.6602 112.968C38.6087 113.178 41.6677 113.271 44.8098 113.271C68.3614 113.271 87.4526 108.28 87.4526 84.4679C87.4526 60.6554 68.3614 32.8572 44.8098 32.8572Z" fill="#E53D32"/>
<mask id="mask0" mask-type="alpha" maskUnits="userSpaceOnUse" x="0" y="29" width="90" height="86">
<path d="M0 29.9457H89.6663V115H0V29.9457Z" fill="white"/>
</mask>
<g mask="url(#mask0)">
<path fill-rule="evenodd" clip-rule="evenodd" d="M44.8332 34.7087C22.6023 34.7087 4.70024 61.5972 4.70024 83.8601C4.70024 102.348 16.7035 110.237 44.8332 110.237C72.9645 110.237 84.9662 102.348 84.9662 83.8601C84.9662 61.5972 67.0641 34.7087 44.8332 34.7087ZM44.8332 115C23.9602 115 0 111.461 0 83.8601C0 71.6724 4.83891 58.1554 12.9452 47.7056C21.8293 36.2527 33.1535 29.9457 44.8332 29.9457C56.5129 29.9457 67.8372 36.2527 76.7212 47.7056C84.8275 58.1554 89.6664 71.6724 89.6664 83.8601C89.6664 111.461 65.7078 115 44.8332 115Z" fill="#333333"/>
</g>
<path fill-rule="evenodd" clip-rule="evenodd" d="M31.986 21.9855C30.4915 21.9855 29.2764 23.2107 29.2764 24.7175V26.2959C29.2764 27.8027 30.4915 29.0279 31.986 29.0279H57.1632C58.6576 29.0279 59.8744 27.8027 59.8744 26.2959V24.7175C59.8744 23.2107 58.6576 21.9855 57.1632 21.9855H31.986ZM57.1632 33.7218H31.986C27.9255 33.7218 24.6226 30.3899 24.6226 26.2959V24.7175C24.6226 20.6235 27.9255 17.2932 31.986 17.2932H57.1632C61.2237 17.2932 64.5282 20.6235 64.5282 24.7175V26.2959C64.5282 30.3899 61.2237 33.7218 57.1632 33.7218Z" fill="#E53D32"/>
<path fill-rule="evenodd" clip-rule="evenodd" d="M57.1648 33.7218H31.9876C27.9271 33.7218 24.6226 30.3896 24.6226 26.2952V24.7166C24.6226 20.6238 27.9271 17.2932 31.9876 17.2932H57.1648C61.2252 17.2932 64.5282 20.6238 64.5282 24.7166V26.2952C64.5282 30.3896 61.2252 33.7218 57.1648 33.7218Z" fill="#332E13"/>
<path fill-rule="evenodd" clip-rule="evenodd" d="M32.4236 21.6166C30.9307 21.6166 29.7168 22.82 29.7168 24.3V25.8504C29.7168 27.3305 30.9307 28.5339 32.4236 28.5339H57.5745C59.0674 28.5339 60.2828 27.3305 60.2828 25.8504V24.3C60.2828 22.82 59.0674 21.6166 57.5745 21.6166H32.4236Z" fill="white"/>
<mask id="mask1" mask-type="alpha" maskUnits="userSpaceOnUse" x="26" y="0" width="39" height="22">
<path d="M26.3755 0.310791H64.5379V21.3513H26.3755V0.310791Z" fill="white"/>
</mask>
<g mask="url(#mask1)">
<path fill-rule="evenodd" clip-rule="evenodd" d="M33.5429 16.6157H57.4129L59.7083 8.78418C60.0259 7.69865 59.7051 6.61153 58.8479 5.87607C57.9923 5.14222 56.8734 4.99288 55.8582 5.48265H55.8566L46.7501 9.85524C46.1164 10.162 45.3789 10.1636 44.7436 9.86649L35.0306 5.32046C34.0138 4.84675 32.9012 5.00252 32.0536 5.73637C31.206 6.47182 30.8884 7.55574 31.2045 8.63644L33.5429 16.6157ZM59.1719 21.3512H31.7839C30.74 21.3512 29.8221 20.6607 29.5268 19.6522L26.6903 9.97568C25.8475 7.1029 26.7254 4.10327 28.9809 2.14901C31.2364 0.193143 34.3155 -0.238817 37.0163 1.02816L45.7237 5.10208L53.8294 1.20801C56.5318 -0.0894778 59.6237 0.318396 61.9015 2.27265C64.1809 4.22691 65.07 7.23618 64.2224 10.1234L61.4306 19.6522C61.1353 20.6607 60.2159 21.3512 59.1719 21.3512Z" fill="#332E13"/>
</g>
<path fill-rule="evenodd" clip-rule="evenodd" d="M52.1702 68.1407C51.1135 66.4026 48.107 65.0693 45.3047 65.0693C41.9336 65.0693 38.8444 66.0399 38.8444 68.8678C38.8444 71.5361 42.0551 72.0214 45.4668 72.4245C51.3987 73.1516 57.7359 74.2028 57.7359 81.3145C57.7359 86.772 53.1459 89.8418 48.107 90.2061V94.2481H42.9481V90.4093C38.3987 90.0046 34.1734 87.9425 32.2642 83.4975L37.0567 81.4773C38.154 84.0634 41.7699 85.7208 45.1426 85.7208C48.799 85.7208 52.1702 84.4681 52.1702 81.3145C52.1702 78.6478 48.799 77.6788 45.0211 77.2338C39.2107 76.5873 33.5235 75.5764 33.5235 68.8678C33.5235 63.5747 38.235 61.1499 42.9481 60.584V57.0676H48.107V60.584C51.5608 61.1096 54.7294 62.4026 56.5576 66.1205L52.1702 68.1407Z" fill="#E53D32"/>
</svg>
