<svg width="44" height="72" viewBox="0 0 44 72" fill="none" xmlns="http://www.w3.org/2000/svg">
<g clip-path="url(#clip0)">
<path d="M13.7412 66.2231H6.93994V70.591H13.7412V66.2231Z" fill="#FFA588"/>
<path d="M2 58.4285V60.9999C2 63.8571 4.32177 66.1428 7.22397 66.1428H39.8738C42.776 66.1428 45.0978 63.8571 45.0978 60.9999V58.4285H2Z" fill="#DFDFDF"/>
<path d="M37.0601 66.2231H30.2588V70.591H37.0601V66.2231Z" fill="#FFA588"/>
<path d="M42.6122 25.5029H1.38818V58.7554H42.6122V25.5029Z" fill="white"/>
<path d="M42.6122 6.48147C42.6122 3.66346 40.3913 1.40906 37.6153 1.40906H6.38503C3.609 1.40906 1.38818 3.66346 1.38818 6.48147V25.503H42.6122V6.48147Z" fill="white"/>
<path d="M37.6151 0H6.38486C2.77603 0 0 2.818 0 6.48141V61.2916C0 64.5323 2.35962 67.2094 5.55205 67.6321V70.7319C5.55205 71.5773 6.10725 72.1409 6.94006 72.1409H13.7413C14.5741 72.1409 15.1293 71.5773 15.1293 70.7319V67.6321H28.8707V70.591C28.8707 71.4364 29.4259 72 30.2587 72H37.0599C37.8927 72 38.4479 71.4364 38.4479 70.591V67.6321C41.5016 67.2094 44 64.5323 44 61.2916V6.48141C44 2.818 41.0852 0 37.6151 0ZM2.77603 26.9119L37.5413 26.9162C35.8769 27.1208 41.3761 25.7727 37.1376 26.9119C40.5688 26.9119 40.1651 26.7955 38.4479 26.9119L39.156 26.9162L41.0852 26.9119V57.3464H2.77603V26.9119ZM2.77603 6.48141C2.77603 4.36791 4.30284 2.818 6.38486 2.818H37.6151C39.5584 2.818 41.224 4.36791 41.224 6.48141V24.0939H38.8643H36.0883C34.3119 25.3636 35.2268 25.9778 35.3211 25.9773C34.4883 25.9773 35.5229 26.0665 35.5229 26.9119L36.0883 24.0939H2.77603V6.48141ZM12.3533 69.182H8.32807V67.6321H12.3533V69.182ZM35.6719 69.182H31.6467V67.6321H35.6719V69.182ZM41.224 61.2916C41.224 63.2642 39.6972 64.955 37.6151 64.955H6.38486C4.30284 64.8141 2.77603 63.2642 2.77603 61.2916V60.1644H41.224V61.2916Z" fill="#323232"/>
<line x1="2.01855" y1="38.5909" x2="41.5782" y2="38.5909" stroke="#323232" stroke-width="3"/>
<line x1="2.01855" y1="12" x2="41.5782" y2="12" stroke="#323232" stroke-width="3"/>
</g>
<defs>
<clipPath id="clip0">
<rect width="44" height="72" fill="white"/>
</clipPath>
</defs>
</svg>
