<svg width="46" height="74" viewBox="0 0 46 74" fill="none" xmlns="http://www.w3.org/2000/svg">
<g clip-path="url(#clip0)">
<path d="M14.3654 67.385H7.25439V71.8307H14.3654V67.385V67.385Z" fill="#FFA588"/>
<path d="M38.7453 67.385H31.6343V71.8307H38.7453V67.385Z" fill="#FFA588"/>
<path d="M2 60.4285V62.9999C2 65.8571 4.32177 68.1428 7.22397 68.1428H39.8738C42.776 68.1428 45.0978 65.8571 45.0978 62.9999V60.4285H2Z" fill="#DFDFDF"/>
<path d="M44.5482 25.95H1.45166V59.784H44.5482V25.95Z" fill="white"/>
<path d="M44.5482 6.5937C44.5482 3.72563 42.2271 1.43201 39.3236 1.43201H6.67625C3.77276 1.43201 1.45166 3.72563 1.45166 6.5937V25.95H44.5482V6.5937Z" fill="white"/>
<path d="M21.6198 32.1149H10.1578C8.70603 32.1149 7.68896 33.2638 7.68896 34.5542V36.4191C7.68896 37.4223 8.55832 38.2839 9.57539 38.2839H11.8965C12.9136 38.2839 13.7829 37.4223 13.7829 36.4191H21.6198V32.1149Z" fill="#FFA588"/>
<path d="M11.9007 39.7159H9.43192C7.68898 39.7159 6.09375 38.284 6.09375 36.4191V34.5543C6.09375 32.4022 7.83669 30.683 10.0101 30.683H21.4721C22.3415 30.683 22.9238 31.2574 22.9238 32.1149V36.415C22.9238 37.2766 22.3415 37.8469 21.4721 37.8469H14.6565C14.2218 38.9958 13.0613 39.7159 11.9007 39.7159ZM10.1578 33.5511C9.5754 33.5511 9.14072 33.9798 9.14072 34.5543V36.4191C9.14072 36.5607 9.28421 36.8479 9.5754 36.8479H11.8965C12.04 36.8479 12.3312 36.7063 12.3312 36.4191C12.3312 35.5575 12.9136 34.9872 13.7829 34.9872H20.1681V33.5511H10.1578Z" fill="#323232"/>
<path d="M39.3237 0H6.67633C2.90349 0 0 2.86807 0 6.59365V62.3649C0 65.6617 2.46881 68.3883 5.80275 68.817V71.9723C5.80275 72.834 6.38514 73.4043 7.2545 73.4043H14.3655C15.2349 73.4043 15.8172 72.8298 15.8172 71.9723V68.817H30.1828V71.8266C30.1828 72.6883 30.7651 73.2586 31.6345 73.2586H38.7455C39.6149 73.2586 40.1972 72.6841 40.1972 71.8266V68.817C43.3877 68.3883 46 65.6617 46 62.3649V6.59365C46 2.86807 42.953 0 39.3237 0ZM2.90349 27.3819H20.316H37.7284V46.8798C37.7284 47.7415 38.3108 48.3118 39.1802 48.3118C40.0495 48.3118 40.6319 47.7373 40.6319 46.8798V27.3819H42.953V58.3521H2.90349V27.3819ZM2.90349 6.59365C2.90349 4.44155 4.49872 2.86807 6.67633 2.86807H39.3279C41.3578 2.86807 43.1007 4.44572 43.1007 6.59365L42.9572 22.6865C42.9572 21.8248 42.9572 23.7271 42.9572 23.7271C48.3253 40.6442 44.9492 22.2702 42.9572 23.7271V22.6865V27.3819H2.90349V24.518V6.59365ZM12.9138 70.3947H8.70624V68.817H12.9138V70.3947ZM37.2938 70.3947H33.0862V68.817H37.2938V70.3947ZM43.0965 62.3649C43.0965 64.3713 41.5013 66.0946 39.3237 66.0946H6.67633C4.49872 65.9489 2.90349 64.3755 2.90349 62.3649V61.216H43.1007V62.3649H43.0965Z" fill="#323232"/>
<path d="M32.4996 17.1127H33.0862C33.4618 17.1127 33.7657 16.813 33.7657 16.4425C33.7657 16.072 33.4618 15.7723 33.0862 15.7723H32.4996L33.6306 14.2446C33.8501 13.9449 33.7868 13.5287 33.4829 13.3122C33.1791 13.0957 32.7571 13.1582 32.5334 13.4579L30.8158 15.7765H27.5409C27.4354 15.1396 27.1822 14.5485 26.8108 14.0448L29.1277 11.7595L32.0059 12.2008C32.0396 12.2049 32.0776 12.2091 32.1114 12.2091C32.4405 12.2091 32.7275 11.9718 32.7824 11.643C32.8415 11.2767 32.5882 10.9353 32.2169 10.8812L30.322 10.5898L30.7356 10.1819C31.0015 9.91964 31.0015 9.49505 30.7356 9.23697C30.4697 8.97472 30.0435 8.97472 29.7776 9.23697L29.364 9.64491L29.0686 7.77588C29.0095 7.40956 28.6677 7.16397 28.2963 7.21808C27.9249 7.27636 27.6717 7.61769 27.7308 7.97985L28.1782 10.8146L25.8613 13.0999C25.3506 12.7378 24.7514 12.488 24.1057 12.3798V9.14955L26.4563 7.45535C26.7602 7.23889 26.8235 6.81846 26.604 6.52292C26.3846 6.22321 25.9583 6.16077 25.6545 6.37722L24.1057 7.49282V6.91421C24.1057 6.54373 23.8018 6.24402 23.4262 6.24402C23.0506 6.24402 22.7468 6.54373 22.7468 6.91421V7.49282L21.198 6.37722C20.8941 6.16077 20.4721 6.22321 20.2526 6.52292C20.0332 6.82263 20.0965 7.23889 20.4004 7.45535L22.751 9.14955V12.3798C22.1053 12.4838 21.506 12.7336 20.9954 13.0999L18.6785 10.8146L19.1259 7.97568C19.1849 7.60937 18.9317 7.26803 18.5604 7.21392C18.1932 7.1598 17.8429 7.4054 17.7881 7.77171L17.4926 9.64075L17.0791 9.23281C16.8132 8.97056 16.387 8.97056 16.1211 9.23281C15.8552 9.49505 15.8552 9.91964 16.1211 10.1777L16.5347 10.5857L14.6398 10.8771C14.2684 10.9353 14.0152 11.2767 14.0743 11.6388C14.1249 11.9677 14.4161 12.2049 14.7453 12.2049C14.7791 12.2049 14.8128 12.2008 14.8508 12.1966L17.729 11.7554L20.0459 14.0407C19.6787 14.5444 19.4255 15.1354 19.3158 15.7723H16.0409L14.3233 13.4537C14.1038 13.154 13.6776 13.0916 13.378 13.308C13.0741 13.5245 13.0108 13.9449 13.2303 14.2405L14.3613 15.7682H13.7747C13.3991 15.7682 13.0952 16.0679 13.0952 16.4384C13.0952 16.8088 13.3991 17.1085 13.7747 17.1085H14.3613L13.2303 18.6362C13.0108 18.936 13.0741 19.3522 13.378 19.5728C13.5004 19.6603 13.6396 19.7019 13.7789 19.7019C13.9857 19.7019 14.1925 19.6061 14.3275 19.4271L16.0451 17.1085H19.32C19.4255 17.7454 19.6787 18.3365 20.0501 18.8402L17.7332 21.1255L14.855 20.6843C14.4879 20.6302 14.1376 20.8758 14.0827 21.2421C14.0237 21.6084 14.2769 21.9497 14.6482 22.0038L16.5431 22.2952L16.1295 22.7032C15.8637 22.9654 15.8637 23.3858 16.1295 23.6481C16.2604 23.7771 16.4376 23.8437 16.6106 23.8437C16.7837 23.8437 16.9567 23.7771 17.0917 23.6481L17.5053 23.2401L17.8007 25.1092C17.8514 25.438 18.1426 25.6753 18.4717 25.6753C18.5055 25.6753 18.5435 25.6711 18.5772 25.667C18.9486 25.6087 19.2018 25.2674 19.1427 24.9052L18.6954 22.0704L21.0123 19.7851C21.5229 20.1473 22.1222 20.397 22.7679 20.5053V23.7355L20.4172 25.4297C20.1134 25.6462 20.0501 26.0666 20.2695 26.3663C20.4004 26.5453 20.6071 26.641 20.8182 26.641C20.9574 26.641 21.0967 26.5994 21.2191 26.512L22.7679 25.3964V25.975C22.7679 26.3455 23.0717 26.6452 23.4473 26.6452C23.8229 26.6452 24.1268 26.3455 24.1268 25.975V25.3964L25.6756 26.512C25.7684 26.5994 25.9077 26.641 26.047 26.641C26.2537 26.641 26.4605 26.5453 26.5956 26.3663C26.815 26.0666 26.7517 25.6503 26.4479 25.4297L24.0972 23.7355V20.5053C24.7429 20.4012 25.3422 20.1514 25.8528 19.7851L28.1697 22.0704L27.7224 24.9052C27.6633 25.2715 27.9165 25.6129 28.2879 25.667C28.3216 25.6711 28.3596 25.6753 28.3934 25.6753C28.7226 25.6753 29.0095 25.438 29.0644 25.1092L29.3598 23.2401L29.7734 23.6481C29.9042 23.7771 30.0815 23.8437 30.2545 23.8437C30.4275 23.8437 30.6005 23.7771 30.7356 23.6481C31.0015 23.3858 31.0015 22.9654 30.7356 22.7032L30.322 22.2952L32.2169 22.0038C32.5882 21.9456 32.8415 21.6042 32.7824 21.2421C32.7233 20.8758 32.3815 20.6302 32.0101 20.6843L29.1319 21.1255L26.815 18.8402C27.1822 18.3365 27.4354 17.7454 27.5451 17.1085H30.82L32.5376 19.4271C32.6684 19.6061 32.8752 19.7019 33.0862 19.7019C33.2255 19.7019 33.3648 19.6603 33.4871 19.5728C33.791 19.3564 33.8543 18.936 33.6349 18.6362L32.4996 17.1127ZM23.422 19.2273C21.8648 19.2273 20.5987 17.9785 20.5987 16.4425C20.5987 14.9065 21.8648 13.6577 23.422 13.6577C24.9793 13.6577 26.2453 14.9065 26.2453 16.4425C26.2453 17.9785 24.9793 19.2273 23.422 19.2273Z" fill="#323232"/>
</g>
<defs>
<clipPath id="clip0">
<rect width="46" height="73.4043" fill="white"/>
</clipPath>
</defs>
</svg>
