<svg width="46" height="73" viewBox="0 0 46 73" fill="none" xmlns="http://www.w3.org/2000/svg">
<g clip-path="url(#clip0)">
<path d="M14.3658 67.1428H7.25537V71.5714H14.3658V67.1428Z" fill="#FFA588"/>
<path d="M38.7447 67.1428H31.6343V71.5714H38.7447V67.1428Z" fill="#FFA588"/>
<path d="M1.45117 59.4285V61.9999C1.45117 64.8571 3.77294 67.1428 6.67515 67.1428H39.325C42.2272 67.1428 44.549 64.8571 44.549 61.9999V59.4285H1.45117Z" fill="#DFDFDF"/>
<path d="M44.549 25.8571H1.45117V59.5713H44.549V25.8571Z" fill="white"/>
<path d="M44.549 6.57145C44.549 3.7143 42.2272 1.42859 39.325 1.42859H6.67515C3.77294 1.42859 1.45117 3.7143 1.45117 6.57145V25.8572H44.549V6.57145Z" fill="white"/>
<path d="M21.186 14H9.72225C8.27114 14 7.25537 15.1429 7.25537 16.4286V18.2857C7.25537 19.2857 8.12603 20.1429 9.14181 20.1429H11.4636C12.4793 20.1429 13.35 19.2857 13.35 18.2857H21.186V14V14Z" fill="#FFA588"/>
<path d="M11.464 21.5715H9.14223C7.4009 21.5715 5.80469 20.143 5.80469 18.2858V16.4287C5.80469 14.2858 7.54601 12.5715 9.72267 12.5715H21.1864C22.0571 12.5715 22.6375 13.143 22.6375 14.0001V18.2858C22.6375 19.143 22.0571 19.7144 21.1864 19.7144H14.3662C13.9309 20.8572 12.77 21.5715 11.464 21.5715ZM9.72267 15.4287C9.14223 15.4287 8.7069 15.8572 8.7069 16.4287V18.2858C8.7069 18.4287 8.85201 18.7144 9.14223 18.7144H11.464C11.6091 18.7144 11.8993 18.5715 11.8993 18.2858C11.8993 17.4287 12.4798 16.8572 13.3504 16.8572H19.7353V15.4287H9.72267Z" fill="#323232"/>
<path d="M21.6215 32H10.1578C8.70669 32 7.69092 33.1429 7.69092 34.4286V36.2857C7.69092 37.2857 8.56158 38.1429 9.57735 38.1429H11.8991C12.9149 38.1429 13.7856 37.2857 13.7856 36.2857H21.6215V32Z" fill="#FFA588"/>
<path d="M11.8991 39.5714H9.43227C7.69094 39.5714 6.09473 38.1428 6.09473 36.2857V34.4286C6.09473 32.2857 7.83605 30.5714 10.0127 30.5714H21.4764C22.3471 30.5714 22.9275 31.1428 22.9275 32V36.2857C22.9275 37.1428 22.3471 37.7143 21.4764 37.7143H14.6562C14.2209 38.8571 13.06 39.5714 11.8991 39.5714ZM10.1578 33.4286C9.57738 33.4286 9.14205 33.8571 9.14205 34.4286V36.2857C9.14205 36.4286 9.28716 36.7143 9.57738 36.7143H11.8991C12.0443 36.7143 12.3345 36.5714 12.3345 36.2857C12.3345 35.4286 12.9149 34.8571 13.7856 34.8571H20.1704V33.4286H10.1578Z" fill="#323232"/>
<path d="M39.3249 0H6.67508C2.90221 0 0 2.85714 0 6.57143V62.1429C0 65.4286 2.46688 68.1429 5.80442 68.5714V71.7143C5.80442 72.5714 6.38486 73.1429 7.25552 73.1429H14.3659C15.2366 73.1429 15.817 72.5714 15.817 71.7143V68.5714H30.183V71.5714C30.183 72.4286 30.7634 73 31.6341 73H38.7445C39.6151 73 40.1956 72.4286 40.1956 71.5714V68.5714C43.388 68.1429 46 65.4286 46 62.1429V6.57143C46 2.85714 42.9527 0 39.3249 0ZM2.90221 27.2857H37.7287V46.7143C37.7287 47.5714 38.3091 48.1429 39.1798 48.1429C40.0505 48.1429 40.6309 47.5714 40.6309 46.7143V27.2857H42.9527V58.1429H2.90221V27.2857ZM2.90221 6.57143C2.90221 4.42857 4.49842 2.85714 6.67508 2.85714H39.3249C41.3565 2.85714 43.0978 4.42857 43.0978 6.57143V24.4286H40.6309V7.57143C40.6309 6.71429 40.0505 6.14286 39.1798 6.14286C38.3091 6.14286 37.7287 6.71429 37.7287 7.57143V24.4286H2.90221V6.57143ZM12.9148 70.1429H8.70662V68.5714H12.9148V70.1429ZM37.2934 70.1429H33.0852V68.5714H37.2934V70.1429ZM43.0978 62.1429C43.0978 64.1429 41.5016 65.8571 39.3249 65.8571H6.67508C4.49842 65.7143 2.90221 64.1429 2.90221 62.1429V61H43.0978V62.1429Z" fill="#323232"/>
</g>
<defs>
<clipPath id="clip0">
<rect width="46" height="73" fill="white"/>
</clipPath>
</defs>
</svg>
