<svg width="40" height="42" viewBox="0 0 40 42" fill="none" xmlns="http://www.w3.org/2000/svg">
<g clip-path="url(#clip0)">
<path d="M20 36.5218V30.4348" stroke="black" stroke-miterlimit="10" stroke-linecap="round" stroke-linejoin="round"/>
<path d="M30.435 28.6957C30.435 29.6522 29.6524 30.4348 28.6959 30.4348H11.3046C10.348 30.4348 9.56543 29.6522 9.56543 28.6957V26.087C9.56543 25.1305 10.348 24.3479 11.3046 24.3479C17.2872 23.1826 23.0959 23.1826 28.6959 24.3479C29.6524 24.3479 30.435 25.1305 30.435 26.087V28.6957Z" stroke="black" stroke-miterlimit="10" stroke-linejoin="round"/>
<path d="M30.4351 26.9565H33.9133L35.6524 16.5217" stroke="black" stroke-miterlimit="10" stroke-linejoin="round"/>
<path d="M32.1738 16.5217H39.1303C39.1303 14.6087 37.5651 13.0435 35.6521 13.0435C33.739 13.0435 32.1738 14.6087 32.1738 16.5217Z" stroke="#FFA588" stroke-miterlimit="10" stroke-linejoin="round"/>
<path d="M9.56505 26.9565H6.08679L4.34766 16.5217" stroke="black" stroke-miterlimit="10" stroke-linejoin="round"/>
<path d="M7.82615 16.5217H0.869629C0.869629 14.6087 2.43485 13.0435 4.34789 13.0435C6.26093 13.0435 7.82615 14.6087 7.82615 16.5217Z" stroke="#FFA588" stroke-miterlimit="10" stroke-linejoin="round"/>
<path d="M13.9133 23.4783C13.9133 23.4783 9.56543 11.3044 9.56543 9.56522C9.58282 5.21739 13.6002 1.37392 18.1741 0.956524C18.748 0.904351 19.3567 0.869568 20.0002 0.869568C20.6437 0.869568 21.235 0.904351 21.8263 0.956524C26.4002 1.37392 30.435 5.21739 30.435 9.56522C30.435 11.3044 26.0872 23.4783 26.0872 23.4783" stroke="black" stroke-miterlimit="10" stroke-linejoin="round"/>
<path d="M19.9999 40.8696C20.9604 40.8696 21.739 40.0909 21.739 39.1304C21.739 38.1699 20.9604 37.3913 19.9999 37.3913C19.0394 37.3913 18.2607 38.1699 18.2607 39.1304C18.2607 40.0909 19.0394 40.8696 19.9999 40.8696Z" stroke="black" stroke-miterlimit="10" stroke-linecap="round" stroke-linejoin="round"/>
<path d="M28.6957 40.8696C29.6562 40.8696 30.4348 40.0909 30.4348 39.1304C30.4348 38.1699 29.6562 37.3913 28.6957 37.3913C27.7352 37.3913 26.9565 38.1699 26.9565 39.1304C26.9565 40.0909 27.7352 40.8696 28.6957 40.8696Z" stroke="black" stroke-miterlimit="10" stroke-linecap="round" stroke-linejoin="round"/>
<path d="M11.3046 40.8696C12.2651 40.8696 13.0437 40.0909 13.0437 39.1304C13.0437 38.1699 12.2651 37.3913 11.3046 37.3913C10.3441 37.3913 9.56543 38.1699 9.56543 39.1304C9.56543 40.0909 10.3441 40.8696 11.3046 40.8696Z" stroke="black" stroke-miterlimit="10" stroke-linecap="round" stroke-linejoin="round"/>
<path d="M11.3042 37.3913C11.3042 37.3913 13.9129 33.913 19.9999 33.913C26.0868 33.913 28.6955 37.3913 28.6955 37.3913" stroke="black" stroke-miterlimit="10" stroke-linecap="round" stroke-linejoin="round"/>
</g>
<defs>
<clipPath id="clip0">
<rect width="40" height="41.7391" fill="white"/>
</clipPath>
</defs>
</svg>
