<svg width="938" height="247" viewBox="0 0 938 247" fill="none" xmlns="http://www.w3.org/2000/svg">
<ellipse cx="152.5" cy="50" rx="50.5" ry="50" fill="white"/>
<path d="M202 50C202 77.0526 179.847 99 152.5 99C125.153 99 103 77.0526 103 50C103 22.9474 125.153 1 152.5 1C179.847 1 202 22.9474 202 50Z" stroke="black" stroke-opacity="0.8" stroke-width="2"/>
<path d="M143.552 64H161.936V59.488H155.936V33.472H151.808C149.888 34.624 147.776 35.392 144.752 35.968V39.424H150.368V59.488H143.552V64Z" fill="#FFA588"/>
<path d="M79.9225 134.804H83.2345C86.4745 134.804 88.2025 135.74 88.2025 138.44C88.2025 141.104 86.4745 142.472 83.2345 142.472H79.9225V134.804ZM93.2425 155L87.6265 145.172C90.4705 144.2 92.3425 142.04 92.3425 138.44C92.3425 133.184 88.5625 131.456 83.6665 131.456H75.7465V155H79.9225V145.784H83.4865L88.5625 155H93.2425ZM96.0843 146.18C96.0843 152.012 99.9003 155.432 104.796 155.432C107.028 155.432 109.152 154.64 110.844 153.524L109.44 150.932C108.144 151.76 106.848 152.228 105.336 152.228C102.492 152.228 100.476 150.428 100.116 147.224H111.348C111.456 146.792 111.528 146.072 111.528 145.28C111.528 140.348 109.008 136.892 104.22 136.892C100.08 136.892 96.0843 140.42 96.0843 146.18ZM100.08 144.596C100.44 141.644 102.24 140.096 104.328 140.096C106.74 140.096 107.928 141.788 107.928 144.596H100.08ZM120.162 155H124.95L130.962 137.324H126.966L124.158 146.504C123.654 148.232 123.15 150.032 122.646 151.832H122.502C122.034 150.032 121.494 148.232 121.026 146.504L118.218 137.324H114.006L120.162 155ZM136.835 134.228C138.311 134.228 139.391 133.256 139.391 131.888C139.391 130.484 138.311 129.512 136.835 129.512C135.359 129.512 134.279 130.484 134.279 131.888C134.279 133.256 135.359 134.228 136.835 134.228ZM134.747 155H138.887V137.324H134.747V155ZM143.124 152.984C144.852 154.388 147.408 155.432 149.82 155.432C154.284 155.432 156.696 152.984 156.696 149.96C156.696 146.648 154.032 145.496 151.62 144.596C149.712 143.912 147.948 143.336 147.948 141.968C147.948 140.852 148.776 140.024 150.54 140.024C151.944 140.024 153.204 140.636 154.428 141.536L156.336 139.016C154.896 137.9 152.916 136.892 150.468 136.892C146.508 136.892 144.024 139.088 144.024 142.184C144.024 145.136 146.652 146.468 148.992 147.332C150.864 148.052 152.772 148.7 152.772 150.176C152.772 151.4 151.872 152.3 149.964 152.3C148.164 152.3 146.652 151.544 145.068 150.32L143.124 152.984ZM160.356 150.248C160.356 153.344 162.516 155.432 165.612 155.432C167.7 155.432 169.5 154.388 171.084 153.056H171.192L171.516 155H174.9V144.524C174.9 139.592 172.74 136.892 168.312 136.892C165.504 136.892 163.02 137.972 161.076 139.196L162.588 141.968C164.136 141.032 165.792 140.24 167.556 140.24C169.932 140.24 170.724 141.824 170.76 143.696C163.524 144.488 160.356 146.468 160.356 150.248ZM164.388 149.924C164.388 148.16 165.972 146.9 170.76 146.288V150.248C169.464 151.472 168.348 152.192 166.908 152.192C165.432 152.192 164.388 151.508 164.388 149.924ZM188.779 150.464C188.779 153.524 189.859 155.432 192.811 155.432C193.783 155.432 194.503 155.288 195.007 155.072L194.467 151.976C194.143 152.048 193.999 152.048 193.819 152.048C193.387 152.048 192.919 151.688 192.919 150.68V129.584H188.779V150.464ZM198.12 146.18C198.12 152.048 202.116 155.432 206.508 155.432C210.936 155.432 214.932 152.048 214.932 146.18C214.932 140.276 210.936 136.892 206.508 136.892C202.116 136.892 198.12 140.276 198.12 146.18ZM202.368 146.18C202.368 142.616 203.916 140.276 206.508 140.276C209.1 140.276 210.684 142.616 210.684 146.18C210.684 149.708 209.1 152.048 206.508 152.048C203.916 152.048 202.368 149.708 202.368 146.18ZM217.846 152.984C219.574 154.388 222.13 155.432 224.542 155.432C229.006 155.432 231.418 152.984 231.418 149.96C231.418 146.648 228.754 145.496 226.342 144.596C224.434 143.912 222.67 143.336 222.67 141.968C222.67 140.852 223.498 140.024 225.262 140.024C226.666 140.024 227.926 140.636 229.15 141.536L231.058 139.016C229.618 137.9 227.638 136.892 225.19 136.892C221.23 136.892 218.746 139.088 218.746 142.184C218.746 145.136 221.374 146.468 223.714 147.332C225.586 148.052 227.494 148.7 227.494 150.176C227.494 151.4 226.594 152.3 224.686 152.3C222.886 152.3 221.374 151.544 219.79 150.32L217.846 152.984ZM70.3568 195.024C70.3568 198.84 71.8688 201.432 75.9728 201.432C77.3768 201.432 78.6008 201.108 79.5728 200.784L78.8528 197.724C78.3488 197.94 77.6288 198.12 77.0168 198.12C75.3248 198.12 74.5328 197.112 74.5328 195.024V186.6H79.0328V183.324H74.5328V178.5H71.0768L70.5728 183.324L67.8368 183.504V186.6H70.3568V195.024ZM81.969 192.18C81.969 198.012 85.785 201.432 90.6811 201.432C92.9131 201.432 95.0371 200.64 96.7291 199.524L95.3251 196.932C94.0291 197.76 92.733 198.228 91.221 198.228C88.3771 198.228 86.361 196.428 86.0011 193.224H97.2331C97.3411 192.792 97.4131 192.072 97.4131 191.28C97.4131 186.348 94.893 182.892 90.1051 182.892C85.965 182.892 81.969 186.42 81.969 192.18ZM85.965 190.596C86.325 187.644 88.1251 186.096 90.2131 186.096C92.6251 186.096 93.813 187.788 93.813 190.596H85.965ZM94.8211 175.116H90.6811L87.477 180.372H90.5371L94.8211 175.116ZM102.087 201H106.227V190.2C107.307 187.536 108.999 186.564 110.403 186.564C111.159 186.564 111.627 186.672 112.239 186.852L112.959 183.252C112.419 183 111.843 182.892 110.943 182.892C109.071 182.892 107.199 184.152 105.939 186.456H105.795L105.507 183.324H102.087V201ZM116.237 201H120.377V188.652C121.745 187.176 123.005 186.456 124.085 186.456C125.957 186.456 126.821 187.536 126.821 190.452V201H130.961V188.652C132.329 187.176 133.553 186.456 134.669 186.456C136.505 186.456 137.369 187.536 137.369 190.452V201H141.545V189.912C141.545 185.448 139.817 182.892 136.073 182.892C133.841 182.892 132.077 184.26 130.385 186.06C129.557 184.08 128.081 182.892 125.489 182.892C123.293 182.892 121.565 184.152 120.089 185.736H119.945L119.657 183.324H116.237V201ZM149.385 180.228C150.861 180.228 151.941 179.256 151.941 177.888C151.941 176.484 150.861 175.512 149.385 175.512C147.909 175.512 146.829 176.484 146.829 177.888C146.829 179.256 147.909 180.228 149.385 180.228ZM147.297 201H151.437V183.324H147.297V201ZM157.439 201H161.579V188.652C163.055 187.212 164.063 186.456 165.611 186.456C167.555 186.456 168.383 187.536 168.383 190.452V201H172.523V189.912C172.523 185.448 170.867 182.892 167.087 182.892C164.675 182.892 162.875 184.152 161.291 185.7H161.147L160.859 183.324H157.439V201ZM177.151 192.18C177.151 198.048 181.147 201.432 185.539 201.432C189.967 201.432 193.963 198.048 193.963 192.18C193.963 186.276 189.967 182.892 185.539 182.892C181.147 182.892 177.151 186.276 177.151 192.18ZM181.399 192.18C181.399 188.616 182.947 186.276 185.539 186.276C188.131 186.276 189.715 188.616 189.715 192.18C189.715 195.708 188.131 198.048 185.539 198.048C182.947 198.048 181.399 195.708 181.399 192.18ZM196.876 198.984C198.604 200.388 201.16 201.432 203.572 201.432C208.036 201.432 210.448 198.984 210.448 195.96C210.448 192.648 207.784 191.496 205.372 190.596C203.464 189.912 201.7 189.336 201.7 187.968C201.7 186.852 202.528 186.024 204.292 186.024C205.696 186.024 206.956 186.636 208.18 187.536L210.088 185.016C208.648 183.9 206.668 182.892 204.22 182.892C200.26 182.892 197.776 185.088 197.776 188.184C197.776 191.136 200.404 192.468 202.744 193.332C204.616 194.052 206.524 194.7 206.524 196.176C206.524 197.4 205.624 198.3 203.716 198.3C201.916 198.3 200.404 197.544 198.82 196.32L196.876 198.984ZM222.607 204.672L221.851 207.912C222.499 208.128 223.183 208.272 224.155 208.272C228.007 208.272 229.843 205.788 231.319 201.792L237.727 183.324H233.731L231.067 192C230.635 193.584 230.167 195.348 229.735 196.968H229.591C229.051 195.312 228.547 193.548 228.043 192L224.983 183.324H220.771L227.719 200.784L227.395 201.9C226.819 203.664 225.739 204.924 223.867 204.924C223.435 204.924 222.931 204.78 222.607 204.672ZM57.9672 237.18C57.9672 243.048 61.6752 246.432 66.4992 246.432C68.5152 246.432 70.6392 245.64 72.2952 244.164L70.5672 241.536C69.5952 242.328 68.3712 243.048 66.9312 243.048C64.1592 243.048 62.2152 240.708 62.2152 237.18C62.2152 233.616 64.1952 231.276 67.0392 231.276C68.1552 231.276 69.0912 231.744 70.0272 232.572L72.0072 229.944C70.8192 228.792 69.0912 227.892 66.8232 227.892C62.1072 227.892 57.9672 231.276 57.9672 237.18ZM74.4372 237.18C74.4372 243.048 78.4332 246.432 82.8252 246.432C87.2532 246.432 91.2492 243.048 91.2492 237.18C91.2492 231.276 87.2532 227.892 82.8252 227.892C78.4332 227.892 74.4372 231.276 74.4372 237.18ZM78.6852 237.18C78.6852 233.616 80.2332 231.276 82.8252 231.276C85.4172 231.276 87.0012 233.616 87.0012 237.18C87.0012 240.708 85.4172 243.048 82.8252 243.048C80.2332 243.048 78.6852 240.708 78.6852 237.18ZM96.067 246H100.207V233.652C101.683 232.212 102.691 231.456 104.239 231.456C106.183 231.456 107.011 232.536 107.011 235.452V246H111.151V234.912C111.151 230.448 109.495 227.892 105.715 227.892C103.303 227.892 101.503 229.152 99.919 230.7H99.775L99.487 228.324H96.067V246ZM115.852 237.18C115.852 243.012 118.696 246.432 123.124 246.432C125.032 246.432 126.832 245.388 128.128 244.092H128.272L128.56 246H131.98V220.584H127.84V226.992L127.984 229.836C126.616 228.648 125.356 227.892 123.34 227.892C119.488 227.892 115.852 231.42 115.852 237.18ZM120.136 237.144C120.136 233.436 121.972 231.312 124.24 231.312C125.428 231.312 126.616 231.708 127.84 232.788V241.032C126.652 242.4 125.5 243.012 124.132 243.012C121.576 243.012 120.136 240.96 120.136 237.144ZM140.06 225.228C141.536 225.228 142.616 224.256 142.616 222.888C142.616 221.484 141.536 220.512 140.06 220.512C138.584 220.512 137.504 221.484 137.504 222.888C137.504 224.256 138.584 225.228 140.06 225.228ZM137.972 246H142.112V228.324H137.972V246ZM146.962 237.18C146.962 243.048 150.67 246.432 155.494 246.432C157.51 246.432 159.634 245.64 161.29 244.164L159.562 241.536C158.59 242.328 157.366 243.048 155.926 243.048C153.154 243.048 151.21 240.708 151.21 237.18C151.21 233.616 153.19 231.276 156.034 231.276C157.15 231.276 158.086 231.744 159.022 232.572L161.002 229.944C159.814 228.792 158.086 227.892 155.818 227.892C151.102 227.892 146.962 231.276 146.962 237.18ZM167.551 225.228C169.027 225.228 170.107 224.256 170.107 222.888C170.107 221.484 169.027 220.512 167.551 220.512C166.075 220.512 164.995 221.484 164.995 222.888C164.995 224.256 166.075 225.228 167.551 225.228ZM165.463 246H169.603V228.324H165.463V246ZM174.452 237.18C174.452 243.048 178.448 246.432 182.84 246.432C187.268 246.432 191.264 243.048 191.264 237.18C191.264 231.276 187.268 227.892 182.84 227.892C178.448 227.892 174.452 231.276 174.452 237.18ZM178.7 237.18C178.7 233.616 180.248 231.276 182.84 231.276C185.432 231.276 187.016 233.616 187.016 237.18C187.016 240.708 185.432 243.048 182.84 243.048C180.248 243.048 178.7 240.708 178.7 237.18ZM196.082 246H200.222V233.652C201.698 232.212 202.706 231.456 204.254 231.456C206.198 231.456 207.026 232.536 207.026 235.452V246H211.166V234.912C211.166 230.448 209.51 227.892 205.73 227.892C203.318 227.892 201.518 229.152 199.934 230.7H199.79L199.502 228.324H196.082V246ZM215.795 237.18C215.795 243.012 219.611 246.432 224.507 246.432C226.739 246.432 228.863 245.64 230.555 244.524L229.151 241.932C227.855 242.76 226.559 243.228 225.047 243.228C222.203 243.228 220.187 241.428 219.827 238.224H231.059C231.167 237.792 231.239 237.072 231.239 236.28C231.239 231.348 228.719 227.892 223.931 227.892C219.791 227.892 215.795 231.42 215.795 237.18ZM219.791 235.596C220.151 232.644 221.951 231.096 224.039 231.096C226.451 231.096 227.639 232.788 227.639 235.596H219.791ZM234.149 243.984C235.877 245.388 238.433 246.432 240.845 246.432C245.309 246.432 247.721 243.984 247.721 240.96C247.721 237.648 245.057 236.496 242.645 235.596C240.737 234.912 238.973 234.336 238.973 232.968C238.973 231.852 239.801 231.024 241.565 231.024C242.969 231.024 244.229 231.636 245.453 232.536L247.361 230.016C245.921 228.9 243.941 227.892 241.493 227.892C237.533 227.892 235.049 230.088 235.049 233.184C235.049 236.136 237.677 237.468 240.017 238.332C241.889 239.052 243.797 239.7 243.797 241.176C243.797 242.4 242.897 243.3 240.989 243.3C239.189 243.3 237.677 242.544 236.093 241.32L234.149 243.984Z" fill="black" fill-opacity="0.8"/>
<ellipse cx="468.5" cy="50" rx="50.5" ry="50" fill="white"/>
<path d="M518 50C518 77.0526 495.847 99 468.5 99C441.153 99 419 77.0526 419 50C419 22.9474 441.153 1 468.5 1C495.847 1 518 22.9474 518 50Z" stroke="black" stroke-opacity="0.2" stroke-width="2"/>
<path opacity="0.4" d="M456.824 64H477.464V59.296H469.976C468.488 59.296 466.472 59.488 464.888 59.632C470.936 53.248 475.976 47.68 475.976 42.256C475.976 36.592 472.184 32.896 466.328 32.896C462.152 32.896 459.368 34.624 456.584 37.6L459.656 40.672C461.288 38.848 463.256 37.264 465.608 37.264C468.872 37.264 470.648 39.328 470.648 42.544C470.648 47.2 465.32 52.576 456.824 60.784V64Z" fill="#FFA588"/>
<path opacity="0.4" d="M355.451 134.804H358.763C362.003 134.804 363.731 135.74 363.731 138.44C363.731 141.104 362.003 142.472 358.763 142.472H355.451V134.804ZM368.771 155L363.155 145.172C365.999 144.2 367.871 142.04 367.871 138.44C367.871 133.184 364.091 131.456 359.195 131.456H351.275V155H355.451V145.784H359.015L364.091 155H368.771ZM371.612 146.18C371.612 152.012 375.428 155.432 380.324 155.432C382.556 155.432 384.68 154.64 386.372 153.524L384.968 150.932C383.672 151.76 382.376 152.228 380.864 152.228C378.02 152.228 376.004 150.428 375.644 147.224H386.876C386.984 146.792 387.056 146.072 387.056 145.28C387.056 140.348 384.536 136.892 379.748 136.892C375.608 136.892 371.612 140.42 371.612 146.18ZM375.608 144.596C375.968 141.644 377.768 140.096 379.856 140.096C382.268 140.096 383.456 141.788 383.456 144.596H375.608ZM390.553 150.248C390.553 153.344 392.713 155.432 395.809 155.432C397.897 155.432 399.697 154.388 401.281 153.056H401.389L401.713 155H405.097V144.524C405.097 139.592 402.937 136.892 398.509 136.892C395.701 136.892 393.217 137.972 391.273 139.196L392.785 141.968C394.333 141.032 395.989 140.24 397.753 140.24C400.129 140.24 400.921 141.824 400.957 143.696C393.721 144.488 390.553 146.468 390.553 150.248ZM394.585 149.924C394.585 148.16 396.169 146.9 400.957 146.288V150.248C399.661 151.472 398.545 152.192 397.105 152.192C395.629 152.192 394.585 151.508 394.585 149.924ZM410.872 150.464C410.872 153.524 411.952 155.432 414.904 155.432C415.876 155.432 416.596 155.288 417.1 155.072L416.56 151.976C416.236 152.048 416.092 152.048 415.912 152.048C415.48 152.048 415.012 151.688 415.012 150.68V129.584H410.872V150.464ZM423.454 134.228C424.93 134.228 426.01 133.256 426.01 131.888C426.01 130.484 424.93 129.512 423.454 129.512C421.978 129.512 420.898 130.484 420.898 131.888C420.898 133.256 421.978 134.228 423.454 134.228ZM421.366 155H425.506V137.324H421.366V155ZM430.104 155H443.928V151.688H435.324L443.64 139.52V137.324H431.04V140.6H438.456L430.104 152.768V155ZM446.8 150.248C446.8 153.344 448.96 155.432 452.056 155.432C454.144 155.432 455.944 154.388 457.528 153.056H457.636L457.96 155H461.344V144.524C461.344 139.592 459.184 136.892 454.756 136.892C451.948 136.892 449.464 137.972 447.52 139.196L449.032 141.968C450.58 141.032 452.236 140.24 454 140.24C456.376 140.24 457.168 141.824 457.204 143.696C449.968 144.488 446.8 146.468 446.8 150.248ZM450.832 149.924C450.832 148.16 452.416 146.9 457.204 146.288V150.248C455.908 151.472 454.792 152.192 453.352 152.192C451.876 152.192 450.832 151.508 450.832 149.924ZM474.07 146.18C474.07 152.012 477.886 155.432 482.782 155.432C485.014 155.432 487.138 154.64 488.83 153.524L487.426 150.932C486.13 151.76 484.834 152.228 483.322 152.228C480.478 152.228 478.462 150.428 478.102 147.224H489.334C489.442 146.792 489.514 146.072 489.514 145.28C489.514 140.348 486.994 136.892 482.206 136.892C478.066 136.892 474.07 140.42 474.07 146.18ZM478.066 144.596C478.426 141.644 480.226 140.096 482.314 140.096C484.726 140.096 485.914 141.788 485.914 144.596H478.066ZM494.188 150.464C494.188 153.524 495.268 155.432 498.22 155.432C499.192 155.432 499.912 155.288 500.416 155.072L499.876 151.976C499.552 152.048 499.408 152.048 499.228 152.048C498.796 152.048 498.328 151.688 498.328 150.68V129.584H494.188V150.464ZM516.817 153.488C518.257 154.712 519.805 155.432 521.353 155.432C525.277 155.432 528.913 151.94 528.913 145.892C528.913 140.42 526.357 136.892 521.965 136.892C520.021 136.892 518.113 137.936 516.637 139.196H516.493L516.205 137.324H512.785V161.984H516.925V156.44L516.817 153.488ZM516.925 150.536V142.292C518.293 140.96 519.517 140.312 520.813 140.312C523.477 140.312 524.629 142.4 524.629 145.928C524.629 149.924 522.829 152.012 520.489 152.012C519.445 152.012 518.221 151.616 516.925 150.536ZM532.647 150.248C532.647 153.344 534.807 155.432 537.903 155.432C539.991 155.432 541.791 154.388 543.375 153.056H543.483L543.807 155H547.191V144.524C547.191 139.592 545.031 136.892 540.603 136.892C537.795 136.892 535.311 137.972 533.367 139.196L534.879 141.968C536.427 141.032 538.083 140.24 539.847 140.24C542.223 140.24 543.015 141.824 543.051 143.696C535.815 144.488 532.647 146.468 532.647 150.248ZM536.679 149.924C536.679 148.16 538.263 146.9 543.051 146.288V150.248C541.755 151.472 540.639 152.192 539.199 152.192C537.723 152.192 536.679 151.508 536.679 149.924ZM555.235 157.592C555.235 156.764 555.667 155.972 556.603 155.252C557.287 155.432 558.043 155.504 559.015 155.504H561.427C563.443 155.504 564.559 155.9 564.559 157.268C564.559 158.78 562.615 160.112 559.771 160.112C556.963 160.112 555.235 159.176 555.235 157.592ZM551.779 158.204C551.779 161.3 554.911 162.812 559.123 162.812C564.883 162.812 568.555 160.076 568.555 156.584C568.555 153.524 566.323 152.228 562.075 152.228H558.943C556.783 152.228 556.063 151.616 556.063 150.608C556.063 149.816 556.387 149.384 556.927 148.916C557.719 149.24 558.583 149.384 559.339 149.384C563.083 149.384 566.035 147.296 566.035 143.372C566.035 142.148 565.603 141.068 565.027 140.384H568.267V137.324H561.931C561.211 137.072 560.311 136.892 559.339 136.892C555.631 136.892 552.355 139.16 552.355 143.228C552.355 145.316 553.471 147.008 554.659 147.908V148.052C553.651 148.772 552.715 149.96 552.715 151.328C552.715 152.768 553.399 153.704 554.299 154.28V154.424C552.679 155.432 551.779 156.728 551.779 158.204ZM559.339 146.792C557.611 146.792 556.243 145.496 556.243 143.228C556.243 140.996 557.611 139.736 559.339 139.736C561.067 139.736 562.399 141.032 562.399 143.228C562.399 145.496 561.031 146.792 559.339 146.792ZM570.676 146.18C570.676 152.048 574.672 155.432 579.064 155.432C583.492 155.432 587.488 152.048 587.488 146.18C587.488 140.276 583.492 136.892 579.064 136.892C574.672 136.892 570.676 140.276 570.676 146.18ZM574.924 146.18C574.924 142.616 576.472 140.276 579.064 140.276C581.656 140.276 583.24 142.616 583.24 146.18C583.24 149.708 581.656 152.048 579.064 152.048C576.472 152.048 574.924 149.708 574.924 146.18Z" fill="black" fill-opacity="0.8"/>
<ellipse cx="784.5" cy="50" rx="50.5" ry="50" fill="white"/>
<path d="M834 50C834 77.0526 811.847 99 784.5 99C757.153 99 735 77.0526 735 50C735 22.9474 757.153 1 784.5 1C811.847 1 834 22.9474 834 50Z" stroke="black" stroke-opacity="0.2" stroke-width="2"/>
<path opacity="0.4" d="M772.152 60.256C774.312 62.656 777.576 64.576 782.52 64.576C788.376 64.576 793.224 61.312 793.224 55.744C793.224 51.712 790.488 49.12 786.888 48.16V47.968C790.2 46.672 792.216 44.368 792.216 40.96C792.216 35.776 788.184 32.896 782.328 32.896C778.68 32.896 775.752 34.432 773.16 36.736L775.992 40.144C777.864 38.416 779.736 37.264 782.136 37.264C784.92 37.264 786.648 38.8 786.648 41.344C786.648 44.176 784.68 46.24 778.68 46.24V50.272C785.64 50.272 787.656 52.288 787.656 55.456C787.656 58.336 785.352 60.064 782.04 60.064C778.968 60.064 776.616 58.576 774.792 56.704L772.152 60.256Z" fill="#FFA588"/>
<path opacity="0.4" d="M716.783 134.804H720.095C723.335 134.804 725.063 135.74 725.063 138.44C725.063 141.104 723.335 142.472 720.095 142.472H716.783V134.804ZM730.103 155L724.487 145.172C727.331 144.2 729.203 142.04 729.203 138.44C729.203 133.184 725.423 131.456 720.527 131.456H712.607V155H716.783V145.784H720.347L725.423 155H730.103ZM732.944 146.18C732.944 152.012 736.76 155.432 741.656 155.432C743.888 155.432 746.012 154.64 747.704 153.524L746.3 150.932C745.004 151.76 743.708 152.228 742.196 152.228C739.352 152.228 737.336 150.428 736.976 147.224H748.208C748.316 146.792 748.388 146.072 748.388 145.28C748.388 140.348 745.868 136.892 741.08 136.892C736.94 136.892 732.944 140.42 732.944 146.18ZM736.94 144.596C737.3 141.644 739.1 140.096 741.188 140.096C743.6 140.096 744.788 141.788 744.788 144.596H736.94ZM751.91 146.18C751.91 152.048 755.618 155.432 760.442 155.432C762.458 155.432 764.582 154.64 766.238 153.164L764.51 150.536C763.538 151.328 762.314 152.048 760.874 152.048C758.102 152.048 756.158 149.708 756.158 146.18C756.158 142.616 758.138 140.276 760.982 140.276C762.098 140.276 763.034 140.744 763.97 141.572L765.95 138.944C764.762 137.792 763.034 136.892 760.766 136.892C756.05 136.892 751.91 140.276 751.91 146.18ZM772.499 134.228C773.975 134.228 775.055 133.256 775.055 131.888C775.055 130.484 773.975 129.512 772.499 129.512C771.023 129.512 769.943 130.484 769.943 131.888C769.943 133.256 771.023 134.228 772.499 134.228ZM770.411 155H774.551V137.324H770.411V155ZM780.553 155H783.829L784.189 153.2H784.297C785.773 154.64 787.501 155.432 789.121 155.432C793.045 155.432 796.681 151.94 796.681 145.856C796.681 140.42 794.125 136.892 789.697 136.892C787.897 136.892 786.061 137.792 784.585 139.088L784.693 136.136V129.584H780.553V155ZM784.693 150.536V142.292C786.061 140.96 787.285 140.312 788.581 140.312C791.245 140.312 792.397 142.4 792.397 145.928C792.397 149.924 790.597 152.012 788.257 152.012C787.213 152.012 785.953 151.616 784.693 150.536ZM800.441 146.18C800.441 152.012 804.257 155.432 809.153 155.432C811.385 155.432 813.509 154.64 815.201 153.524L813.797 150.932C812.501 151.76 811.205 152.228 809.693 152.228C806.849 152.228 804.833 150.428 804.473 147.224H815.705C815.813 146.792 815.885 146.072 815.885 145.28C815.885 140.348 813.365 136.892 808.577 136.892C804.437 136.892 800.441 140.42 800.441 146.18ZM804.437 144.596C804.797 141.644 806.597 140.096 808.685 140.096C811.097 140.096 812.285 141.788 812.285 144.596H804.437ZM829.274 149.024C829.274 152.84 830.786 155.432 834.89 155.432C836.294 155.432 837.518 155.108 838.49 154.784L837.77 151.724C837.266 151.94 836.546 152.12 835.934 152.12C834.242 152.12 833.45 151.112 833.45 149.024V140.6H837.95V137.324H833.45V132.5H829.994L829.49 137.324L826.754 137.504V140.6H829.274V149.024ZM842.07 148.412C842.07 152.876 843.726 155.432 847.506 155.432C849.918 155.432 851.646 154.244 853.194 152.408H853.302L853.626 155H857.01V137.324H852.87V149.42C851.538 151.148 850.494 151.868 848.946 151.868C847.038 151.868 846.21 150.788 846.21 147.872V137.324H842.07V148.412ZM669.042 201H673.182V188.652C674.55 187.176 675.81 186.456 676.89 186.456C678.762 186.456 679.626 187.536 679.626 190.452V201H683.766V188.652C685.134 187.176 686.358 186.456 687.474 186.456C689.31 186.456 690.174 187.536 690.174 190.452V201H694.35V189.912C694.35 185.448 692.622 182.892 688.878 182.892C686.646 182.892 684.882 184.26 683.19 186.06C682.362 184.08 680.886 182.892 678.294 182.892C676.098 182.892 674.37 184.152 672.894 185.736H672.75L672.462 183.324H669.042V201ZM698.95 192.18C698.95 198.012 702.766 201.432 707.662 201.432C709.894 201.432 712.018 200.64 713.71 199.524L712.306 196.932C711.01 197.76 709.714 198.228 708.202 198.228C705.358 198.228 703.342 196.428 702.982 193.224H714.214C714.322 192.792 714.394 192.072 714.394 191.28C714.394 186.348 711.874 182.892 707.086 182.892C702.946 182.892 698.95 186.42 698.95 192.18ZM702.946 190.596C703.306 187.644 705.106 186.096 707.194 186.096C709.606 186.096 710.794 187.788 710.794 190.596H702.946ZM719.068 201H723.208V188.652C724.576 187.176 725.836 186.456 726.916 186.456C728.788 186.456 729.652 187.536 729.652 190.452V201H733.792V188.652C735.16 187.176 736.384 186.456 737.5 186.456C739.336 186.456 740.2 187.536 740.2 190.452V201H744.376V189.912C744.376 185.448 742.648 182.892 738.904 182.892C736.672 182.892 734.908 184.26 733.216 186.06C732.388 184.08 730.912 182.892 728.32 182.892C726.124 182.892 724.396 184.152 722.92 185.736H722.776L722.488 183.324H719.068V201ZM750.128 201H753.404L753.764 199.2H753.872C755.348 200.64 757.076 201.432 758.696 201.432C762.62 201.432 766.256 197.94 766.256 191.856C766.256 186.42 763.7 182.892 759.272 182.892C757.472 182.892 755.636 183.792 754.16 185.088L754.268 182.136V175.584H750.128V201ZM754.268 196.536V188.292C755.636 186.96 756.86 186.312 758.156 186.312C760.82 186.312 761.972 188.4 761.972 191.928C761.972 195.924 760.172 198.012 757.832 198.012C756.788 198.012 755.528 197.616 754.268 196.536ZM771.168 201H775.308V190.2C776.388 187.536 778.08 186.564 779.484 186.564C780.24 186.564 780.708 186.672 781.32 186.852L782.04 183.252C781.5 183 780.924 182.892 780.024 182.892C778.152 182.892 776.28 184.152 775.02 186.456H774.876L774.588 183.324H771.168V201ZM783.814 192.18C783.814 198.012 787.63 201.432 792.526 201.432C794.758 201.432 796.882 200.64 798.574 199.524L797.17 196.932C795.874 197.76 794.578 198.228 793.066 198.228C790.222 198.228 788.206 196.428 787.846 193.224H799.078C799.186 192.792 799.258 192.072 799.258 191.28C799.258 186.348 796.738 182.892 791.95 182.892C787.81 182.892 783.814 186.42 783.814 192.18ZM787.81 190.596C788.17 187.644 789.97 186.096 792.058 186.096C794.47 186.096 795.658 187.788 795.658 190.596H787.81ZM802.168 198.984C803.896 200.388 806.452 201.432 808.864 201.432C813.328 201.432 815.74 198.984 815.74 195.96C815.74 192.648 813.076 191.496 810.664 190.596C808.756 189.912 806.992 189.336 806.992 187.968C806.992 186.852 807.82 186.024 809.584 186.024C810.988 186.024 812.248 186.636 813.472 187.536L815.38 185.016C813.94 183.9 811.96 182.892 809.512 182.892C805.552 182.892 803.068 185.088 803.068 188.184C803.068 191.136 805.696 192.468 808.036 193.332C809.908 194.052 811.816 194.7 811.816 196.176C811.816 197.4 810.916 198.3 809.008 198.3C807.208 198.3 805.696 197.544 804.112 196.32L802.168 198.984ZM820.156 201H824.296V183.324H820.156V201ZM826.924 175.116H822.82L819.58 180.372H822.676L826.924 175.116ZM829.542 196.248C829.542 199.344 831.702 201.432 834.798 201.432C836.886 201.432 838.686 200.388 840.27 199.056H840.378L840.702 201H844.086V190.524C844.086 185.592 841.926 182.892 837.498 182.892C834.69 182.892 832.206 183.972 830.262 185.196L831.774 187.968C833.322 187.032 834.978 186.24 836.742 186.24C839.118 186.24 839.91 187.824 839.946 189.696C832.71 190.488 829.542 192.468 829.542 196.248ZM833.574 195.924C833.574 194.16 835.158 192.9 839.946 192.288V196.248C838.65 197.472 837.534 198.192 836.094 198.192C834.618 198.192 833.574 197.508 833.574 195.924ZM861.924 201H866.712L872.724 183.324H868.728L865.92 192.504C865.416 194.232 864.912 196.032 864.408 197.832H864.264C863.796 196.032 863.256 194.232 862.788 192.504L859.98 183.324H855.768L861.924 201ZM876.509 201H880.649V183.324H876.509V201ZM883.277 175.116H879.173L875.933 180.372H879.029L883.277 175.116ZM885.894 196.248C885.894 199.344 888.054 201.432 891.15 201.432C893.238 201.432 895.038 200.388 896.622 199.056H896.73L897.054 201H900.438V190.524C900.438 185.592 898.278 182.892 893.85 182.892C891.042 182.892 888.558 183.972 886.614 185.196L888.126 187.968C889.674 187.032 891.33 186.24 893.094 186.24C895.47 186.24 896.262 187.824 896.298 189.696C889.062 190.488 885.894 192.468 885.894 196.248ZM889.926 195.924C889.926 194.16 891.51 192.9 896.298 192.288V196.248C895.002 197.472 893.886 198.192 892.446 198.192C890.97 198.192 889.926 197.508 889.926 195.924ZM639.389 237.18C639.389 243.048 643.097 246.432 647.921 246.432C649.937 246.432 652.061 245.64 653.717 244.164L651.989 241.536C651.017 242.328 649.793 243.048 648.353 243.048C645.581 243.048 643.637 240.708 643.637 237.18C643.637 233.616 645.617 231.276 648.461 231.276C649.577 231.276 650.513 231.744 651.449 232.572L653.429 229.944C652.241 228.792 650.513 227.892 648.245 227.892C643.529 227.892 639.389 231.276 639.389 237.18ZM655.859 237.18C655.859 243.048 659.855 246.432 664.247 246.432C668.675 246.432 672.671 243.048 672.671 237.18C672.671 231.276 668.675 227.892 664.247 227.892C659.855 227.892 655.859 231.276 655.859 237.18ZM660.107 237.18C660.107 233.616 661.655 231.276 664.247 231.276C666.839 231.276 668.423 233.616 668.423 237.18C668.423 240.708 666.839 243.048 664.247 243.048C661.655 243.048 660.107 240.708 660.107 237.18ZM677.488 246H681.628V235.2C682.708 232.536 684.4 231.564 685.804 231.564C686.56 231.564 687.028 231.672 687.64 231.852L688.36 228.252C687.82 228 687.244 227.892 686.344 227.892C684.472 227.892 682.6 229.152 681.34 231.456H681.196L680.908 228.324H677.488V246ZM691.638 246H695.778V235.2C696.858 232.536 698.55 231.564 699.954 231.564C700.71 231.564 701.178 231.672 701.79 231.852L702.51 228.252C701.97 228 701.394 227.892 700.494 227.892C698.622 227.892 696.75 229.152 695.49 231.456H695.346L695.058 228.324H691.638V246ZM704.284 237.18C704.284 243.012 708.1 246.432 712.996 246.432C715.228 246.432 717.352 245.64 719.044 244.524L717.64 241.932C716.344 242.76 715.048 243.228 713.536 243.228C710.692 243.228 708.676 241.428 708.316 238.224H719.548C719.656 237.792 719.728 237.072 719.728 236.28C719.728 231.348 717.208 227.892 712.42 227.892C708.28 227.892 704.284 231.42 704.284 237.18ZM708.28 235.596C708.64 232.644 710.44 231.096 712.528 231.096C714.94 231.096 716.128 232.788 716.128 235.596H708.28ZM723.25 237.18C723.25 243.048 727.246 246.432 731.638 246.432C736.066 246.432 740.062 243.048 740.062 237.18C740.062 231.276 736.066 227.892 731.638 227.892C727.246 227.892 723.25 231.276 723.25 237.18ZM727.498 237.18C727.498 233.616 729.046 231.276 731.638 231.276C734.23 231.276 735.814 233.616 735.814 237.18C735.814 240.708 734.23 243.048 731.638 243.048C729.046 243.048 727.498 240.708 727.498 237.18ZM751.831 237.18C751.831 243.012 755.647 246.432 760.543 246.432C762.775 246.432 764.899 245.64 766.591 244.524L765.187 241.932C763.891 242.76 762.595 243.228 761.083 243.228C758.239 243.228 756.223 241.428 755.863 238.224H767.095C767.203 237.792 767.275 237.072 767.275 236.28C767.275 231.348 764.755 227.892 759.967 227.892C755.827 227.892 751.831 231.42 751.831 237.18ZM755.827 235.596C756.187 232.644 757.987 231.096 760.075 231.096C762.487 231.096 763.675 232.788 763.675 235.596H755.827ZM771.949 241.464C771.949 244.524 773.029 246.432 775.981 246.432C776.953 246.432 777.673 246.288 778.177 246.072L777.637 242.976C777.313 243.048 777.169 243.048 776.989 243.048C776.557 243.048 776.089 242.688 776.089 241.68V220.584H771.949V241.464ZM781.29 237.18C781.29 243.012 785.106 246.432 790.002 246.432C792.234 246.432 794.358 245.64 796.05 244.524L794.646 241.932C793.35 242.76 792.054 243.228 790.542 243.228C787.698 243.228 785.682 241.428 785.322 238.224H796.554C796.662 237.792 796.734 237.072 796.734 236.28C796.734 231.348 794.214 227.892 789.426 227.892C785.286 227.892 781.29 231.42 781.29 237.18ZM785.286 235.596C785.646 232.644 787.446 231.096 789.534 231.096C791.946 231.096 793.134 232.788 793.134 235.596H785.286ZM800.257 237.18C800.257 243.048 803.965 246.432 808.789 246.432C810.805 246.432 812.929 245.64 814.585 244.164L812.857 241.536C811.885 242.328 810.661 243.048 809.221 243.048C806.449 243.048 804.505 240.708 804.505 237.18C804.505 233.616 806.485 231.276 809.329 231.276C810.445 231.276 811.381 231.744 812.317 232.572L814.297 229.944C813.109 228.792 811.381 227.892 809.113 227.892C804.397 227.892 800.257 231.276 800.257 237.18ZM819.369 240.024C819.369 243.84 820.881 246.432 824.985 246.432C826.389 246.432 827.613 246.108 828.585 245.784L827.865 242.724C827.361 242.94 826.641 243.12 826.029 243.12C824.337 243.12 823.545 242.112 823.545 240.024V231.6H828.045V228.324H823.545V223.5H820.089L819.585 228.324L816.849 228.504V231.6H819.369V240.024ZM832.485 246H836.625V235.2C837.705 232.536 839.397 231.564 840.801 231.564C841.557 231.564 842.025 231.672 842.637 231.852L843.357 228.252C842.817 228 842.241 227.892 841.341 227.892C839.469 227.892 837.597 229.152 836.337 231.456H836.193L835.905 228.324H832.485V246ZM845.131 237.18C845.131 243.048 849.127 246.432 853.519 246.432C857.947 246.432 861.943 243.048 861.943 237.18C861.943 231.276 857.947 227.892 853.519 227.892C849.127 227.892 845.131 231.276 845.131 237.18ZM849.379 237.18C849.379 233.616 850.927 231.276 853.519 231.276C856.111 231.276 857.695 233.616 857.695 237.18C857.695 240.708 856.111 243.048 853.519 243.048C850.927 243.048 849.379 240.708 849.379 237.18ZM858.235 220.116H854.095L850.891 225.372H853.951L858.235 220.116ZM866.761 246H870.901V233.652C872.377 232.212 873.385 231.456 874.933 231.456C876.877 231.456 877.705 232.536 877.705 235.452V246H881.845V234.912C881.845 230.448 880.189 227.892 876.409 227.892C873.997 227.892 872.197 229.152 870.613 230.7H870.469L870.181 228.324H866.761V246ZM889.714 225.228C891.19 225.228 892.27 224.256 892.27 222.888C892.27 221.484 891.19 220.512 889.714 220.512C888.238 220.512 887.158 221.484 887.158 222.888C887.158 224.256 888.238 225.228 889.714 225.228ZM887.626 246H891.766V228.324H887.626V246ZM896.616 237.18C896.616 243.048 900.324 246.432 905.148 246.432C907.164 246.432 909.288 245.64 910.944 244.164L909.216 241.536C908.244 242.328 907.02 243.048 905.58 243.048C902.808 243.048 900.864 240.708 900.864 237.18C900.864 233.616 902.844 231.276 905.688 231.276C906.804 231.276 907.74 231.744 908.676 232.572L910.656 229.944C909.468 228.792 907.74 227.892 905.472 227.892C900.756 227.892 896.616 231.276 896.616 237.18ZM913.086 237.18C913.086 243.048 917.082 246.432 921.474 246.432C925.902 246.432 929.898 243.048 929.898 237.18C929.898 231.276 925.902 227.892 921.474 227.892C917.082 227.892 913.086 231.276 913.086 237.18ZM917.334 237.18C917.334 233.616 918.882 231.276 921.474 231.276C924.066 231.276 925.65 233.616 925.65 237.18C925.65 240.708 924.066 243.048 921.474 243.048C918.882 243.048 917.334 240.708 917.334 237.18Z" fill="black" fill-opacity="0.8"/>
<line x1="201" y1="49" x2="419" y2="49" stroke="black" stroke-opacity="0.2" stroke-width="2"/>
<line x1="518" y1="49" x2="736" y2="49" stroke="black" stroke-opacity="0.2" stroke-width="2"/>
</svg>
